<?xml version="1.0" encoding="UTF-8"?><svg id="uuid-1ce65f14-4312-4685-bedd-6e35e843f47c" xmlns="http://www.w3.org/2000/svg" viewBox="0 0 102.67 29.06"><defs><style>.uuid-cc85c54c-4294-4f7f-a501-78e0980cbd9b{fill:#013d36;}</style></defs><g id="uuid-e21d218c-5724-4872-9347-ad4190aa9cf4"><g id="uuid-fc0f9627-a04c-487a-b64a-65ac49646e9a"><path class="uuid-cc85c54c-4294-4f7f-a501-78e0980cbd9b" d="M13.97,29.06c-2.4,0-4.46-.41-6.21-1.23s-3.2-1.92-4.35-3.31c-1.15-1.39-2-2.93-2.57-4.63-.57-1.7-.84-3.45-.84-5.23v-.24c0-1.8.28-3.55.84-5.25.57-1.7,1.42-3.25,2.57-4.63,1.15-1.39,2.6-2.49,4.35-3.31,1.75-.82,3.83-1.23,6.21-1.23,2.1,0,4.02.36,5.77,1.1,1.75.74,3.22,1.67,4.37,2.77v5.36h-.35c-.46-1.59-1.29-2.95-2.51-4.1s-2.65-2.02-4.3-2.65c-1.65-.61-3.29-.93-4.95-.93-1.91,0-3.69.39-5.33,1.18-1.65.79-2.98,1.91-3.99,3.37-1.01,1.47-1.51,3.2-1.51,5.19,0,1.88.44,3.75,1.31,5.66.87,1.91,2.03,3.64,3.5,5.22,1.45,1.58,3.11,2.85,4.93,3.81s3.7,1.45,5.63,1.45c2.96,0,5.49-1.06,7.57-3.17v.73c-1.15,1.25-2.57,2.22-4.26,2.95-1.69.73-3.66,1.09-5.89,1.09l.02.03Z"/><path class="uuid-cc85c54c-4294-4f7f-a501-78e0980cbd9b" d="M47.63,29.06c.82,0,1.53-.2,2.13-.63.61-.43,1.07-.98,1.42-1.69.33-.71.5-1.48.5-2.3,0-1.09-.17-2.11-.54-3.09-.35-.98-.8-1.92-1.37-2.87-.57-.93-1.18-1.88-1.84-2.84-.79-1.13-1.54-2.33-2.29-3.58-.74-1.26-1.34-2.62-1.83-4.1s-.73-3.12-.73-4.95c0-.3.02-.76.06-1.34s.11-1.04.2-1.34h-3.63c-6.26,15.67-9.5,23.82-9.74,24.45-.41,1.04-.91,1.83-1.5,2.38s-1.36.93-2.33,1.17v.36h8.46v-.36c-.98-.27-1.47-.79-1.47-1.56,0-.58.17-1.31.5-2.18.44-1.12.76-1.88.96-2.25.22-.55.5-1.06.84-1.54.77-1.06,1.7-1.58,2.81-1.58.95.05,1.73.52,2.35,1.39.61.87,1.2,1.91,1.73,3.11.39.88.84,1.73,1.31,2.54.47.82,1.02,1.48,1.65,2.02.63.52,1.39.79,2.3.79h.02ZM46.69,28.17c-.66,0-1.23-.24-1.69-.69-.46-.46-.85-1.04-1.2-1.77-.33-.71-.65-1.48-.96-2.29-.46-1.32-.99-2.49-1.62-3.51-.63-1.02-1.53-1.56-2.66-1.62-1.18,0-2.19.65-3.06,1.92.8-.85,1.92-2.16,2.87-3.99.5-.98,1.67-3.26,1.95-6.35.27-2.9-.46-4.16.55-6.01.57-1.04,1.37-1.69,1.94-2.08-.08.65-.14,1.56-.14,2.65,0,1.89.2,3.56.61,4.98s.93,2.71,1.56,3.85,1.26,2.21,1.92,3.2c.55.82,1.06,1.62,1.51,2.43.46.8.84,1.65,1.12,2.54.28.88.43,1.84.43,2.88,0,.68-.11,1.31-.32,1.91-.2.58-.55,1.06-1.02,1.43s-1.07.55-1.8.55v-.03Z"/><path class="uuid-cc85c54c-4294-4f7f-a501-78e0980cbd9b" d="M61.36,28.7h-1.83c-2.36-5.99-4.82-12.14-7.36-18.46l-2.38-6.01c-.71-2-1.97-3.18-3.8-3.55v-.36h8.45v.36c-.98.3-1.47.82-1.47,1.61,0,.52.16,1.17.47,1.94l8.62,21.66,2.98-7.57c.28-.71.61-1.69.88-2.85.19-.79.49-2.08.52-3.61.06-2.21-.46-3.8-1.12-5.86-.87-2.7-1.34-4.07-2.7-4.81-.76-.41-1.51-.49-2.03-.49h-.73v-.36h.74c1.64,0,3.07.27,4.3.77s2.19,1.26,2.87,2.27c.69,1.01,1.02,2.3,1.02,3.85s-.41,3.45-1.21,5.58l-6.26,15.89h.02Z"/><path class="uuid-cc85c54c-4294-4f7f-a501-78e0980cbd9b" d="M76.1,28.7h-8.21v-.36c.88-.22,1.5-.61,1.86-1.15s.54-1.34.54-2.4V4.24c0-1.06-.17-1.84-.54-2.4-.36-.54-.98-.93-1.86-1.15v-.36h8.21v.36c-.88.22-1.5.61-1.86,1.15s-.54,1.34-.54,2.4c-.08,1.21-.13,3.14.11,5.47.55,5.45,2,6.7,1.12,9.49-.71,2.22-2.11,2.96-1.89,5.09.17,1.58,1.12,2.79,1.2,2.88.66.84,1.4,1.28,1.86,1.51v.02Z"/><path class="uuid-cc85c54c-4294-4f7f-a501-78e0980cbd9b" d="M81.21,29.06c-.82,0-1.53-.2-2.13-.63-.61-.43-1.07-.98-1.42-1.69-.33-.71-.5-1.48-.5-2.3,0-1.09.17-2.11.54-3.09.35-.98.8-1.92,1.37-2.87.57-.93,1.18-1.88,1.84-2.84.79-1.13,1.54-2.33,2.29-3.58.74-1.26,1.34-2.62,1.83-4.1.49-1.48.73-3.12.73-4.95,0-.3-.02-.76-.06-1.34-.05-.58-.11-1.04-.2-1.34h3.63c6.26,15.67,9.5,23.82,9.74,24.45.41,1.04.91,1.83,1.5,2.38.58.55,1.36.93,2.33,1.17v.36h-8.46v-.36c.98-.27,1.47-.79,1.47-1.56,0-.58-.17-1.31-.5-2.18-.44-1.12-.76-1.88-.96-2.25-.22-.55-.5-1.06-.84-1.54-.77-1.06-1.7-1.58-2.81-1.58-.95.05-1.73.52-2.35,1.39-.61.87-1.2,1.91-1.73,3.11-.39.88-.84,1.73-1.31,2.54-.47.82-1.02,1.48-1.65,2.02-.63.52-1.39.79-2.3.79h-.02ZM82.15,28.17c.66,0,1.23-.24,1.69-.69s.85-1.04,1.2-1.77c.33-.71.65-1.48.96-2.29.46-1.32.99-2.49,1.62-3.51.63-1.02,1.53-1.56,2.66-1.62,1.18,0,2.19.65,3.06,1.92.03-.87-.02-2.18-.47-3.64-.69-2.24-1.59-2.46-2.58-4.4-1.95-3.86-.2-6.54-2.51-9.08-.65-.71-1.34-1.1-1.75-1.31.08.65.14,1.56.14,2.65,0,1.89-.2,3.56-.61,4.98-.41,1.42-.93,2.71-1.56,3.85-.63,1.13-1.26,2.21-1.92,3.2-.55.82-1.06,1.62-1.51,2.43s-.84,1.65-1.12,2.54c-.28.88-.43,1.84-.43,2.88,0,.68.11,1.31.32,1.91.2.58.55,1.06,1.02,1.43s1.07.55,1.8.55v-.03Z"/></g></g></svg>