<?xml version="1.0" encoding="UTF-8"?><svg id="uuid-13cf80c9-03cb-4806-a5b5-091120099b92" xmlns="http://www.w3.org/2000/svg" viewBox="0 0 155.3 44.58"><defs><style>.uuid-8c380109-6f1e-4e14-83dc-ffa08fb7a3c0{fill-rule:evenodd;}</style></defs><g id="uuid-a2ec0414-f257-4956-b276-9ea636d03fc5"><g id="uuid-fe97d12e-07f7-46eb-91ef-e5a485f30b86"><g id="uuid-7c7365cd-915f-477d-805a-64481d4f23f8"><path class="uuid-8c380109-6f1e-4e14-83dc-ffa08fb7a3c0" d="M43.86,24.43c-1.6,0-2.41,1.16-2.41,3.39,0,2.5.89,3.74,2.59,3.74,1.16,0,1.87-.62,2.32-1.78l.62.27c-.45,1.52-1.6,2.23-3.39,2.23-1.15.05-2.28-.37-3.12-1.16-.82-.79-1.27-1.89-1.25-3.03-.05-1.19.44-2.34,1.34-3.12.86-.89,2.06-1.37,3.3-1.34.73-.03,1.46.19,2.05.62.44.23.74.66.8,1.16,0,.44-.35.8-.8.8,0,0,0,0,0,0-.45,0-.89-.36-.98-1.07-.14-.47-.59-.77-1.07-.71h0ZM152.44,22.64v15.24h-.98l-12.93-16.49v11.77c-.07.75.03,1.51.27,2.23.57.79,1.52,1.23,2.5,1.16h.36v.89h-7.04v-.89c1.34-.09,2.23-.44,2.58-1.16.2-.73.29-1.48.27-2.23v-9.98c0-1.78-.27-2.76-.71-3.21l-1.96-.45h-.18v-.89h5.97l10.88,13.64v-9.81c.06-.88-.23-1.74-.8-2.41-.53-.41-1.2-.61-1.87-.53h-.36v-.89h6.86v.89h-.27c-.89-.01-1.73.42-2.23,1.16-.25.62-.37,1.29-.36,1.96h0ZM124.36,20.68l-1.16-.89-2.5-.18h-3.03v7.49h1.96c.71.05,1.42-.1,2.05-.44.36-.45.45-1.07.45-2.14v-.09h1.07v6.33h-1.07v-.09c0-1.07-.09-1.78-.45-2.14-.27-.27-.98-.45-2.05-.45h-1.96v4.46c0,1.78.18,2.85.44,3.3.36.45,1.07.71,2.41.71h1.07c1.78,0,3.12-.53,3.83-1.6.73-1.03,1.27-2.17,1.6-3.39h.89l-.27,5.88h-16.22v-.89h.45c1.07,0,1.69-.09,1.96-.53.27-.45.45-1.51.45-3.03v-9.9c0-1.52-.18-2.59-.45-3.03-.27-.45-.89-.53-1.78-.53h-.27v-.89h14.35l.36,4.72h-.89c-.31-.94-.73-1.84-1.25-2.67h0ZM98.96,24.43h.89v6.33h-.89v-.09c0-1.07-.09-1.78-.53-2.14-.65-.35-1.4-.51-2.14-.45h-1.87v4.46c0,1.78.09,2.85.45,3.3.27.45.98.71,2.32.71h1.07c1.78,0,3.12-.53,3.83-1.6.79-1,1.37-2.15,1.69-3.39h.89l-.36,5.88h-16.14v-.89h.45c.98,0,1.6-.09,1.87-.53.36-.45.44-1.51.44-3.03v-9.9c0-1.52-.09-2.59-.44-3.03-.27-.45-.89-.53-1.87-.53h-.18v-.89h14.44l.27,4.72h-.89c-.24-.95-.63-1.85-1.16-2.67-.38-.39-.83-.69-1.34-.89l-2.41-.18h-2.94v7.49h1.87c.74.06,1.49-.09,2.14-.44.45-.45.53-1.07.53-2.14v-.09h0ZM63.65,23.09c0-1.69-.18-2.59-.45-3.03-.36-.45-1.07-.53-2.14-.53h-.27v-.89h9.09v.89h-.36c-.98,0-1.78.09-2.05.53s-.45,1.34-.45,3.03v6.33c0,2.59.27,4.37.71,5.08.8,1.34,2.23,2.05,4.46,2.05,1.16.02,2.31-.29,3.3-.89.95-.49,1.68-1.32,2.05-2.32.28-1.29.4-2.61.36-3.92v-6.51c0-1.16-.18-2.05-.62-2.5-.27-.45-1.07-.8-2.05-.89h-.18v-.89h6.69v.89h-.27l-1.52.53c-.71.45-1.07,1.25-1.07,2.41v8.2c0,2.5-.71,4.28-2.05,5.44-1.34,1.25-3.3,1.78-5.62,1.78-2.85,0-5.08-.89-6.42-2.67-1.07-1.16-1.34-2.67-1.16-4.46v-7.67h0ZM43.42,19.34c1.45-.02,2.86.45,4.01,1.34,1.6,1.34,2.41,3.74,2.41,7.4.08,2.01-.35,4-1.25,5.79l-.98,1.34c-2.3,2.28-6.01,2.26-8.28-.04-.13-.13-.25-.26-.36-.4-1.26-2.1-1.88-4.51-1.78-6.95-.09-2.02.38-4.02,1.34-5.79.99-1.75,2.89-2.79,4.9-2.68ZM33.16,27.99c0,3.83,1.52,6.69,4.64,8.47,1.64.98,3.53,1.47,5.44,1.43l1.07-.09-4.19,2.32c-.98.45-1.43.89-1.43,1.34s.27.62.71.62l1.16-.62c.69-.69,1.61-1.1,2.59-1.16,1.34,0,2.94.63,4.72,1.96l1.96,1.34c1.17.66,2.49.99,3.83.98,3.3,0,5.08-1.61,5.53-4.72h-.89c-.45,1.34-1.52,1.96-3.12,1.96-1.54-.07-3.05-.44-4.46-1.07-2.11-.92-4.38-1.43-6.69-1.52l-.45.18,3.39-1.96c2.04-.6,3.83-1.85,5.08-3.57,1.3-1.64,1.97-3.7,1.87-5.79.04-2.68-1.02-5.26-2.94-7.13-1.96-1.78-4.28-2.67-7.4-2.67s-5.71.89-7.58,2.67c-1.96,1.78-2.85,4.19-2.85,7.04h0ZM19.35,21.31l-7.31,16.14h-.71L3.74,21.31v10.7c0,1.6.18,2.67.62,3.21.27.89.98,1.34,2.23,1.34h.09v.89H0v-.89h.18c.95.06,1.84-.47,2.23-1.34.36-1.09.51-2.24.45-3.39v-8.74c0-1.69-.18-2.59-.45-3.03s-.89-.53-1.96-.53h-.45v-.89h6.42l6.51,14.53,6.6-14.53h6.33v.89h-.53c-1.07,0-1.78.27-2.14.71-.27.45-.45,1.34-.45,2.85v9.89c0,1.52.18,2.59.62,3.03.18.45.71.53,1.78.53h.71v.89h-9.36v-.89h.45c1.07,0,1.69-.09,1.96-.53s.45-1.51.45-3.03v-11.68h0ZM149.06,3.57c0,1.78-.62,2.67-1.96,2.85l-2.23.18V.89h.89c1.25,0,2.14.18,2.58.62.51.55.77,1.3.71,2.05h0ZM154.67,13.55v-.71c-.98,0-2.23-.89-3.57-2.67-1.16-1.78-2.05-2.85-2.76-3.3,2.32-.45,3.57-1.52,3.57-3.3-.02-1.16-.71-2.21-1.78-2.67C149.24.36,147.72,0,145.67,0l-5.08.36v.54h.18c.5-.06,1.01.07,1.43.36l.36,2.05v6.95l-.36,2.14c-.09.27-.53.45-1.34.45h-.44v.71h6.69v-.71h-.53c-.8,0-1.25-.18-1.34-.45-.27-.68-.39-1.41-.36-2.14v-2.94h.18c.52.01,1.03.1,1.51.27l1.87,2.59c1.07,1.78,1.96,2.94,2.59,3.39h3.65ZM135.68,9.36l-.18,4.19h-11.41v-.71h.27c.8,0,1.25-.18,1.34-.45.27-.68.39-1.41.36-2.14V3.3c.04-.67-.08-1.35-.36-1.96-.09-.27-.53-.45-1.16-.45h-.18V.36h10.16l.09,3.21h-.54c-.14-.64-.41-1.25-.8-1.78-.45-.54-1.43-.89-2.76-.89h-1.96v5.26h1.34c.47.05.95-.08,1.34-.36.27-.09.45-.53.45-1.34v-.09h.71v4.46h-.71v-.18c-.01-.52-.1-1.03-.27-1.52l-1.51-.27h-1.34v3.3c0,.75.08,1.5.27,2.23.18.27.8.45,1.69.45h.71c1.34,0,2.23-.36,2.67-1.07.49-.75.88-1.56,1.16-2.41h.63s0,0,0,0ZM113.84,1.52c1.6.89,2.41,2.85,2.41,5.62,0,2.14-.45,3.74-1.52,4.81-1.07.65-2.31.97-3.57.89-.71,0-1.16-.18-1.34-.45-.23-.84-.32-1.71-.27-2.59V.89l1.16-.09c1.09-.05,2.16.2,3.12.71h0ZM116.07,1.34c-1.52-.71-3.57-1.16-6.42-1.16h-2.67l-1.87.18v.54h.27c.54-.03,1.08.13,1.52.45l.09,2.14v6.77l-.09,2.14c-.38.29-.85.45-1.34.45h-.44v.71h5.35l4.46-.45c2.76-.89,4.1-2.94,4.1-6.06,0-2.68-.98-4.64-2.94-5.71h0ZM100.29.89c-.63.09-1.2.41-1.61.89l-.18,1.25v10.79h-.53l-9.27-11.59v8.2c0,.89,0,1.34.18,1.52.43.55,1.08.88,1.78.89h.27v.71h-4.99v-.71h.09c.72.07,1.41-.28,1.78-.89l.18-1.52V3.48c0-1.25-.18-1.96-.62-2.23l-1.16-.36h-.18V.36h4.01l7.76,9.45V3.03c0-.89-.18-1.52-.45-1.69l-1.52-.45h-.09V.36h4.72v.54h-.18ZM76.58,8.38h-4.19l2.05-5.08,2.14,5.08ZM82.02,12.84c-.45,0-.89-.18-.98-.45l-.89-1.78-4.46-10.61h-.62l-4.19,10.25-.98,1.96c-.39.26-.81.47-1.25.62h-.09v.71h4.1v-.71h-.09c-.89,0-1.34-.36-1.34-1.07l.54-1.96.36-.71h4.72l.89,1.96.27,1.16c0,.45-.45.62-1.34.62h-.09v.71h5.62v-.71h-.18ZM65.26,13.55h-7.13v-.71h.18c.98,0,1.6-.18,1.6-.62l-.89-1.61-2.23-2.67-2.05,2.32-.89,1.69c0,.53.45.89,1.16.89h.18v.71h-5.35v-.71h.09c1.25-.18,2.59-1.07,3.92-2.67l2.5-2.85-3.39-4.01-1.69-2.05c-.4-.25-.87-.37-1.34-.36h-.09V.36h6.33v.54h-.27c-.71,0-1.07.18-1.07.62l.8,1.16,2.23,2.85,2.23-2.67c.29-.35.53-.74.71-1.16,0-.45-.45-.8-1.34-.8h-.18V.36h5.08v.54h-.18c-.65-.04-1.3.18-1.78.62l-1.87,1.96-2.14,2.5,3.3,4.19,1.96,2.23,1.6.45v.71h0ZM42.08,4.37v4.46h-.71v-.18c0-.53-.11-1.05-.36-1.52l-1.43-.27h-1.34v3.3c-.06.75.03,1.51.27,2.23.18.27.71.45,1.6.45h.8c1.34,0,2.23-.36,2.76-1.07.5-.73.86-1.55,1.07-2.41h.71s-.27,4.19-.27,4.19h-11.32v-.71h.18c.54.03,1.08-.13,1.52-.45.09-.71.12-1.43.09-2.14V3.3c.04-.66,0-1.31-.09-1.96-.38-.29-.85-.45-1.34-.45h-.18V.36h9.98l.27,3.21h-.62c-.06-.65-.31-1.27-.71-1.78-.45-.54-1.34-.89-2.67-.89h-2.05v5.26h1.34c.5.03,1-.1,1.43-.36.18-.09.36-.53.36-1.34v-.09h.71ZM23.98.89c-.53-.05-1.06.07-1.52.36-.22.66-.31,1.36-.27,2.05v7.31c0,.98.09,1.6.27,1.78.18.27.71.45,1.78.45h.71c1.25,0,2.14-.36,2.67-1.07.55-.7.91-1.53,1.07-2.41h.71s-.09,4.19-.09,4.19h-11.59v-.71h.45c.71,0,1.16-.18,1.34-.45.18-.7.27-1.42.27-2.14V3.3c.02-.69-.08-1.38-.27-2.05-.46-.27-.99-.39-1.52-.36h-.27V.36h6.69v.54h-.45ZM8.38,8.38h-4.37l2.14-5.08,2.23,5.08h0ZM6.69,0L2.59,10.25c-.62,1.52-1.34,2.41-2.23,2.59h-.18v.71h4.19v-.71h-.18c-.89,0-1.34-.36-1.34-1.07l.62-1.96.27-.71h4.73l1.25,3.12c0,.45-.45.62-1.34.62h-.18v.71h5.62v-.71h-.09c-.41.02-.8-.14-1.07-.45l-.89-1.78L7.31,0h-.62Z"/></g></g></g></svg>