<?xml version="1.0" encoding="UTF-8"?><svg id="uuid-a89240e7-6fbe-429f-8689-9c2c8e4353e5" xmlns="http://www.w3.org/2000/svg" viewBox="0 0 154.92 43.09"><g id="uuid-3e35bb6e-4668-44ee-9d16-ac5c44399e4f"><path id="uuid-24f3505e-d663-406b-a08a-6c46b3c1bac6" d="M32.79,0c-1.32,0-2.8.15-4.41.56,0,0-8.23,2.04-17.3,10.51,0,0-4.32,4.38-7.39,10.03,0,0-3.18,5.89-3.66,10.81,0,0-.48,5.53,2.64,8.35,0,0,3.6,3.3,11.47,2.64,0,0,4.93-.6,10.27-3.96,0,0,2.58-1.68,4.26-3.24,0,0-.78,2.82.36,4.87,0,0,1.08,1.92,3.54,2.34,0,0,1.8.36,4.38-.6,0,0,1.62-.72,2.7-1.26,0,0,2.22-1.2,4.38-2.88,0,0-.42,1.68.54,3.12,0,0,1.14,1.62,3.24,1.8,0,0,5.65.42,13.51-9.25l-5.53,8.89,5.05-.06,4.38-7.57s4.56-7.81,5.53-8.77c0,0,2.34-3.12,5.89-3.84l2.34.18s.96.48.96,1.56l-1.74-.3s-1.02.12-1.56,1.2c0,0-.48,1.02-.24,2.04,0,0,.3.84,1.08,1.14l.54.18,1.74-.24s3.06-1.14,7.27-6.43l-.96,1.74-3.54,6.07-4.14,7.33s-1.2,2.4-.66,3.84c0,0,.54,1.38,2.34,1.74l3.9-.3s2.22-.66,4.02-2.22l2.58-2.1s3.12-2.64,5.95-5.77l-.18.24s-2.46,4.5-2.88,6.01c0,0-.96,3.18,1.26,4.44l2.52.24s2.1-.3,4.2-1.8l3.42-2.94s2.94-2.76,4.5-4.75c0,0-.78,1.8-.96,3.12,0,0-.6,4.2,3.3,5.89l3.66.3s1.44-.12,3.66-.9c0,0,5.17-1.68,12.43-8.35,0,0,3.66-3.36,6.25-6.37l-9.13,15.32h4.5l3.36-5.65,4.32-7.03s2.46-3.9,6.97-6.43c0,0,1.8-1.08,3.18-1.32,0,0,1.44-.3,1.74.42,0,0-2.04-.42-2.52,1.68,0,0-.48,2.1,1.2,2.76,0,0,1.26.42,2.28-.3,0,0,.9-.66,1.2-1.92,0,0,.24-1.26-.36-2.16,0,0-.72-1.08-2.4-1.2,0,0-1.86-.06-5.59,2.4,0,0-2.76,1.8-3.9,2.94l3.06-5.23h-4.56s-4.32,7.33-11.95,13.63c0,0-7.45,6.07-11.65,6.25,0,0-4.08.3-4.5-2.82,0,0-.24-1.86.84-4.5,0,0,2.52.24,5.89-.84,0,0,3.18-1.02,5.83-2.82,0,0,2.82-1.92,3.84-3.96,0,0,1.2-2.28-.18-4.2,0,0-2.52-2.46-7.99-.18,0,0-5.65,2.34-9.85,7.93l-1.08,1.62-.12.18-3,3.48-3.06,3.06s-3.72,3.66-5.59,2.58c0,0-.72-.48-.72-1.62,0,0,0-1.14.84-2.52l8.71-15.14h-3.9s-2.16,3.54-4.68,6.91c0,0-4.93,6.55-10.27,10.33,0,0-3.66,2.82-5.71,1.86,0,0-.9-.42-.84-1.56,0,0,.06-1.26,1.26-3l8.53-14.54,4.75-.06.6-.6h-4.81l5.11-9.07-4.32.06s-3,5.11-5.29,8.17c0,0-4.2,5.53-7.69,7.03,0,0,.6-.78.66-1.98l-.06-.96s-.24-1.26-1.44-1.86l-1.08-.3-2.04.18s-2.4.54-4.62,2.46l1.86-3.12h-4.32s-3.9,6.97-9.01,12.91c0,0-6.67,7.69-10.33,6.79,0,0-1.08-.54-1.14-1.86,0,0,0-1.32,1.14-3.18l8.71-14.72-4.32.06-1.38,2.4-.9,1.74s.18-.54,0-1.68c0,0-.36-2.7-2.94-3.24l-2.04-.18s-5.17-.06-11.05,5.11c0,0-4.02,3.6-7.09,9.07,0,0-6.13,5.71-12.61,6.97,0,0-5.77,1.2-8.23-1.38,0,0-2.7-2.76-2.7-7.57,0,0,.06-5.71,4.14-13.45,0,0,4.32-6.37,6.97-9.25,0,0,6.73-7.39,13.69-9.25,0,0,5.71-1.5,8.89,1.08,0,0,2.7,2.22,2.94,6.73l1.56-2.64s1.98-3.12,3.72-4.93c0,0-1.62.72-3.6.96,0,0-2.46.3-3.66-.42,0,0-2.68-1.69-7-1.7ZM47.45,21.22c1.76,0,2.67.84,2.67.84,2.1,1.92.42,5.53.42,5.53-3.24,6.73-7.99,10.81-7.99,10.81l-2.88,2.04c-4.5,2.22-6.43.66-6.43.66-1.56-1.32-.9-4.32-.9-4.32.42-2.04,2.1-4.99,2.1-4.99l3.24-4.75c2.94-3.24,6.31-4.93,6.31-4.93,1.38-.68,2.54-.9,3.46-.9ZM124.72,21.75c.06,0,.12,0,.18,0,0,0,.96.12,1.38.6,0,0,.42.6.3,1.8,0,0-.3,3.18-3.84,6.19,0,0-4.02,3.42-8.71,3.3l.9-1.86s2.04-3.96,5.05-7.03c0,0,2.87-2.99,4.75-3.01Z"/><path id="uuid-70ce191e-ccab-4860-9d93-c7de30f04de1" d="M106.46,15.03s0,.78.6,1.38c0,0,.54.54,1.38.54,0,0,.78,0,1.32-.54,0,0,.54-.6.54-1.38l-.54-1.38s-.6-.54-1.32-.54c0,0-.84,0-1.38.54,0,0-.6.54-.6,1.38"/></g></svg>