<?xml version="1.0" encoding="UTF-8"?><svg id="uuid-05baa5de-8c0b-4a81-8224-0fc2eec52bca" xmlns="http://www.w3.org/2000/svg" viewBox="0 0 155.8 88.78"><defs><style>.uuid-0f96b257-fe0d-40da-b770-9e557f8cda1d{fill-rule:evenodd;}</style></defs><g id="uuid-1df5d97c-3fbe-480a-b151-d314c5ee86b9"><path class="uuid-0f96b257-fe0d-40da-b770-9e557f8cda1d" d="M22.46,17.93c-.03.05-.05.11-.07.17-2.01,3.8-5.96,6.39-10.48,6.39C5.37,24.49,0,19.01,0,12.25S5.37,0,11.91,0c4.53,0,8.5,2.65,10.49,6.51.06.07.07.11.13.22.02.02-3.8,2.78-3.84,2.72-.02-.07-.04-.13-.07-.17-1.1-2.74-3.71-4.57-6.71-4.51-4.01.04-7.31,3.36-7.31,7.47s3.3,7.51,7.31,7.51c2.91,0,5.44-1.79,6.6-4.32.06-.09.07-.17.11-.24l3.84,2.74h0ZM27.4.22h4.59v8.56h12.04V.22h4.62v23.8h-4.62v-10.46h-12.04v10.46h-4.59V.22ZM113.36,24.02V.22h16.64v4.81h-12v4.75h11.09v4.75h-11.09v4.75h13.7v4.73h-18.34ZM138.21,24.02V.22h4.66v19.07h12.94v4.73h-17.6,0ZM88.35,24.02h-4.66V.22h6.47l10.2,14.31V.22h4.62v23.8h-3.69l-12.94-17.95v17.95h0ZM66.15,5.03l-4.06,9.51h8.31l-4.25-9.51ZM60,19.29l-2.12,4.73h-5.52L62.91.22h6.45l10.62,23.8h-5.52l-2.14-4.73h-12.32ZM71.43,74.46c-2.01,1.15-4.28,1.76-6.6,1.75-4.96,0-9.3-2.7-11.65-6.71,0-.02-.02-.02-.02-.04s-.02-.02-.02-.04l1.9-.99,1.9-.97s.04.05.06.07c1.67,2.72,4.64,4.38,7.83,4.38,1.06,0,2.09-.19,3-.48-2.11-2.42-3.27-5.52-3.26-8.72,0-3.32,1.21-6.37,3.22-8.72-.95-.33-1.96-.49-2.96-.48-3.26,0-6.28,1.75-7.94,4.57-.02.02-.02.04-.02.05l-3.82-1.98s.04-.07.06-.09c2.33-4.08,6.73-6.82,11.72-6.82,2.42,0,4.7.65,6.6,1.77,1.9-1.12,4.18-1.77,6.6-1.77,5,0,9.39,2.74,11.72,6.82.02.02.04.06.05.09l-3.82,1.98s0-.04-.02-.05c-1.66-2.82-4.68-4.57-7.94-4.57-1.04,0-2.05.17-2.96.48,2.08,2.43,3.23,5.52,3.23,8.72,0,3.34-1.23,6.39-3.26,8.72.91.3,1.94.48,3,.48,3.3,0,6.21-1.75,7.83-4.38.02-.04.04-.05.05-.07l1.9.97,1.9.99s-.02.02-.02.04-.02.02-.02.04c-2.35,4.01-6.69,6.71-11.65,6.71-2.42,0-4.7-.65-6.6-1.75h0ZM71.43,69.11c-1.57-1.66-2.57-3.91-2.57-6.39s.95-4.66,2.57-6.32c1.66,1.68,2.58,3.96,2.57,6.32,0,2.48-1.01,4.74-2.57,6.39Z"/><path class="uuid-0f96b257-fe0d-40da-b770-9e557f8cda1d" d="M71.43,36.68c14.34,0,26.05,11.7,26.05,26.04s-11.7,26.06-26.05,26.06c-14.34-.02-26.05-11.7-26.05-26.06s11.7-26.02,26.05-26.04h0ZM71.43,37.56c13.86,0,25.17,11.31,25.17,25.16s-11.31,25.18-25.17,25.18c-13.88-.02-25.17-11.32-25.17-25.18s11.3-25.14,25.17-25.16h0Z"/></g></svg>