<?xml version="1.0" encoding="UTF-8"?><svg id="uuid-005d3552-ede8-4551-b83e-bf53ce4e920d" xmlns="http://www.w3.org/2000/svg" viewBox="0 0 117.7 87.95"><defs><style>.uuid-eba3d354-c811-423b-a00e-80dfcbd324fb{fill:#1a1a1a;}.uuid-0052cfd8-cce6-4837-ace1-42ce52854bd9{fill:#1b1b1b;}</style></defs><g id="uuid-4e422b67-6c25-4302-802b-958072bd4e58"><polygon class="uuid-eba3d354-c811-423b-a00e-80dfcbd324fb" points="56.51 0 56.51 15.54 46.55 15.54 46.55 9.47 51.41 9.47 51.41 5.34 38.54 5.34 38.54 20.4 56.51 20.4 56.51 25.25 33.69 25.25 33.69 0 56.51 0"/><polygon class="uuid-eba3d354-c811-423b-a00e-80dfcbd324fb" points="84.19 0 84.19 25.25 61.37 25.25 61.37 20.4 79.33 20.4 79.33 5.34 66.47 5.34 66.47 9.47 71.32 9.47 71.32 15.54 61.37 15.54 61.37 0 84.19 0"/><polygon class="uuid-eba3d354-c811-423b-a00e-80dfcbd324fb" points="84.19 30.35 84.19 55.6 61.37 55.6 61.37 40.06 71.32 40.06 71.32 45.89 66.47 45.89 66.47 50.26 79.33 50.26 79.33 35.21 61.37 35.21 61.37 30.35 84.19 30.35"/><polygon class="uuid-eba3d354-c811-423b-a00e-80dfcbd324fb" points="56.51 30.35 56.51 35.21 38.54 35.21 38.54 50.26 51.41 50.26 51.41 45.89 46.55 45.89 46.55 40.06 56.51 40.06 56.51 55.6 33.69 55.6 33.69 30.35 56.51 30.35"/><path class="uuid-eba3d354-c811-423b-a00e-80dfcbd324fb" d="M65.74,83.04v-10.2h2.91v14.81l-2.86-.05-7.21-8.45-2.07-1.94v10.44h-2.91v-14.81c.9.13,2.59-.29,3.3.23l8.85,9.97Z"/><polygon class="uuid-eba3d354-c811-423b-a00e-80dfcbd324fb" points="90.26 72.84 90.26 79.16 99 79.16 99 72.84 101.92 72.84 101.92 87.66 99 87.66 99 81.34 90.26 81.34 90.26 87.66 87.1 87.66 87.1 72.84 90.26 72.84"/><path class="uuid-eba3d354-c811-423b-a00e-80dfcbd324fb" d="M15.23,86.2C9.89,89.73.16,87.97,0,80.42c-.12-5.81,5.45-8.25,10.49-7.82.51.04,4.09.83,4.23.99.17.19-.07,1.94.02,2.4-2.07-.85-4.35-1.46-6.61-1.15-7.26.98-6.66,11.77,1.85,10.84.4-.04,2.06-.44,2.22-.69.26-.39.22-2.92-.25-2.92h-3.76v-1.7h7.04v5.83Z"/><path class="uuid-eba3d354-c811-423b-a00e-80dfcbd324fb" d="M84.88,73.61c.23.36-.07,1.84.04,2.39-4.57-2.35-12.72-1.75-12.15,4.99.5,5.9,8.65,5.54,12.39,3.02-.09.7.26,2.07-.23,2.56-1.21,1.19-6.68,1.5-8.36,1.3-9.39-1.1-9.45-14.34.95-15.27,1.23-.11,6.72-.02,7.36,1.01Z"/><polygon class="uuid-eba3d354-c811-423b-a00e-80dfcbd324fb" points="51.65 72.84 51.65 74.79 42.67 74.79 42.67 79.16 49.71 79.16 49.71 80.86 42.67 80.86 42.67 85.96 51.9 85.96 51.9 87.66 39.76 87.66 39.76 72.84 51.65 72.84"/><path class="uuid-eba3d354-c811-423b-a00e-80dfcbd324fb" d="M25.63,72.88l4.65,9.67,4.01-9.47c.6-.53,2.21-.12,3.04-.24l-6.71,15.07c-.47.03-1.02.07-1.27-.4l-6.82-14.55,3.12-.08Z"/><path class="uuid-eba3d354-c811-423b-a00e-80dfcbd324fb" d="M109.2,80.49l-5.58-7.65c.92.14,2.62-.26,3.4.12.46.23,3.49,5.48,3.88,5.22.77-1.07,2.45-4.4,3.28-5.1.68-.57,2.65-.19,3.52-.12l-5.58,7.53v7.16h-2.91v-7.16Z"/><rect class="uuid-0052cfd8-cce6-4837-ace1-42ce52854bd9" x="17.42" y="72.84" width="2.91" height="14.81"/></g></svg>