<?xml version="1.0" encoding="UTF-8"?><svg id="uuid-10f7993f-515f-4342-b653-012c070aad64" xmlns="http://www.w3.org/2000/svg" viewBox="0 0 94.24 95.18"><defs><style>.uuid-2778eb1b-c013-4ff0-841d-7853041f877e{fill:#14120e;}</style></defs><g id="uuid-f8f8c14b-81d9-44d9-b440-6e5ec64f9940"><path class="uuid-2778eb1b-c013-4ff0-841d-7853041f877e" d="M36.22,8.03c-.18-.01-.36-.04-.53-.09-2.84-.94-5.69-1.87-8.53-2.77-.08-.02-.18-.15-.22-.23.61-1.64,1.15-3.26,1.62-4.94l1.41.5c-.01.09,0,.17-.03.26-.36,1.02-.69,2.01-1.07,3.01.03.09.09.19.18.22.7.26,1.44.41,2.12.74.11.05.23-.02.3-.09.14-.14.76-2.24.86-2.59.03-.12.17-.25.26-.34.5.27.83.32,1.31.53-.49.83-.6,1.91-1.04,2.83.02.06.12.2.19.22.67.23,1.34.43,2,.67.07.03.16.06.24.07.11-.14.22-.29.27-.46.31-1.02.66-2.03,1.03-3.02.33.16.7.29,1.06.38.13.03.21.19.25.3-.49,1.6-1.12,3.17-1.53,4.79-.04,0-.09,0-.13,0"/><path class="uuid-2778eb1b-c013-4ff0-841d-7853041f877e" d="M33.63,15.38c-.31-.12-.63-.23-.94-.35-.16-.06-.22-.22-.15-.38.46-.95.68-2.02,1.02-3.02-.61-.21-1.21-.44-1.81-.65-.25-.09-.34-.09-.59-.09-.12,0-.23.13-.26.23-.26.9-.51,1.81-.8,2.71-.03.11-.08.21-.15.31-.07,0-.15,0-.21-.02-1.7-.63-3.45-1.08-5.14-1.68,0-.11.01-.26.06-.37.61-1.49,1.04-3.15,1.53-4.68.38.18.79.35,1.2.46.04,0,.18.08.22.11-.44,1.02-.65,2.11-1.11,3.12.07.13.16.27.3.32.66.21,1.24.36,1.88.62.12.05.21.03.33.01.44-.72.79-2.25,1.09-3.11.02-.07.09-.12.15-.16.06.01.13.02.19.04,1.59.61,3.21,1.05,4.83,1.6.12.04.18.12.26.21-.06.19-.19.34-.25.53-.41,1.29-.83,2.58-1.23,3.88-.06.19-.17.29-.31.42-.04-.01-.08-.03-.11-.04"/><path class="uuid-2778eb1b-c013-4ff0-841d-7853041f877e" d="M31.04,23.67c-.14,0-.1.01-.23-.04-2.83-1.02-5.72-1.88-8.59-2.8-.11-.04-.17-.08-.25-.17-.03-.09-.05-.17-.02-.25.6-1.77,1.29-3.61,1.78-5.42.03-.11.11-.18.19-.26.27.08.51.22.76.33.09.04.37.04.47.09,2.47.98,5.22,1.69,7.77,2.53.09.03.14.07.2.14.03.09.04.15,0,.23-.69,1.63-1.19,3.49-1.71,5.18-.05.15-.14.28-.24.39-.05.01-.09.02-.14.03M30.21,21.57s.07,0,.1,0c.28-.73.55-1.48.78-2.22.01-.04.02-.19.02-.24-.02-.1-.09-.26-.2-.3-1.9-.69-3.85-1.25-5.77-1.91-.27-.09-.29-.04-.53.08-.25.75-.5,1.49-.75,2.24-.02.06-.04.11-.05.17.05.06.09.13.16.16,1.91.67,3.84,1.28,5.77,1.93.18.06.29.06.47.08"/><path class="uuid-2778eb1b-c013-4ff0-841d-7853041f877e" d="M28.33,32.24s-.08.01-.12,0c-.44-.19-.83-.37-1.29-.52-2.54-.83-5.13-1.57-7.65-2.45-.03-.01-.17-.1-.2-.14.84-1.87,1.31-3.9,1.99-5.84.12,0,.22,0,.33.05.68.3,1.4.57,2.12.78,2.33.69,4.61,1.5,6.93,2.21-.04.17-.17.29-.23.46-.57,1.8-1.21,3.66-1.72,5.47-.05,0-.1,0-.15,0M27.39,30.15c.12,0,.23-.08.27-.2.26-.71.39-1.45.72-2.12.07-.15.02-.27-.06-.42-1.93-.62-3.84-1.25-5.77-1.85-.14-.04-.36-.18-.47-.25-.09.05-.21.13-.24.24-.23.76-.47,1.44-.74,2.18-.05.13,0,.36.15.42,1.87.63,3.75,1.26,5.65,1.81.15.04.31.21.47.22"/><path class="uuid-2778eb1b-c013-4ff0-841d-7853041f877e" d="M19.5,59.2c-3-.98-5.94-1.99-8.95-2.91-.07-.02-.16-.18-.18-.25.65-1.33,1.12-3.26,1.6-4.71.01-.05.06-.08.1-.11.18-.02.2-.05.37.02.29.13.61.22.89.37.09.15.12.18.06.35-.31.81-.63,1.64-.91,2.47-.1.31-.14.62.2.75.46.19,1.5.37,1.88.62.12.08.27-.01.37-.07.3-.84.57-1.74.8-2.6.03-.13.14-.22.24-.3.35.16.7.29,1.06.41.04.01.19.1.23.14-.33.87-.63,1.81-.91,2.7-.03.1.02.19.06.28.5.15,1.07.36,1.56.56.14.06.32.1.47.13.24.06.22.01.43-.07.34-1.01.72-2.05.98-3.09.02-.09.17-.12.24-.12.01,0,.22.04.23.04.24.11.67.22.93.27.03.09.07.25.04.35-.3.9-1.06,2.96-1.2,3.77-.02.13-.37.85-.45,1.04-.05-.02-.1-.03-.14-.05"/><path class="uuid-2778eb1b-c013-4ff0-841d-7853041f877e" d="M25.62,40.38c-3.03-.91-6.1-1.96-9.11-2.97,0-.09,0-.28.04-.39.69-1.53,1.25-3.63,1.75-5.25.41.11.81.23,1.2.39.13.05.17.15.19.27-.06.14-.19.32-.24.47-.26.84-.58,2.21-.98,2.94-.06.12-.01.28.03.39.18.12.31.2.53.26,1.83.52,3.61,1.13,5.42,1.76.15.05.34.04.49.01.27-.74.53-1.53.75-2.27-.09-.1-.16-.18-.3-.21-.75-.17-1.42-.45-2.14-.71-.17.41-.33.83-.5,1.24-.06.15-.21.14-.3.11-.28-.1-.53-.22-.82-.31-.16-.05-.22-.17-.29-.31.4-.84.63-1.65.87-2.55,0-.03.11-.17.14-.21.08.01.24.05.34.08,1.59.53,3.11,1.02,4.71,1.5.1.03.17.12.23.2-.59,1.85-1.13,3.8-1.86,5.59-.04-.01-.09-.03-.13-.04"/><path class="uuid-2778eb1b-c013-4ff0-841d-7853041f877e" d="M75.42,95.1c-9.06-6.77-18.3-13.33-27.43-20.01-.34-.25-.71-.46-1.06-.71-.45-.31-.8-.68-1.29-.97-.05-.03-.19,0-.24.03-9.43,6.98-19,13.76-28.49,20.67-.2.15-.49.28-.71.44-.2.15-.4.36-.59.52-.04.03-.24.09-.3.1.01-.25.28-.59.35-.83,1.36-4.48,2.91-8.95,4.36-13.42.02-.05.02-.3.04-.35.2-.5.44-1.02.6-1.53.04-.13.03-.32.07-.47.16-.52.43-1.13.61-1.65.04-.12.04-.34.08-.47,1.27-3.71,2.39-7.47,3.63-11.18.08-.23.23-.46.29-.71.04-.15.04-.32.09-.47,1.3-3.92,2.56-7.88,3.91-11.77.05-.13.05-.45.1-.59.17-.49.42-1.03.58-1.53,1.45-4.54,3.02-9.1,4.38-13.65.07-.25.25-.57.33-.82.88-2.71,1.72-5.42,2.66-8.12.04-.12.03-.35.07-.47.45-1.22.84-2.43,1.26-3.65.04-.11.02-.35.07-.47.45-1.16.85-2.35,1.25-3.53.05-.14.05-.44.1-.59,1.27-3.5,2.3-7.08,3.53-10.6.03-.1.02-.35.07-.47.61-1.65,1.18-3.36,1.66-5.06.03-.11.11-.24.17-.33,0,0,.17.13.17.22.06.53.31,1.37.48,1.88,3.57,11.03,7.1,22.06,10.72,33.08.02.06.06.13.1.19.19.05.26.08.46.08,12.23-.06,24.48.02,36.71-.07l-.08.37c-.6.23-1.04.67-1.55,1.05-3.24,2.39-6.53,4.7-9.77,7.09-.24.17-.52.31-.76.48-5.89,4.3-11.84,8.53-17.74,12.81-.06.04-.09.12-.11.19,3.85,11.71,7.39,23.64,11.46,35.25l-.19.11s-.05-.04-.08-.06"/><path class="uuid-2778eb1b-c013-4ff0-841d-7853041f877e" d="M21.86,52.01c-.16-.08-.29-.16-.41-.29-.18-.01-.36,0-.53-.06-2.75-.93-5.51-1.84-8.29-2.73.04-.09.06-.18.11-.26.27-.46.37-.92.57-1.41.07-.17.07-.42.07-.61.08,0,.16-.04.24-.03.47.06.94.19,1.41.21,1.08.05,2.22.08,3.3.11.38.01.81.13,1.18.22.15.04.47-.08.61-.17-.05-.05-.08-.11-.14-.14-.26-.15-.65-.25-.94-.37-.25-.1-.57-.07-.82-.15-1.12-.34-3.09-1.29-4.14-1.35-.03-.09-.07-.22-.01-.32.25-.41.26-.62.36-1.06.03-.11.14-.22.23-.28,3.09.95,6.21,2.04,9.3,3.05-.23.68-.54,1.35-.73,2.06-.04.15-.26.27-.41.25-1.57-.21-3.12-.27-4.71-.34-.54-.02-.98-.31-1.52-.16.02.08.04.17.06.25.07.04.21.11.29.13,1.83.53,3.6,1.18,5.42,1.74.05.02.19.09.25.13-.02.08-.03.16-.06.23-.19.45-.4.97-.5,1.42-.05-.03-.11-.05-.16-.08"/><path class="uuid-2778eb1b-c013-4ff0-841d-7853041f877e" d="M16.79,67.75c-3-1.05-6.05-2.01-9.06-3.02-.06-.02-.1-.07-.15-.11.05-.21.15-.36.28-.53.22-1.08.75-2.47,1.13-3.53.01-.04.04-.07.06-.1.67-.36,1.31-.76,1.97-1.13.06-.04.17-.04.23-.02,1.64.54,3.29,1.17,4.94,1.66.13.04.33.02.47.09.17.07.44.17.59.25.06.04.14.12.17.19.28.63.56,1.26.85,1.88.03.06.02.18,0,.24-.37,1.3-1.14,2.93-1.24,4.22-.08-.03-.17-.06-.25-.09M15.73,65.65s.06.02.08.03c.12-.06.3-.15.34-.29.13-.46.3-.97.5-1.41.06-.14.16-.53.21-.71.03-.11.02-.28,0-.37-1.87-.61-3.74-1.17-5.6-1.81-.27-.09-.53-.14-.81-.19-.29.84-.59,1.69-.89,2.53.05.06.11.12.18.15.59.25,1.28.51,1.88.69,1.4.42,2.76.84,4.12,1.37"/><path class="uuid-2778eb1b-c013-4ff0-841d-7853041f877e" d="M14.68,74.41c-.18.05-.42-.19-.59-.25-2.84-.9-5.64-1.82-8.48-2.74-.08-.03-.15-.1-.2-.15.18-.43.35-.85.51-1.29.04-.12.17-.17.29-.13,2.47.75,4.95,1.66,7.42,2.46.08.03.21,0,.29-.04.34-.93.71-1.85.89-2.82.01-.06.14-.17.2-.2l1.32.49c-.03.22-.1.39-.21.59,0,.08,0,.16-.03.24-.39,1.24-.82,2.58-1.26,3.81-.04.01-.09.02-.13.03"/><path class="uuid-2778eb1b-c013-4ff0-841d-7853041f877e" d="M9.26,91.15c-.17-.03-.31-.2-.47-.25-2.9-.96-5.87-1.88-8.79-2.78,0-.08-.01-.17.02-.25.25-.5.42-.89.59-1.41.41-1.19.94-2.77,1.2-3.99.39.11.81.2,1.21.32.13.04.17.14.19.26-.38,1.18-.71,2.37-1.16,3.53-.07.17-.02.38.15.44.3.11.47.16.82.3,1.55.63,3.43,1.07,5.06,1.67.17.06.34.04.47-.08.23-.69.47-1.41.68-2.09.03-.1-.02-.21-.09-.28-.79-.21-1.5-.56-2.23-.78-.17.18-.29.36-.38.58-.08.23-.12.47-.17.71-.1.09-.16.1-.29.1-.29-.14-.74-.35-1.06-.41-.01,0-.15-.12-.17-.14.44-.87.65-1.66.9-2.6.06-.22.26-.33.46-.23,1.23.6,2.81.96,4.12,1.39.33.11.63.28.92.45-.71,1.84-1.23,3.72-1.88,5.57-.03,0-.06-.01-.1-.02"/><path class="uuid-2778eb1b-c013-4ff0-841d-7853041f877e" d="M11.73,82.89c-.32-.13-.61-.3-.94-.4-2.67-.8-5.3-1.72-7.95-2.51-.03,0-.05-.05-.07-.07-.05-.15-.07-.15-.02-.28.67-1.79,1.2-3.59,1.78-5.41.03-.09.08-.13.14-.19.1-.02.14-.03.23,0,2.46.83,4.93,1.66,7.42,2.41.06.02.18.13.24.15.15.05.42.06.59.1.25.06.53.21.75.34,0,.09,0,.26-.04.36-.53,1.48-.94,2.98-1.45,4.47-.08.23-.27.72-.37.94-.03.06-.08.1-.13.14-.06-.02-.12-.03-.18-.06M11.03,80.79s.08.01.13.02c.25-.73.49-1.7.84-2.36.12-.23.09-.21-.14-.31-1.89-.77-3.88-1.21-5.77-1.95-.2-.08-.35-.07-.56-.08-.07.08-.09.12-.12.23-.2.72-.45,1.46-.72,2.17.02.1.11.33.23.37,1.81.57,3.62,1.15,5.42,1.77.24.08.47.11.71.15"/></g></svg>