<?xml version="1.0" encoding="UTF-8"?><svg id="uuid-1b583623-5882-43c5-be7e-a2aafece3029" xmlns="http://www.w3.org/2000/svg" viewBox="0 0 154.99 89.78"><g id="uuid-18eccb54-5502-4ac4-9e14-de559cbfc332"><path d="M14.01,47.99h2.99v5.68H6.45v-5.68h2.94v-3.32H0v3.32h2.99v16.71H0v3.3h9.39v-3.3h-2.96v-7.75h10.56v7.75h-2.96v3.3h9.43v-3.3h-3.01v-16.71h2.99v-3.32h-9.41M127.27,64.7h-9.25v-7.79h7.95v-3.28h-7.97v-5.64h9.34v3.19h3.28v-6.51h-19.18v3.32h3.12v16.71h-3.14v3.3h19.25v-7.77h-3.39M47.05,60.23h-3.39v4.47h-9.25v-7.79h7.95v-3.28h-7.95v-5.64h9.32v3.19h3.28v-6.51h-19.16v3.32h3.14v16.71h-3.14v3.3h19.22M118.94,43.52h6.72l-1.73-2.07h-6.92M149.35,54.66c-2.34-.67-4-.52-6.38-1.3-2.16-.74-2.58-2.07-2.58-2.92,0-.9.94-3.19,4.33-3.19s5.61,2.25,5.75,4.22h3.26v-6.83h-3.14v1.48l.09.45c-.11-.22-.26-.42-.45-.58-.99-.9-2.9-1.89-5.75-1.89-3.48,0-7.57,2.16-7.57,6.29s2.92,5.48,5.41,6.15c2.47.65,3.75.65,5.84,1.21,2.07.56,3.41,1.8,3.41,3.66,0,1.75-1.08,4.04-5.48,4.04s-6.11-2.36-6.63-5.75h-3.12v8.29h3.23v-1.57l-.13-.4s.11.27.49.54l.02.04c1.64,1.26,3.8,2.09,6.56,2.09,3.08,0,8.47-1.57,8.47-7.19,0-4-2.13-5.88-5.61-6.87l-.02.02ZM97.54,64.7v3.3h9.52v-3.3h-3.12v-16.71h3.12v-3.32h-8.51l-5.64,13.63-.11.67-.11-.67-5.64-13.63h-8.51v3.32h3.12v16.71h-3.12v3.3h9.52v-3.3h-2.99v-15.36l.02-1.01.27.81,6.51,15.52h1.84l6.51-15.54.22-.81.04.92v15.47M32.5,34.83v.76h3.21c-.32-.24-.63-.49-.92-.76h-2.29ZM118.99,34.85h-1.66c-.45.09-.81.49-.85.74h2.52s0-.74,0-.74ZM32.5,37.84h86.47v-1.62h-55.59c-1.41.67-3.23.63-4.63,0h-16.89c-1.59.67-3.44.67-5.03,0h-4.31v1.59l-.02.02ZM56.84,34.83h-13.05c-.04.09-.65.61-.9.76h14.78c-.31-.22-.59-.48-.83-.76Z"/><path d="M33.98,28.83c-.16.51-.26,1.04-.27,1.57,0,3.09,2.51,5.59,5.59,5.59,3.09,0,5.59-2.5,5.59-5.59,0-.65-.13-1.28-.36-1.86.65-.11,1.28-.22,1.89-.43.29-.07.29-.2.07-.27-.83-.25-1.71-.45-2.61-.63-1.04-1.5-2.76-2.39-4.58-2.38-.72,0-1.39.16-2.02.4v-.02c-.27-.47-.3-1.03-.09-1.53.56-.9,1.82-1.28,2.87-1.35.34-.04,1.17,0,1.26.11.22.16.56.22.92.09.36.13.45.22.85.36,3.55,1.21,7.5,1.84,11.48,1.12.63.58.97,1.62,1.39,2.34.13.18.27-.13,2.25-.22h2.25c-1.48.18-2.8,1.02-3.59,2.29-1.24.38-2.18.76-2.54.99-.45.25-.52.4,0,.54.63.16,1.24.27,1.84.34-.05.25-.08.51-.09.76,0,2.74,2.22,4.95,4.95,4.95s4.95-2.22,4.95-4.95c0-.85-.22-1.66-.61-2.36.63-.22,1.28-.45,1.98-.74.54.2.9.52,1.3.97.31.36,1.01.22,1.44.11.67-.18.79-.72.79-1.35,0-.27,0-.56.16-.79.79-1.82,4-2.07,5.64-2.47,0,0-.85,1.03-1.46,1.28-.13,2.65-1.15,4.96-1.28,7.52.79.02.74.9.94,1.39-.22.45-.61,0-.94.16-1.17-.67.29-1.71-.67-2.52.49-2.13,1.3-4.22,1.24-6.47-.31.02-.43.36-.56.61-.22,2.16-.83,4.11-1.39,6.06.25.13.67.27.67.63-.76.47,0,1.21-.29,1.75h-7.64l-.88.76h11.75l.11-.45c-1.73-1.8-1.08-4.49-.29-6.51l2.02-2.74c1.66-.65,2.7-2.7,4.47-3.35,0,.9-1.1,1.26-1.68,1.75-.61,1.44-2.56,1.59-2.85,3.21.74.88,1.86,1.44,2.78,2.25.97.58.63,1.8,1.39,2.45.13.18,0,.45-.22.61-.81.2-.79.74-.29,1.21.31.29.67.67.63.81h-5.39c0,.25.22.34.45.76h29.87c.22-.43-.22-.9-.45-1.35-2.11-.79-2.11-2.78-2.25-4.99.04-.09-.11-.29-.09-.74-1.05-2.03-1.42-4.35-1.06-6.6l.45-.9c.45-.63-.02-.97.29-1.62l6.29-1.21c.11-.07.09-.31-.02-.45l-1.93.38c-2.03-.89-3.82-2.25-5.21-3.98.45-3.12.22-5.64-.09-7.32.92-.76,1.68-1.5,1.68-1.5.63.38.76.22.85,0-.09-.11-1.03-.52-.9-.92.61.16.74-.02.83-.36l-.43-.16.07-.22c.11-.22.67,0,.9-.07.38-.22-.04-.58.07-.9-.88-.7-2.45-.74-3.41-1.41-.29-.56-.4-.79-.72-1.01-.62-.23-1.29-.33-1.95-.27-.27.09-.74.54-.74.54-1.01.22-1.59-.11-2.29-.52,0,0,.16.79.92,1.12-.67.27-.99.85-1.1,1.57-.94.22-.99,1.17-.85,1.57-.79.47-.72,1.1-.45,1.73-.67.45-.58,1.12-.38,1.64-.58.36,0,1.35.09,1.95,1.68-.36,3.77,3.37,6.78,3.82.56-2.65-.13-3.95-.79-5.26.49-.29,1.01-.67,1.53-1.08.31,1.66.52,4.09.18,6.85l-.04-.04c-.2,0-.38-.13-.54-.2.02.09.38.65.31.74,0,0-.99.65-2.92-.16-.52,1.21-7.14,4.18-7.14,4.18.22,1.82,1.12,3.03,2.02,4.04,1.41,1.06,2.92,1.57,4.72,1.98.4.97,1.62,4.2,1.73,4.72.11.54.4.54.4.54.18.22.74,1.26.81,1.75l.13,1.75c.07.4.58.11.67.45l-.22,1.17h-19.9c.29-1.39-.43-2.61-.04-3.84-.81-1.39-2.99-2.36-2.61-4.18,1.06-1.46,4.33-2.87,3.59-4.65,2.96-1.5,4.54,1.01,7.37.83.99-.04,2.09-.16,2.99-.43-1.15-1.02-2.09-2.27-2.74-3.66-5.84,2.45-11.89,4.34-18.08,5.66l-.49-.18c-3.18.65-6.33,1.44-9.43,2.38-.49-.29-1.03-.5-1.59-.61h.16c.61,0,1.53-.31,2.18-.54,2.74-1.01,3.75-4.92,4.99-7.41,1.08,3.86,3.57,4.18,5.03,3.71l.13,1.21s1.26-.04,2.2-.43c-.09-.22-.22-.85-.31-1.64l1.17-.67c.07.9.13,1.8-.13,2.25l3.26-.88c.63-2.83,2.34-6.74,5.35-9.61-2.6-1.17-5.63-.8-7.86.97-3.82,1.21-3.95,6.47-3.82,8.29-.67.13-3.46,1.1-4.76-3.71.91-2.05,2.21-3.91,3.82-5.48.16-.13,0-.31-.34-.13-3.26,2.25-4.47,6.2-6.22,9.55-1.25,2.09-3.59,3.29-6.02,3.08-3.5-.04-5.17-3.68-6.78-6.06-2.45-5.35-8.76-3.41-13.48-4.56-.27-.13-.79-1.68-1.55-1.64-.54.04-.02.58-.34.79-.58-.25-1.08-.67-1.82-.56-.47.09-.61.58-.56,1.01.36,1.71,2.2,2.47,3.55,3.08.54.79.34,3.48-.09,4.4-.56,1.03-2.78.67-3.21,3.03-.07.45,0,.91.22,1.3-.86.45-1.59,1.12-2.11,1.93-.94.22-1.86.47-2.7.79-.22.07-.22.22.04.27l2.02.34v-.02ZM103.72,15.58c.81.9,2.74,2.22,3.98,2.67l-3.59.65c.43-1.53-.94-2.09-.38-3.32ZM104.1,3.32c.13-.07.52.09.67.11.09.02.07.22,0,.4-.22.07-.58-.07-.63-.2-.07-.13-.16-.27-.02-.31h-.02ZM104.14,4.22c.04.27.13.58.29.81,0,.11-.67.72-1.41,1.37-.2-.94-.38-1.57-.45-1.84.31-.22,1.12-.45,1.57-.31v-.02ZM100.71.96c.13-.04.4.04.49.11.07.04,0,.27,0,.36,0,.07-.34.22-.34.22,0,0-.31-.22-.31-.31h-.02c.05-.13.11-.26.18-.38ZM101.13,7.9c-.51-.94-.75-2.01-.67-3.08.4,0,1.01.25,1.8-.11,0,0,.22.74.45,1.95-.56.47-1.17.94-1.57,1.24ZM95.76,22.72c-1.28-.63-.47-.09-.11-.36,2.02.92,3.05.72,4.58.52.22.29.52.56.52.92-1.86.52-3.3-.16-4.99-1.06v-.02ZM103.09,32.74c-.13-.99-.18-1.68-.63-2.16-.36-.99-1.41-3.71-2.16-6.15.45-.45.81-.22,1.12,1.01.27.99.61,1.8.88,2.61.34.83.61,1.93.85,2.52,0,0,.22.04.38.36.65,1.8.81,2.11.7,2.96.16.67,1.12.13,1.03.97h-2.02.9c-.63-.65-.2-1.62-1.06-2.11ZM63.47,34.36c-.56.43-1.24.67-1.95.79-.07-.02-.13-.18-.13-.27l-.13-2.54.07-.07c.07,0,.22-.09.31-.11h.11l1.66,1.91c.07.09.11.22.07.29ZM60.91,35.16c-.67,0-1.3-.22-1.86-.52-.04-.07,0-.22.02-.31l1.39-2.11h.11l.27.07.09.07.11,2.54c0,.09-.07.25-.13.27ZM57.4,29.89c-.09,0-.22-.13-.22-.22.13-.34.29-.67.52-.97l1.03-.27,1.12,1.39h-.04c-.69.09-1.38.14-2.07.16,0,0-.34-.09-.34-.09ZM60.55,26.99c.09.04.16.18.16.27v.2c-.67.13-1.35.27-1.95.45-.04-.09-.07-.2-.04-.22.54-.38,1.17-.61,1.84-.67v-.02ZM60.21,29.77l-1.12-1.44c.54-.13,1.1-.27,1.64-.36l.09,1.66-.61.13ZM60.1,30.22v.02c-.06.08-.11.16-.16.25l-.09.07-.83-.22,1.08-.13v.02ZM61.6,29.91h-.09.11-.02ZM61.16,29.55l-.09-1.64c.67-.13,1.35-.22,2.02-.31-.02.06-.05.13-.09.18l-1.01,1.57-.85.22.02-.02ZM63.29,27.98c.04-.09.18-.18.25-.16.29.22.56.49.79.79-.61.22-1.24.4-1.84.58l.81-1.24v.02ZM61.04,27.39v-.16c0-.09.04-.25.13-.27.43,0,.83.09,1.21.22,0,0-1.35.2-1.35.2ZM60.98,26.94h.11-.11ZM55.09,29.75c-.22-.07-.16-.13-.02-.18.45-.18.92-.36,1.46-.52-.13.27-.22.58-.31.9-.38-.03-.76-.1-1.12-.2ZM57,30.4h1.01l1.75.47.02.09c0,.07,0,.25.04.34l-.04.07-2.34,1.01c-.09.04-.25.04-.29,0-.14-.42-.22-.86-.22-1.3,0-.22,0-.45.04-.67h.02ZM57.38,32.9c0-.07.11-.18.2-.22l2.34-.97.09.04.16.18s.04.09.02.11l-1.39,2.13c-.04.07-.2.16-.27.13-.48-.37-.87-.85-1.15-1.39v-.02ZM58.77,34.47h-.07.07ZM63.94,33.97s-.22-.04-.29-.11l-1.64-1.93v-.09c.04-.07.08-.15.11-.22.02,0,.07-.07.11-.04l2.45.67c.07,0,.2.09.22.18-.22.58-.52,1.12-.94,1.55h-.02ZM65.06,31.86c-.02.07-.22.09-.31.07l-2.43-.67-.04-.09c0-.1,0-.2-.02-.29,0-.02,0-.09.04-.11l2.36-.9c.09-.02.25,0,.31.04.19.63.22,1.3.09,1.95ZM64.75,29.32c0,.09-.11.22-.2.22l.16-.04-2.52.97-.09-.04c-.06-.08-.12-.15-.18-.22l-.04-.11.22-.34c.76-.2,1.59-.45,2.47-.76,0,0,.18.34.18.34ZM71.33,25.73c-1.08.76-.56,1.71-1.26,1.89-.22-.02-1.62.22-1.84.31-.45-.43-.92-.79-1.64-.99,1.35-.54,3.5-1.12,4.74-1.24v.02ZM66.88,27.69c-.22.11-.88.36-1.71.65-.21-.32-.46-.61-.74-.88,1.06-.04,1.93,0,2.45.22ZM78.72,13.81c-1.66,1.66-1.46,4.15-1.26,6.11-.38.29-.85.52-1.17.67-.18-2.38.09-5.97,2.43-6.78ZM37.24,14.66c-.29-.38-.7-.94-.38-1.35.22-.29.72-.07.99.07.22.13,2.09,1.12,2.61,1.26,3.75.94,8.49-.45,11.45,2.25.16.16.25.27.22.45-4.36-2.96-10.94,1.44-14.89-2.7v.02ZM40.76,19.44c.31.2.45.67.76.97.56.92,1.62,1.24,2.18,2.04-.19.01-.38,0-.56-.04-.36-.07-.52-.18-.81-.31-.18-.25-.58-.34-.9-.18-.25.04-.94,0-1.41-.11.09-.74.81-1.46.74-2.36ZM36.38,27.46l1.15,1.28c-.83,0-1.62-.04-2.38-.09-.04-.09-.09-.16-.07-.22.13-.29.31-.58.52-.83l.79-.11v-.02ZM43.17,27.78l.36.65c-.56.09-1.17.13-1.8.2l.9-.76c.22-.18.47-.16.54-.09ZM42.38,27.6l-1.28,1.08-.97.04.52-1.48c.63.02,1.26.07,1.84.13-.02.07-.04.16-.11.22ZM42.07,34.2c-.45.34-.97.58-1.5.72-.11,0-.29-.16-.34-.38l-.49-2.7.02-.07c.1-.03.19-.08.27-.13h.09l1.84,2.02c.18.22.18.45.11.54ZM38.18,29.48s.04.04,0,.09l-.11.16s-.04.04-.09.02l-2.02-.72,1.89.04.34.38v.02ZM40.2,29.37c-.06-.06-.13-.11-.2-.16-.02,0-.04-.04-.02-.09l.04-.09.7-.04-.43.36s-.04.04-.09,0v.02ZM39.73,28.72h-.54l-.29-1.48.27-.02h1.1s-.54,1.5-.54,1.5ZM38.54,27.26l.27,1.48h-.79l-1.21-1.35s1.73-.13,1.73-.13ZM38.83,29.06v.04c-.09.04-.18.08-.27.13h-.09l-.13-.16h.52l-.02-.02ZM34.97,28.61l.04-.04s-.03.05-.04.07v-.02ZM34.77,29.3c.04-.09.29-.18.52-.11l2.58.9.04.09c-.02.09-.02.18-.02.27l-.07.07-2.7.49c-.25.04-.45-.09-.47-.18l-.04-.4c0-.38.06-.76.16-1.12ZM34.81,31.73c0-.11.16-.31.4-.36l2.67-.49s.06.02.07.04l.09.2v.09l-2.16,1.71c-.22.16-.45.13-.52.07-.25-.39-.43-.81-.56-1.26ZM35.46,33.1l-.07-.09.07.09ZM35.96,33.7c-.04-.07,0-.36.18-.52l2.11-1.68s.07-.04.09,0l.22.16s.07.04.04.09l-.9,2.56c-.11.27-.31.36-.43.34-.49-.24-.94-.56-1.33-.94ZM37.53,34.76s-.06-.01-.09-.02l.07.02h.02ZM38.16,34.98c-.09-.07-.22-.29-.13-.54l.92-2.56s.04-.07.09-.04h.25s.07.04.07.09l.49,2.67c.04.27-.07.43-.16.47l-.38.04c-.4,0-.79-.07-1.15-.16v.02ZM42.58,33.77s.03-.04.04-.07l-.04.07ZM42.74,33.59c-.09.04-.34.02-.52-.16l-1.8-2.02s-.04-.07-.02-.09c.04-.05.08-.12.11-.18,0-.04.07-.04.09-.02l2.61.92c.27.11.34.31.31.4-.2.41-.46.79-.76,1.12l-.02.02ZM43.53,32.4l.13-.27c-.04.09-.09.18-.13.27ZM43.82,31.57c-.02.09-.27.22-.49.13l-2.61-.94-.04-.07.02-.22.07-.07,2.74-.43c.27-.02.45.09.45.18l.02.27c0,.4-.04.76-.13,1.12l-.02.02ZM43.82,29.28c0,.09-.16.29-.38.34l-2.72.43s-.07,0-.09-.04c0,0,0,0,0,0-.03-.09-.07-.18-.11-.27v-.09l.81-.67c.79-.07,1.55-.16,2.31-.27,0,0,.18.58.18.58ZM45.21,27.86c.18.04.22.18,0,.22l-.76.18-.36-.67c.4.07.81.16,1.12.27ZM40.79,26.88l.11-.34c.09-.25.31-.34.4-.31.45.2.83.47,1.19.81-.57-.07-1.15-.13-1.73-.16h.02ZM40.43,25.91c.07.04.18.29.11.52l-.16.45c-.4-.04-.81-.07-1.24-.04h-.31l-.11-.56c-.04-.27.09-.45.18-.47l.4-.04c.38,0,.76.07,1.12.16ZM38.02,25.96c.09,0,.29.16.34.38l.07.38c-.23-.21-.44-.45-.63-.7l.22-.07ZM37.87,26.92l-1.3.16c-.09-.18-.09-.34-.04-.4l.67-.4c.22.22.43.45.67.65ZM33.15,28.18l1.24-.36c-.12.23-.23.47-.31.72l-.92-.11c-.22-.04-.18-.18,0-.22v-.02ZM115.57,14.88c-.09.07-.13.18-.04.2.13.02.22.07.38.22.09.04.07-.09.04-.18-.09-.22-.27-.34-.38-.25Z"/><path d="M112.2,34.85h-4.42c-.04.29.29.52.49.74h4.83l1.35-.65c.22-.58-.22-1.1-.22-1.57.09-1.41-.7-2.81-1.12-4.09.27-.29.61-.94,1.06-.76,1.03,1.59,1.24,3.66,1.06,5.7-.11.49-.97.97-.94,1.44,0,.16,1.15.09,1.62-.31.07-.31.67-.72.9-.76.2-.63-.13-.61-.09-.99.07-1.11,0-2.23-.22-3.32l-.09-.04c-.22-.56.29-1.39.52-1.93l1.53-.13c-.18-1.35-.67-2.78-.97-4.2.18-.31.52-.58.83-.76,1.62-1.08.2-2.81.13-4.13-.27-.7-1.24-1.24-1.3-2,.18.16.34.09.38.11.45-.34.45-.79.22-1.35.67-.85,1.12-1.24,1.26-1.5-.04-.72-1.19-1.75-1.84-1.75-.38.22-.65.65-1.37,1.19-.02.04-.85-.29-1.12,0-.22.18-.16.83.29,1.19-.04.18-.09.22-.2.45-.04.11-.07.22,0,.27.16.13.2.36.09.67-.11.34.27.58.4.65l.11.11c.04.36-1.24,1.06-1.24,1.35-.09.88-.65.79-1.17,3.68.07.7.04,1.33,0,1.89-.67,1.73-1.19,2.72-1.64,3.98-.36,1.03,1.71,4.04,1.73,6.06-.45.67-.81.58-.83.79ZM115.57,31.75c-.13-.3-.19-.64-.16-.97.18-.18.52-.04.67-.07.22.97.27,1.1-.54,1.03h.02ZM115.57,17.47c.07-.04.11-.18.16-.22.67-.45.2-.13-.47-.49-.22-.11-.22-.31-.2-.63.04-.36-.11-.45-.18-.56l.18-.36c.16-.22.29-.72.38-.85,1.12.04.88.54.9.63.09.25.56.76.79.94-.07.67-.61.27-.36.9-.07,1.19-1.46,1.03-2.07,2.02-.07-.99.79-.99.88-1.37ZM114.29,22.54c.31.29.63.63.85.67.18.43-.34.47-.52.67-.4.07-.56-.38-.81-.18-.07.04-.31,0-.31-.07.13-.36.52-.88.79-1.1ZM111.62,28.56c-.16-.81.94-2.09,1.66-4.58.29-.09.45.58.9.31.63.02.36,1.73.97.65,0-.49-.04-1.01.34-1.28.4-.09.67.13.7.49l-.63.99c1.19.04-.38,1.95,1.19,1.62-.04.72-.43,2.72-.7,2.63-.22-1.12-.4-.67-.4-.34.04.45.04.79.29,1.12-.07.11-.4.11-.49.11-.9-1.26-.85-3.01-1.41-4.38-.11,0-.22.11-.22.22-.07.83-.38,2.02-1.06,2.43-.45.22.92.09-.2.61.45.29.04.67-.43.67-.22-.49-.4-.9-.47-1.28h-.02ZM112.81,31.32c-.2-.3-.38-.63-.52-.97l.67-.27c.18.22.38.63.4,1.01-.13.07-.34.22-.56.22ZM91.83,17.94c-.09-1.33.45-2.45-.16-3.86,0-.58.4-1.03.31-1.57l-1.01.22c-.16,1.12-.34,1.5-.18,2.54.25,1.21.38,2.31,1.03,2.7v-.02ZM81.48,21.64c3.82-1.08,6.49-2,9.66-3.35-1.33-2.83-1.03-3.64-.9-5.46,0,0-1.64.02-3.5-.45-2.25,1.41-4.83,6.56-5.26,9.25ZM99.27,13.87c-1.62-1.12-2.87-3.71-4.63-3.53-.18-1.91-1.01-5.14,1.62-8.56.36-.16.9-.22,1.12-.47-1.08-.11-2.49.56-3.53-.02,0,0,.47.83,1.03.94-.36.49-1.08.85-.65,1.71-.88.54-.54,1.3-.27,1.73-.45.45-.72,1.28-.13,1.77-.72.76.18,1.41.38,1.68-.36.76,0,1.35,0,1.35,0,.56-1.01,1.35-1.35,1.62-.45,1.3-.27,3.93-.22,5.66,2.43-1.15,4.78-2.25,6.63-3.89ZM71.64,59.91c0-1.35-.9-2.96-2.18-3.73-.31-.19-.65-.3-1.01-.34.31.02.72,0,1.12-.16,0,0,.01,0,.02,0,1.28-.58,2.83-2.22,2.83-5.01,0-2.02-.9-3.71-2.38-4.78-1.4-.91-3.05-1.34-4.72-1.24h-13.09v3.32h2.94v16.73h-2.92v3.32h9.28v-3.32h-2.92v-7.37h6.42c2.22,0,3.08,1.48,3.12,2.72l.16,7.95h6.4v-3.3h-2.99l-.09-4.78v-.02ZM65.74,54.14h-7.12v-6.15h6.74c.7,0,1.57-.02,2.25.31.81.43,1.59,1.33,1.59,2.81,0,1.71-1.57,3.03-3.46,3.03ZM51.09,76.26h-4.45v13.34h1.98v-5.77h2.2c3.19,0,4.63-1.64,4.63-3.75s-1.35-3.82-4.36-3.82ZM51,82.1h-2.36v-4.13h2.45c1.8,0,2.34,1.06,2.34,2.02,0,1.35-.94,2.11-2.43,2.11ZM63.13,76.17l-5.91,13.43h2.13l1.62-3.93h5.84l1.68,3.93h2.18l-6.15-13.43h-1.39ZM61.76,83.94l2.04-5.28,2.22,5.28h-4.27ZM90.94,76.26h1.98v13.34h-1.98v-13.34ZM101.13,79.39c0-.94.94-1.57,2.29-1.57.99,0,2.18.29,3.41,1.37v-2.18c-.97-.6-2.09-.92-3.23-.92-2.67,0-4.42,1.37-4.42,3.55,0,3.66,6.29,3.98,6.29,6.74,0,.74-.74,1.68-2.36,1.68-1.44,0-2.76-.67-3.84-1.93v2.43c1.21.83,2.47,1.24,4.07,1.24,2.36,0,4.09-1.53,4.09-3.62,0-4.27-6.29-4.22-6.29-6.78ZM83.95,86.95c-1.08-1.66-1.86-2.9-3.14-3.68,1.43-.45,2.39-1.78,2.36-3.28,0-2.31-1.77-3.73-4.6-3.73h-3.55v13.34h2.02v-5.79h.85c1.01,0,1.86.31,3.71,3.05l1.77,2.74h2.36l-1.03-1.55c-.26-.36-.51-.73-.74-1.1ZM78.34,82.08h-1.3v-4.18h1.3c1.95,0,2.74.76,2.76,2.02,0,1.12-.61,2.16-2.76,2.16Z"/></g></svg>