<?xml version="1.0" encoding="UTF-8"?><svg id="uuid-8dc04695-b013-46de-bd68-792a8f312a9d" xmlns="http://www.w3.org/2000/svg" viewBox="0 0 199.99 42.52"><g id="uuid-244214e0-d2de-40dd-8e66-27ffb240371f"><path d="M110.3,31.15c-.56.13-1.07.43-1.47.84-.13.12-.24.26-.32.42-.22.46-.32.96-.32,1.47l-.53.53c-1.03.93-2.16,1.75-3.37,2.42l-.63.32c-.4.19-.84.28-1.28.26-.44-.02-.87-.15-1.25-.37-.11-.11-.21-.11-.21-.21-.14-.26-.18-.56-.11-.84.28-.57.63-1.1,1.05-1.58l.32-.32c.61-.72,1.28-1.39,2-2,1.1-1.03,2.39-1.86,3.79-2.42.21-.11.42-.11.63-.21.45-.12.94-.09,1.37.11.11,0,.11.11.21.11.21.23.32.53.32.84-.11.21,0,.53-.21.63ZM85.46,33.79c-4.21,4.32-7.05,3.68-7.47,2.95-.53-1.26,2.42-3.47,3.47-4.74,2.74-3.05,4.84-3.16,5.58-2.74.26.19.44.47.49.78.06.31,0,.64-.18.91-.56.23-1.05.62-1.38,1.13-.34.51-.52,1.1-.51,1.71ZM53.57,37.47c-1.64.23-3.31.19-4.95-.11-.29-.1-.55-.28-.74-.53v-.11c0-.21.21-.32.42-.42,2.53-.95,5.58-.42,8,.42h.11c-.88.47-1.85.72-2.84.74ZM95.04,5.89c1.58,1.26-.21,3.68-1.05,4.95-4.73,4.83-10.54,8.47-16.95,10.63,1.16-2.63,12.84-18.31,18-15.58ZM118.41,25.47c-.53.63-6.63,8-7.37,7.26-.32-.53,1.47-3.16-1.16-4.1-6.1-1.16-9.79,4.74-10.95,5.79-1.16,1.16-5.79,3.37-6.95,3.16-1.47-.53,5.47-4.63,4.84-7.26-.53-1.26-.84-.74-2.84-1.37.42-.53,2.11-2.32.84-2.74-1.37-.42-1.79,2.21-1.89,2.74-.21.21-4.53,4.21-4.84,3.47,0-.11,1.58-3.89-2.21-4.32-4.32-.63-8,4.53-8.21,4.84-7.37,4.84-16.84,2.95-16.84,2.84.84-.53,10.42-5.89,14.84-12.84,3.9-1.25,7.64-2.95,11.16-5.05.21,0,14-8.42,8.74-12.74-2.32-1.26-5.05-.11-7.05.95-7.37,4.32-15.26,15.79-16,16.52-3.89.95-8.63.53-11.16-2.95-3.37-7.89,10.74-15.79,21.16-14.63.11-.11.11,0,.21-.11v-.11c-11.89-1.79-20.1,4.1-22.63,8.42-.73,1.23-1.04,2.66-.89,4.09.15,1.42.76,2.76,1.73,3.81,3.58,3.89,9.16,3.05,10.63,3.05-3.23,4.84-7.56,8.84-12.63,11.68-.84-.21-11.58-2-12.1,1.05.32,2.63,8.63,1.58,11.47.53,4.32,1.16,12.63,1.16,18.31-2.32l.11.11c-.11.53-.32,2.21.84,2.84,2.11.95,4.63.42,8.63-3.47.21-.21.42-.11.84-.21,2.53-.63,5.47-4,6.42-4.42.67.05,1.34.15,2,.32,1.47.53-6.32,4.21-4.95,7.37,1.47,2.63,8-1.05,8.74-2.11,0,0-.32,3.16,2.84,3.05,2.62-.52,5.01-1.85,6.84-3.79,3.89.32,9.37-8.21,9.68-8.95,0-.42,0-.53-.21-.42Z"/><path d="M181.45,37.36c-1.79-.74,1.58-3.89,2-4.32,4.32-4.42,6-3.47,6.1-3.16.42.53-1.26,2.84-1.58,3.16-3.68,4.21-5.26,4.74-6.53,4.32ZM156.72,34.42c-.84.95-3.68,3.37-5.16,2.95-.21-.11-1.89-.84,2.95-5.37,1.05-.95,5.68-4.1,5.37-1.26-.99,1.28-2.04,2.51-3.16,3.68ZM199.98,28.42c-.63-.42-4.53,4.74-6.42,6-1.26.95-4.74,3.26-5.68,2.53-.63-.53,5.47-6.21,6.53-8h-2.74c-.27.3-.59.55-.95.74-1.68-3.05-8,1.37-8.95,2.42-.63.63-1.79,2.32-1.89,2.42-.95.95-4.53,3.68-5.47,2.84-.42-.42,3.58-4,4.31-4.95.4-.47.63-1.05.64-1.67.02-.61-.17-1.21-.54-1.7-2.63-1.26-3.68.84-5.68,1.79-.11-.32,0-3.26-3.37-2-3.26,1.47-7.58,7.37-9.68,8.1-.66.29-1.4.37-2.1.21-.84-.42,3.79-4,6.53-8h-2.74c-.21.21-.63.74-.95.74-.53-.95-1.68-1.79-5.58,0-3.05,1.58-4,3.26-5.79,4.74-2.31,2.11-5.58,3.26-6.21,2.63-.63-.63,7.16-7.89,7.37-8.1h-2.95c-.21.21-6.63,6.1-12.21,9.05,0,1.05,5.68-2.42,6.63-3.05,0,0-.95,2.84.84,3.26,2.74.32,6.63-2.84,6.74-2.63-.06.28-.06.56,0,.84.05.28.16.54.32.78.16.24.36.44.6.59.24.16.5.26.78.31,1.57.17,3.14-.24,4.42-1.16.32.11.32,1.79,2.95,1.26,2.26-.77,4.24-2.2,5.68-4.1.63-.63,6.21-6.42,7.16-4.74.21.63-.32,1.26-1.05,2.21-1.26,1.47-3.58,3.47-6.21,6.32h3.16c.42-.42,6.74-6.95,7.16-7.37,2.1-2.11,3.37-1.37,3.37-.95,0,.63-.74,1.58-3.79,4.74-.11.11-3.05,2.63-.84,3.79,1.89.21,3.79-.53,6.1-2.32-.01.52.16,1.03.49,1.43.33.4.79.68,1.3.78,1.57.17,3.14-.24,4.42-1.16.42.21.53,1.68,2.95,1.26,2.42-.63,5.16-2.95,6.21-3.79,1.37-1.26,5.47-5.79,5.16-6.1Z"/><path d="M157.03,8.95c4.63,4.1,2.74,7.79,2.42,8.74-2.84,5.68-7.05,4.53-7.68,2.95-1.47-5.05,5.68-7.16,5.79-6.1-2-.21-7.16,4.63-4.1,6.42,2.1.53,6.1-4.74,4.63-9.16-.42-.87-1.03-1.62-1.79-2.21-2.74,2.63-6.63,10.31-6.63,10.31-.95,1.68-2,3.37-3.05,4.95-1.93,2.63-4.15,5.04-6.63,7.16-2.63,2.16-5.63,3.83-8.84,4.95-6.84,1.89-8.31-1.26-8.95-2.63-.84-3.05,1.79-4.32,2.32-3.58,1.26,2.21-1.16,3.58-1.26,3.68.35.72.91,1.31,1.61,1.71.69.39,1.49.57,2.29.5,8.42-.32,15.16-10.53,19.47-16.42,2.78-3.97,5.8-7.77,9.05-11.37-4.52-2.74-10.95-1.58-15.26.84-12,6.74-13.26,13.05-11.05,15.05,4.1,2.53,12.1-1.37,16.31-7.16,1.47-1.79,4.1-5.79,4.53-8.63.32,3.47-3.26,8.53-3.37,8.63-5.05,7.47-9.79,8.53-12.95,8.95-3.58.53-9.68-2.32-5.16-8.95,4.53-6.63,10.95-9.79,18-10.95,3.31-.61,6.73-.05,9.68,1.58,0,0,7.58-6.84,10.42-6.63-3.58,1.47-10.1,6.63-9.79,7.37Z"/><path d="M152.4,24.1c-2,.21-3.16,3.26-.84,3.26,2.42-.11,2.74-3.47.84-3.26Z"/><path d="M26.84,9.68l2.32-1.47,2.21,1.47-.74-2.53,2-1.58h-2.53l-1.05-2.53-.95,2.53h-2.53l2,1.58-.74,2.53Z"/><path d="M15.37,22.21l2.32-1.47,2.21,1.47-.74-2.53,2-1.58h-2.53l-1.05-2.53-.95,2.53h-2.53l2,1.58-.74,2.53Z"/><path d="M36.73,0H10v.53s.21.21.32.21c.28.14.53.35.71.6.18.26.3.56.34.87v20.1c-.02.42.02.85.11,1.26.18.85.67,1.59,1.37,2.11.63.49,1.41.75,2.21.74h6.63c.35.01.69.12.98.3s.54.44.7.75l.11.21.11-.11c.14-.3.37-.56.64-.75.28-.19.6-.29.94-.31h6.63c.8.01,1.58-.25,2.21-.74.35-.22.66-.51.89-.86.24-.34.4-.73.48-1.14.09-.42.12-.84.11-1.26V2.53c.04-.3.16-.58.34-.82.18-.24.43-.43.71-.54.11,0,.32-.32.32-.32l-.11-.84ZM13.16,4.84c-.11-.21.11-.42.32-.53.15.02.3-.02.42-.11-.11-.32-.11-.74.21-.84h.32c-.04-.09-.05-.19-.03-.28.02-.09.07-.18.14-.25.21-.11.63-.11.63-.53.11-.11.21-.21.32-.21.32-.11.63.32.63-.21.32-.53,1.05,0,1.47-.21.32.11.32.42.53.63.11-.13.26-.23.43-.29.17-.06.35-.06.52-.03.21.11.42.11.53.42q0,.11.11.21c.21-.11.32-.21.53-.11.14.06.26.17.33.3.08.13.11.29.09.44.21,0,.32-.11.53.11-.11,0-.42.21-.11.32.11,0,.11.21.11.21.11.11.32.11.32.32.11.32-.21.53,0,.84,0,.11-.11.21,0,.32.11,0,.21.11.42.11.1.16.13.34.11.53.11.42-.74.32-.32.74,0,.21-.11.32-.32.42-.11.11-.21-.11-.32,0,.02.15-.01.31-.09.44-.08.13-.19.24-.33.3-.21,0-.53.11-.74,0l-.32-.42c-.11.11-.24.19-.39.23-.15.04-.31.03-.45-.02-.53-.21,0-.95-.53-1.16-.42-.11-.84.32-1.05.63h-.11c-.32-.5-.6-1.03-.84-1.58q-.11,0-.11.11c.17.61.46,1.18.84,1.68.11.11.11.21.32.11.09-.17.2-.33.35-.45.14-.13.31-.22.49-.28.09.24.12.49.11.74-.17.2-.29.44-.37.69-.07.25-.09.52-.05.78v1.05c-.04.87.14,1.74.53,2.53-.32.21-.74,0-.95-.11-.32,0-.42.21-.74.21-.11-.11-.21,0-.32-.11.74-.63.42-1.68.53-2.63-.09-.31-.12-.63-.11-.95.05-.3.03-.61-.06-.91-.09-.29-.25-.56-.47-.78-.24-.43-.42-.89-.53-1.37,0-.11-.11-.11-.21-.11-.11.11-.11.42-.32.53-.32.21-.53-.42-.84,0-.11,0-.32-.11-.32-.21,0-.03-.01-.05-.03-.07-.02-.02-.05-.03-.07-.03q-.11,0-.11.11c0,.11.03.22.08.31.06.09.14.17.23.22h.42c.11-.32.32,0,.42,0h.63c.18.54.46,1.05.84,1.47,0,.11,0,.32-.11.32-.32-.32-.32.21-.53.21s-.32,0-.42-.11l-.21-.32c-.21,0-.42.11-.53-.11v-.32c-.18.03-.37,0-.53-.11-.21-.11,0-.63-.42-.63-.11-.07-.21-.16-.28-.27-.07-.11-.12-.23-.14-.36,0-.21.11-.53-.21-.63-.07-.06-.12-.14-.15-.23-.03-.09-.04-.18-.03-.27.01-.09.04-.18.09-.26.05-.08.12-.14.2-.19ZM23.58,26.42c-1.05-.63-1.47-1.05-2.42-.95h-6.74c-.5-.1-.97-.32-1.36-.65-.39-.33-.68-.76-.85-1.24l-.11-.11-.11-.74v-9.05h11.58v12.74ZM24.1,20.73c.05-.5.16-.99.32-1.47.02-.18.06-.35.11-.53-.18-.28-.25-.62-.21-.95,0-.23.08-.45.21-.63.1-.3.24-.58.42-.84.32-.63.42-1.16.74-1.79.21-.32.84-.21,1.16-.11.11,0,.21.21.21.21.21,0,.32.32.32.63.04.36-.03.73-.21,1.05v.53c-.21,0-.53,0-.63-.32-.21-.11-.53,0-.74-.21-.84,0-.95.74-1.16,1.37,0,.11-.11.21-.11.32-.11.11,0,.32,0,.42.32.11.11.53.11.74-.11.63-.11,1.26-.53,1.58,0,.21.11,0,0,0ZM27.79,18.31c-.06,0-.12,0-.17-.02-.05-.02-.1-.05-.15-.09.11-.11,0-.32,0-.42s0-.11.11-.11c0-.21,0-.53.42-.42.05.08.08.17.08.26s-.03.19-.08.26c-.11.21-.11.42-.21.53ZM27.68,19.26h-.11c-.03-.26.05-.53.21-.74.04.12.05.25.03.38-.02.13-.06.25-.14.36ZM27.37,18.95c0,.11-.11.21-.11.32s0,.11-.11.21h-.11v-.11c0-.32,0-.63.21-.74.21-.11.11.21.11.32ZM25.26,18.21c-.11-.11,0-.21,0-.42v-.21l.32-.74c.11-.11.21-.21.32-.11.11.11,0,.21,0,.42l-.21.74-.11.32c-.11,0-.32.11-.32,0ZM25.37,19.05v.21c-.03.42-.17.82-.42,1.16h-.11c.02-.39.09-.78.21-1.16.11-.21.11-.42.21-.63,0-.11.11,0,.21,0,0,.11-.11.32-.11.42ZM25.47,19.79l.11-.42.11-.63s.09-.07.15-.09c.05-.02.11-.02.17-.02,0,.21-.11.42-.11.63-.12.23-.19.48-.21.74-.11,0-.11.11-.21,0v-.21ZM26,18.21v-.42c.02-.32.09-.64.21-.95.06,0,.12,0,.17.02.05.02.1.05.15.09,0,.32-.11.53-.11.84,0,.21-.11.32-.11.42-.21.11-.32.11-.32,0ZM26.31,19.26c.12-.19.19-.41.21-.63l.11-.11c.11,0,.21,0,.21.11,0,.21-.11.42-.11.63,0,.2-.08.38-.21.53h-.11c-.21-.11-.21-.32-.11-.53ZM26.73,18.21v-.74l.11-.32c.15-.02.3.02.42.11.03.18,0,.37-.11.53,0,.11-.11.32-.11.42-.02.02-.04.04-.07.06s-.06.02-.09.02-.06,0-.09-.02-.05-.03-.07-.06ZM26.73,21.68c-.14.33-.36.62-.63.84h-.11c.11-.32.29-.6.53-.84.11-.11.21-.11.21,0ZM27.15,22c0,.05-.03.11-.07.14s-.09.06-.14.07h-.11c0-.1,0-.2.04-.29.04-.09.09-.17.17-.24l.11-.11s.11.11,0,.11c.11.11,0,.21,0,.32ZM27.26,21.26c-.11,0-.21.11-.32,0,0-.32.32-.53.53-.74.21,0,.42-.21.53,0h.11c0-.11-.11-.21-.21-.32-.27-.01-.54.05-.78.18-.24.13-.44.32-.58.55l-.21.74-1.05,1.47c-.11.32.32.21.42.42-.15-.05-.3-.05-.45-.02-.15.04-.28.12-.39.23-.11-.11-.11-.42-.32-.42.11-.11.32,0,.42-.11.42-.53.74-1.05,1.16-1.58.33-.51.68-1,1.05-1.47.11-.13.26-.23.43-.29.17-.06.35-.06.52-.03.21,0,.32.21.42.32.07.25.09.51.06.76-.04.25-.13.5-.27.71,0,.11-.11.11-.11.21v-.42c-.11-.21-.21-.21-.42-.11-.21,0-.32-.11-.53-.11ZM28.63,15.58c.21-.11.42,0,.63-.11.2.09.42.12.63.11,0,.21-.42.11-.42.42v.63s-.03-.03-.05-.03c-.02,0-.04-.01-.06-.01s-.04,0-.06.01c-.02,0-.03.02-.05.03-.11,0,0,.11-.11.11s-.21-.21-.32-.11c0,0-.11.11-.11,0v-.32c-.11-.21-.42-.21-.63-.21.21-.21.42-.32.53-.53ZM28.42,14.52c.11,0,.11-.11,0,0,.01-.01.03-.03.05-.03.02,0,.04-.01.06-.01s.04,0,.06.01c.02,0,.03.02.05.03h.21c.11-.11,0-.53.32-.42.11.11,0,.42.21.42h.11c.11,0,.32-.21.42,0,0,.11-.11.21-.21.42-.38-.05-.77-.05-1.16,0,0-.11-.11-.32-.11-.42ZM27.68,21.68c0-.11.11-.11.21-.11v.11c0,.11-.11.21-.11.32-.01.01-.03.03-.05.03-.02,0-.04.01-.06.01s-.04,0-.06-.01c-.02,0-.03-.02-.05-.03,0-.06,0-.12.02-.17.02-.05.05-.1.09-.15ZM30.94,23.37s-.53-.42-.84-.74c-.11-.11-.11,0-.11.11.26.46.57.89.95,1.26l.11.11c-.11,0-.21,0-.21-.11-.22-.12-.41-.3-.53-.53-.21-.21-.21-.63-.53-.74l-.11.11c.05.38.05.77,0,1.16,0,.06,0,.12-.02.17-.02.05-.05.1-.09.15-.11.11-.21-.11-.32-.21v-.11c0-.42-.11-.84-.11-1.16,0-.11-.11,0-.21,0-.15.45-.36.88-.63,1.26-.16.13-.34.23-.53.32,0-.11.11-.21.21-.32.25-.36.46-.75.63-1.16,0-.11,0-.21-.11-.21-.21.11-.32.42-.53.53-.05.06-.11.12-.19.15-.07.04-.15.06-.23.06.11-.32.32-.53.42-.84.13-.34.31-.66.53-.95.32-.53.53-1.05.11-1.58-.18-.22-.32-.47-.42-.74-.11-.49-.11-.99,0-1.47,0-.11.11-.32.11-.42.11-.21.21-.63.63-.53.11.11.21.21.32.11,0-.11.11-.11.21-.11.11.11.11.21.21.21,0-.11-.11,0,0,0,.21.21.11.53.11.84,0,.42.21.84.21,1.16,0,.11.11.21,0,.32-.11.32-.21.74-.32,1.05-.02.49.13.97.42,1.37,0,0-.11,0,0,.11l.84,1.37ZM30.73,21.68v.21c-.05,0-.11-.03-.14-.07-.04-.04-.06-.09-.07-.14v-.32c.21,0,.21.21.21.32ZM31.26,22.1c-.11-.12-.18-.26-.21-.42v-.32s.03,0,.04,0c.01,0,.02.01.03.02,0,0,.02.02.02.03,0,.01,0,.03,0,.04v.21c.11.21.21.32.11.42ZM32.1,22.42c-.21.11-.32-.21-.42-.32-.03-.16-.1-.31-.21-.42,0-.11,0-.21.11-.21l.21.21c.08.19.19.37.32.53v.21ZM33.15,23.47c-.05-.12-.14-.23-.25-.3s-.24-.12-.38-.12c.11-.11.21-.32.11-.42l-.63-.95-.63-1.05c-.32-.21-.53-.53-.84-.32-.11,0-.11.11-.11.21.11.11.32,0,.42,0,.12.05.23.14.3.25.07.11.12.24.12.38-.08-.05-.17-.08-.26-.08s-.18.03-.26.08c-.21-.11-.42.21-.53-.11,0-.32-.21-.74,0-.95.28-.18.62-.25.95-.21.21.11.32.32.53.53l.74,1.26.63,1.05c.11.21.42.11.53.32-.21,0-.32.21-.42.42ZM32.84,19.05c0,.11.11.21.11.32.13.26.2.55.21.84,0,.11-.11.11-.11,0-.2-.25-.35-.53-.42-.84-.12-.24-.23-.48-.32-.74,0-.11,0-.21.11-.21.21,0,.32.32.42.63ZM32.52,16.84l.11-.11c.42.11.42.63.63,1.05v.11c0,.05-.03.11-.07.14-.04.04-.09.06-.14.07q-.11,0-.21-.11v-.11c0-.42-.32-.74-.32-1.05ZM32.42,18.1h-.21s-.07-.09-.09-.15c-.02-.05-.02-.11-.02-.17-.11-.21-.11-.42-.21-.63q0-.11.11-.21c.32,0,.32.42.53.74v.21c0,.08-.05.16-.11.21ZM32.21,18.95c0,.11.11.21.11.32s.11.32.11.42c-.21,0-.21-.21-.32-.32v-.11c-.11-.32-.32-.53-.21-.74.11.11.21.32.32.42ZM31.68,18.21c-.32.11-.42-.11-.42-.42,0-.11,0-.32-.11-.32,0-.11.11-.32.21-.32.42,0,.32.42.42.63,0,.03.01.05.03.07.02.02.05.03.07.03,0,.11,0,.32-.21.32ZM31.79,19.37c0,.11-.11,0-.11,0-.12-.19-.19-.41-.21-.63.21,0,.32.32.32.63ZM31.26,18.84c0,.11.11.21.11.42-.12-.19-.19-.41-.21-.63,0-.11.11.11.11.21ZM30.94,18.42c-.32,0-.32-.32-.32-.63,0-.06,0-.12-.02-.17-.02-.05-.05-.1-.09-.15q0-.11.11-.21c.21-.11.32.11.32.21s0,.21.11.21c0,.32.11.63-.11.74ZM30.63,18.52c.21,0,.21.21.32.32,0,.11.11.32,0,.42v.11c-.11.11-.11,0-.21-.11q0-.11-.11-.11c0-.21-.11-.42,0-.63ZM33.58,20.21c-.18-.29-.33-.61-.42-.95-.11-.21-.21-.53-.32-.74.11,0,0-.11.11-.21.05,0,.11.03.14.07.04.04.06.09.07.14.12.23.19.48.21.74.11.13.18.28.22.45.04.16.03.34,0,.5.11.11.11,0,0,0ZM33.79,19.26c-.13-.22-.2-.48-.21-.74-.11-.32.32-.42.21-.74-.12-.52-.37-.99-.74-1.37-.42-.21-.53.32-.95.21-.21.42-.74.11-1.05.42v-.74c-.21-.58-.21-1.21,0-1.79l.32-.21c.21-.1.44-.13.66-.09.23.04.43.14.6.3.34.56.63,1.16.84,1.79.11.11.11.21.21.42.17.37.27.76.32,1.16v.42c-.21.32.11.63.21.84v.21c.15.41.26.83.32,1.26-.38-.37-.64-.85-.74-1.37ZM35.15,2.95v10.74h-11.58V1.05h11.68c-.53,0-.11,1.26-.11,1.89Z"/><path d="M28.94,16l.11-.11c0-.11-.11-.11-.21-.11-.03,0-.05.01-.07.03-.02.02-.03.05-.03.07,0,.11.11.11.21.11Z"/><path d="M18.84,3.47s-.11-.11-.11,0c-.05.06-.08.13-.08.21s.03.15.08.21c-.02-.15.02-.3.11-.42Z"/><path d="M19.37,3.37c.11-.11.11-.21.11-.42,0-.05-.03-.11-.07-.14-.04-.04-.09-.06-.14-.07-.11.11.11.32,0,.42-.11.21-.21.21-.32.32.11.11.32-.11.42-.11Z"/><path d="M20.1,5.37c.32.42.74-.21,1.16,0,0-.11-.11-.11-.21-.11-.21-.21-.42.11-.63,0-.11,0-.11-.11-.21-.21-.11.05-.22.13-.32.21-.11.11-.32.11-.42.21.21.21.42,0,.63-.11Z"/><path d="M14.95,4.63c.21,0,.53.11.74-.11.21-.21.32.21.63.11.42,0,.21-.53.63-.42.12-.02.23-.07.32-.14.09-.07.16-.17.21-.28-.11-.42.21-.53.21-.84,0-.11-.11-.32-.32-.21v.11c.11.11,0,.32,0,.42-.32.11-.11.42-.21.63-.11.53-.74,0-.74.42-.11.11-.21.32-.42.21-.32-.42-.42.21-.84,0-.11,0-.21-.11-.32-.21-.11-.11,0-.42-.21-.32q-.11.11-.11.21c.11.21.21.42.42.42Z"/><path d="M18.1,6c0-.53.63-.21.84-.74.08-.12.12-.27.11-.42-.11-.32.11-.53.11-.84,0-.11-.11-.21-.32-.11.07.13.11.27.11.42-.32.32.11.74-.21,1.05-.21.21-.74,0-.74.42-.11.11-.11.32-.32.32.15.02.3-.02.42-.11Z"/><path d="M43.47,21.16c.5-.28,1.05-.43,1.62-.45.57-.02,1.13.1,1.64.35-.11-.63-.42-1.47-1.47-1.47.16-.37.24-.76.24-1.16s-.08-.79-.24-1.16c-.32.32-.32,1.26-.63,1.47-2,.95-.32-2.53-.32-2.95.12-.4.14-.82.05-1.23-.09-.41-.29-.78-.57-1.09-.11.21-.11,1.05-.53,1.37-.74-.11-.21-2.53-.74-2.74.11.63-.32.84-.42,1.26-.21-.24-.35-.54-.4-.85-.06-.31-.03-.64.09-.94.17-.34.39-.66.63-.95-.63-.21-1.16.21-1.79.42-.04-.6-.31-1.16-.74-1.58.04.25,0,.51-.11.73-.11.23-.3.41-.52.53-.26-.26-.44-.58-.53-.93-.09-.35-.09-.72,0-1.07-.1.03-.19.07-.27.13-.08.06-.15.14-.2.23-.05.09-.08.19-.09.29-.01.1,0,.2.03.3l-.21-.11c-.32,3.05,1.79,4.32,1.58,4.63-.65.04-1.29.18-1.89.42,0,.11,2.32,1.16,3.16,2.63,1.16,1.79.21,2.53-.21,2.63-1.26.11-1.05-1.37,0-.84-.53-1.37-1.89-1.47-2-.95-.1-.09-.17-.19-.23-.31s-.08-.25-.08-.38.03-.26.08-.37c.05-.12.13-.22.23-.31-1.05.11-1.05,1.26-1.16,1.58-.32-.06-.65-.02-.94.14-.29.15-.51.4-.64.7,1.05-.74,5.47,2.63,2.74,4.32-1.05-.32,0-1.16-.11-1.26-1.37.11-.95,1.47-1.47,1.26-.4-.09-.79-.23-1.16-.42.32.58.67,1.14,1.05,1.68-.42.42-.95,1.37-.53,1.79-.11-.42,1.26-1.26,1.16.21-.21,1.05-2.42,1.26-1.68-.84-.63.11-1.05.74-1.37,1.26-.32,0-.95-.53-1.16-.53,0,.11,1.47,2,0,3.58-.1-.27-.26-.52-.49-.7-.22-.19-.49-.31-.78-.35-1.16,0-1.26.53-1.26.53.32-.11.74-.21.84,0,.42,1.37-.63,1.47-1.58,1.05,0,0-.84-.32-.74-.11.84.53.32,2.32-.95.74-.58.76-.91,1.68-.95,2.63-1.03,1.31-2.24,2.48-3.58,3.47-.42-.84.63-1.16.95-1.16-.11-.53-.95-.32-.95-.32,0-.21.63-.84.95-.63-.42-.53-1.26-.21-1.37-.21.11-.74,1.05-1.58,1.37-1.89.06.02.12.05.17.09.05.04.09.1.12.15.03.06.05.12.05.19,0,.07,0,.13-.03.19.42,0,.42-.63.42-.63.14,0,.28-.02.4-.08s.24-.14.33-.24c2.11-2.11,2-2.84,1.89-3.16-.06-.17-.16-.32-.29-.45-.13-.13-.28-.23-.45-.29-.95-.11-2.63,1.58-2.95,3.16-.21,0-.53.11-.53.42.11,0,.42-.11.53.11,0,0-.84.95-1.16,1.26-.13-.69-.17-1.4-.11-2.11.11-.11.32.32.42.32.32,0,.11-.63.11-.84.21-.32.53-.95.53-.95.53-2.63-1.05-2.84-1.26-2.84s-2,.11-1.26,2.84c0,0,.32.63.53.95,0,.21-.32.84.11.84.11,0,.32-.42.42-.32.06.7.03,1.41-.11,2.11-.42-.39-.81-.81-1.16-1.26.11-.21.32-.11.53-.11-.11-.42-.32-.42-.53-.42-.32-1.68-2-3.37-2.95-3.16-.18.05-.34.14-.47.27-.13.13-.22.29-.27.47-.11.21-.21,1.05,1.89,3.16.21.11.53.21.74.32,0,0,0,.63.42.63-.21-.53.11-.63.32-.63.65.47,1.13,1.13,1.37,1.89-.23-.09-.47-.11-.71-.08-.24.04-.47.14-.66.29.32-.21.95.42.95.63,0,0-.74-.21-.95.32.42,0,1.37.32.95,1.16-1.32-1.02-2.52-2.19-3.58-3.47-.06-.95-.39-1.86-.95-2.63-1.16,1.58-1.68-.21-.95-.74.21-.32-.74.11-.74.11-.84.42-1.89.32-1.58-1.05.11-.21.63-.11.84,0,0,0-.11-.53-1.26-.53-.29.03-.57.15-.79.34-.22.19-.39.44-.47.72-1.37-1.58,0-3.47,0-3.58-.11,0-.84.42-1.16.53-.11-.3-.3-.58-.53-.8-.24-.22-.52-.38-.84-.47.63,2.21-1.58,1.89-1.68.84-.11-1.47,1.26-.63,1.16-.21.42-.42-.11-1.37-.53-1.79.21-.32,1.05-1.68,1.05-1.68-.36.2-.75.35-1.16.42.06-.15.08-.3.06-.46-.01-.15-.06-.3-.15-.44-.08-.13-.19-.24-.32-.33-.13-.08-.28-.13-.43-.15-.21.11.84.95-.11,1.26-2.74-1.68,1.68-5.05,2.74-4.32-.12-.3-.35-.55-.64-.7-.29-.15-.62-.2-.94-.14-.21-.32-.21-1.37-1.26-1.47.17.19.26.43.26.68s-.09.5-.26.68c-.11-.42-1.47-.42-2,.95,1.05-.53,1.26.95,0,.84-.42-.11-1.37-.84-.21-2.63.84-1.47,3.16-2.53,3.16-2.63-.61-.24-1.24-.38-1.89-.42-.11-.32,2-1.58,1.68-4.63l-.21.11c.03-.1.04-.2.03-.3-.01-.1-.04-.2-.09-.29-.05-.09-.12-.17-.2-.23-.08-.06-.17-.11-.27-.13,0,.21.21,1.47-.53,2-.24-.1-.44-.28-.55-.51-.12-.23-.14-.5-.08-.75-.41.43-.67.99-.74,1.58-.53-.21-1.05-.63-1.79-.42.21.32.53.53.63.95.11.3.14.62.09.94-.06.31-.19.61-.4.85-.11-.42-.42-.53-.42-1.26-.53.21.11,2.63-.74,2.74-.32-.38-.51-.87-.53-1.37-.25.32-.43.7-.52,1.1-.09.4-.09.82,0,1.22.11.42,1.68,3.89-.32,2.95-.32-.32-.32-1.16-.63-1.47-.16.37-.24.76-.24,1.16s.08.79.24,1.16c-.38.04-.73.21-1,.48-.27.27-.44.62-.48,1,.5-.27,1.07-.41,1.65-.39.57.02,1.13.19,1.62.49.21.11,1.89,1.79,0,2.32-.63,0-1.05-.95-1.05-.95-.13.67-.01,1.36.34,1.95.35.58.91,1.02,1.56,1.21.42.32.84.74.74,1.26-.42.84-.95-.63-.95-.63-.17.26-.27.57-.29.88-.02.31.04.63.18.91,0,0-1.26.84,0,2.42,2.11-4.32,4.84-1.58,4.21-.74-.32.53-1.05.42-1.58.42.04.37.23.71.53.95-.18.22-.3.47-.36.75-.06.28-.04.56.04.83.3-.51.77-.9,1.32-1.11.55-.21,1.16-.23,1.73-.04.21.11,1.16.74-.21,1.37-.12.19-.19.41-.21.63,1.37-.95,4.21-.74,4.84.11.32,1.05-.74,1.05-.95,1.26.23.27.54.45.89.5s.7,0,1.01-.19c.21.32-.11.63-.11.95.26,0,.52-.05.76-.16.24-.11.45-.27.61-.48.26.3.59.54.95.7.36.16.76.25,1.15.25.11-.21-.11-.42,0-.63.63-.21,2.42,1.89,3.05,3.16-.13-.02-.26-.02-.38.03-.12.04-.23.11-.31.21-.09.1-.14.21-.17.34-.03.13-.02.25.02.38.84-.84,1.16.32,1.47.63.32.42-.42.21-.53.53.26.12.48.31.63.56.15.24.22.52.22.81h2.63c0-.29.07-.57.22-.81.15-.24.37-.44.63-.56,0-.42-.74-.11-.53-.53.32-.32.63-1.47,1.47-.63.03-.12.03-.25,0-.37-.03-.12-.09-.23-.17-.33-.08-.09-.19-.17-.31-.21-.12-.04-.24-.06-.37-.04.53-1.26,2.42-3.37,3.05-3.16.11.21-.11.42,0,.63.79-.05,1.54-.38,2.11-.95.16.2.37.37.61.48.24.11.5.16.76.16,0-.32-.32-.63-.11-.95.53.21,1.37.53,1.89-.32-.21-.11-1.26-.21-.95-1.26.63-.95,3.37-1.05,4.84-.11.01-.11,0-.23-.03-.34-.04-.11-.1-.21-.18-.29-1.37-.63-.53-1.26-.21-1.37.56-.18,1.17-.17,1.73.04.55.21,1.02.6,1.32,1.11.06-.27.06-.55,0-.82-.05-.27-.17-.53-.33-.76.17-.09.31-.23.4-.39.09-.17.14-.36.12-.55-.53.11-1.37.11-1.58-.42-.63-.95,2.11-3.58,4.21.74,1.26-1.58,0-2.42,0-2.42.14-.28.2-.59.19-.91-.02-.31-.12-.62-.29-.88,0,0-.53,1.47-.95.63-.11-.53.32-.95.74-1.26.66-.19,1.22-.62,1.57-1.2.35-.59.47-1.28.32-1.95,0,0-.42,1.05-1.05.95-2.63-.53-.95-2.21-.74-2.32Z"/></g></svg>