<?xml version="1.0" encoding="UTF-8"?><svg id="uuid-cdb9bcee-b321-4be1-9cb6-a6d665720d0f" xmlns="http://www.w3.org/2000/svg" viewBox="0 0 71.62 86.64"><defs><style>.uuid-8b881742-1c05-46fb-9a24-0ec2abc20c51{fill-rule:evenodd;}</style></defs><g id="uuid-31ac7721-e9aa-4c69-b0b6-d37d6c39b308"><path class="uuid-8b881742-1c05-46fb-9a24-0ec2abc20c51" d="M69.89,78.52h.94v7.98l-5.77-6.04v5.74h-.97v-8.06l5.8,6.07v-5.69h0ZM42.77,78.52v4.88c0,.86-.24,1.56-.73,2.1-.51.59-1.21.86-2.1.86-.84,0-1.54-.27-2.05-.86-.51-.54-.76-1.24-.76-2.1v-4.88h.97v4.56c0,1.59.59,2.4,1.83,2.4s1.89-.81,1.89-2.4v-4.56h.94ZM45.73,78.52h4.61v.89h-1.83v6.8h-.92v-6.8h-1.86v-.89ZM44.06,78.52h.97v7.69h-.97v-7.69h0ZM35.57,78.52h1.05l-3.34,8.12-3.34-8.12h1.05l2.29,5.69,2.29-5.69h0ZM62.32,82.38c0,.86-.3,1.59-.92,2.21-.57.59-1.29.89-2.13.89s-1.56-.3-2.18-.89c-.62-.62-.92-1.35-.92-2.21s.27-1.59.86-2.18c.59-.62,1.35-.92,2.24-.92s1.62.3,2.18.92c.57.59.86,1.32.86,2.18ZM62.1,79.55c-.81-.78-1.75-1.19-2.83-1.19s-2.05.4-2.86,1.19c-.78.78-1.19,1.73-1.19,2.83s.41,2.08,1.19,2.86c.78.76,1.73,1.13,2.86,1.13s2.08-.38,2.83-1.13c.78-.78,1.19-1.73,1.19-2.86,0-1.1-.4-2.05-1.19-2.83ZM55.01,78.52v.89h-1.81v6.8h-.97v-6.8h-1.83v-.89h4.61,0ZM10.41,80.2c.57.59.84,1.32.84,2.18s-.3,1.59-.89,2.21c-.59.59-1.32.89-2.16.89s-1.56-.3-2.18-.89c-.57-.62-.89-1.35-.89-2.21s.3-1.59.86-2.18c.59-.62,1.32-.92,2.21-.92s1.64.3,2.21.92ZM11.03,79.55c-.81-.78-1.75-1.19-2.83-1.19s-2.08.4-2.83,1.19c-.81.78-1.21,1.73-1.21,2.83s.4,2.08,1.21,2.86c.76.76,1.7,1.13,2.83,1.13s2.08-.38,2.83-1.13c.81-.78,1.19-1.73,1.19-2.86s-.38-2.05-1.19-2.83h0ZM13.97,83.08c0,1.59.62,2.4,1.86,2.4s1.86-.81,1.86-2.4v-4.56h.94v4.88c0,.86-.24,1.56-.76,2.1-.51.59-1.21.86-2.05.86s-1.54-.27-2.05-.86c-.54-.54-.78-1.24-.78-2.1v-4.88h.97v4.56h0ZM1.72,78.52v6.82h2.35v.86H.78v-7.69h.94ZM24.83,81.68c1.29.51,1.91,1.27,1.91,2.29,0,.7-.24,1.27-.73,1.73-.46.46-1.02.67-1.7.67-.62,0-1.16-.19-1.62-.62-.43-.4-.7-.92-.78-1.54l.97-.22c0,.43.13.78.43,1.08.3.27.62.4,1.05.4.4,0,.73-.16,1.02-.46.24-.27.38-.62.38-1.05,0-.59-.43-1.08-1.32-1.46l-.54-.19c-1.08-.51-1.64-1.16-1.64-1.97,0-.59.24-1.11.67-1.46.46-.38.97-.54,1.59-.54.89,0,1.54.4,1.97,1.19l-.75.43c-.3-.46-.7-.7-1.24-.7-.32,0-.65.08-.89.27-.27.22-.4.49-.4.81,0,.46.35.81,1.11,1.08l.51.24h0ZM19.93,78.52h.97v7.69h-.97v-7.69ZM57.79,9.05l-18.6,43.9-5.13-11.26,9.48-25.8c.71-2,3.21-2.92,7.41-2.92l1.5-3.92h-22.09l-1.43,3.92c3.14,0,4.42.93,3.92,2.92l-4.7,13.11-9.26-19.95c-1.71-2.14-.86-3.21,2.49-3.21V1.21H0v4.63c3.99,0,6.48,1.07,7.55,3.21l15.68,33.35-7.34,19.6c-.14,2.64-4.28,3.92-12.26,3.92l-1.5,3.92h61l8.48-18.03h-4.42c-4.13,9.34-8.91,14.11-14.25,14.11h-28.01l4.13-11.05,3.56,7.13h7.98L63.14,9.05c1.07-3.21,3.85-4.92,8.2-4.92V0h-18.39v4.13c5.56,0,7.13,1.71,4.85,4.92h0Z"/></g></svg>