<?xml version="1.0" encoding="UTF-8"?><svg id="uuid-ad4b9679-391d-40c6-938c-fbc2aff1ed93" xmlns="http://www.w3.org/2000/svg" viewBox="0 0 141.4 74"><defs><style>.uuid-bca4501b-08b5-4fe7-9f7f-dc9598639c3f{fill-rule:evenodd;}</style></defs><g id="uuid-0595f333-2163-4a4b-b5f3-228df8e13bf9"><path class="uuid-bca4501b-08b5-4fe7-9f7f-dc9598639c3f" d="M90.36,8.33c-1.29,0-2.33,1.04-2.33,2.33,0,.81.4,1.52,1.02,1.94l-7.89,16.94,1.65-22.56c1.28-.11,2.23-1.24,2.12-2.52-.1-1.21-1.11-2.13-2.32-2.13-1.29,0-2.33,1.04-2.33,2.33h0c0,1.01.65,1.86,1.55,2.18l-5.42,22.03-2.68-24.3c1.01-.27,1.72-1.18,1.72-2.23,0-1.29-1.04-2.33-2.33-2.33s-2.33,1.04-2.33,2.33c0,1.16.86,2.1,1.97,2.27l-2.16,23.67-6.28-21.38c.77-.4,1.25-1.19,1.25-2.05,0-1.29-1.04-2.33-2.33-2.33s-2.33,1.04-2.33,2.33c0,1.29,1.04,2.33,2.33,2.33.03,0,.07,0,.1,0l2.71,22.37-9.12-16.27c1.01-.79,1.19-2.26.4-3.27-.79-1.01-2.26-1.19-3.27-.4s-1.19,2.26-.4,3.27c.55.7,1.45,1.03,2.33.84l7.64,22.9c1.74,5.33,17.23,5.42,19.56,0l6.9-23.65c.1.01.17.03.27.03,1.29-.02,2.31-1.08,2.29-2.37-.02-1.25-1.03-2.26-2.28-2.29h0ZM73.22,39.05c-3.95,0-7.15-1.19-7.15-2.66s3.2-2.16,7.15-2.16,6.73.69,6.73,2.16-2.78,2.66-6.73,2.66h0ZM84.44,52.69h2.3c1.4,0,1.89.32,1.89,1.54v15.06c0,1.19-.49,1.64-1.89,1.64h-2.3v2.44h23.56v-10h-2.23c0,4.93-1.95,7.52-5.24,7.52h-6.61v-8.01h1.3c2.13,0,3.35.95,3.35,2.69v1.4h2.56v-11.12h-2.56v1.22c0,1.72-1.29,2.76-3.35,2.76h-1.3v-7.15h6.16c4.51,0,5.45,2.6,5.69,6.48h2.23v-9.13h-23.56v2.65h0ZM74.08,70.89h-5.58v-16.56c0-1.22.49-1.64,1.89-1.64h2.1v-2.59h-13.02v2.59h1.82c1.4,0,1.89.42,1.89,1.64v14.96c0,1.19-.49,1.64-1.89,1.64h-1.82v2.49h22.07v-10.25h-2.52c-.07,4.02-.04,7.71-4.94,7.71ZM42.94,49.39c-8.04,0-13.05,6.2-13.08,12.04-.04,7.55,4.97,12.31,12.84,12.31,8.36,0,13.22-4.69,13.22-12.7,0-5.94-5.25-11.65-12.98-11.65ZM42.77,70.99c-4.2,0-6.61-3.75-6.61-9.73s2.52-8.86,6.82-8.86,6.54,3.09,6.54,9.1c0,5.88-2.45,9.49-6.75,9.49h0ZM138.95,52.69h2.45v-2.62h-11.84v2.62h1.55c.58.09.97.69.39,1.27l-3.29,3.78-2.61-3.2c-.58-.68-.48-1.84.58-1.84h1.2v-2.63h-13.49v2.62c3.39.1,4.24.49,5.46,2.07l5.48,6.66-7.46,7.84c-1.33,1.5-1.46,1.64-3.48,1.64v2.5h11.81v-2.5h-2.83c-.84,0-1.01-.61-1.01-1.06s.59-.98.84-1.29l4.16-4.71,4.16,4.96c.21.28.56.59.56.94,0,.45-.38,1.17-1.19,1.17h-2.34v2.5h13.36v-2.5c-2.11,0-2.3-.1-4.19-2.41l-6.97-8.23,4.74-5.13c1.75-1.85,2.43-2.43,3.97-2.43h0ZM24.31,66.69v1.2c0,1.43-.84,2.17-1.54,2.17-1.12,0-1.19-1.36-1.26-2.17v-.97c0-3.2-1.45-4.45-3.29-5.42,3.43-.8,5.7-2.85,5.7-5.68,0-3.67-2.52-5.77-6.99-5.77H0v2.64h2.29c1.4,0,1.89.32,1.89,1.55v15.01c0,1.19-.49,1.64-1.89,1.64H0v2.48h13.19v-2.48h-1.82c-1.4,0-1.89-.45-1.89-1.64v-6.68h2.35c2.52,0,4.36,1.41,4.5,4.07l.21,3.07c.14,2.8,2.03,4.3,5.35,4.3,3.53,0,4.36-1.71,4.36-5.35v-1.96h-1.95s0,0,0,0ZM13.57,59.53h-4.09v-6.86h3.64c3.5,0,4.76,1.16,4.76,3.43,0,2.34-1.36,3.43-4.3,3.43h0Z"/></g></svg>