<?xml version="1.0" encoding="UTF-8"?><svg id="uuid-2caea7cf-0c28-4d10-8a4d-2287de4a7255" xmlns="http://www.w3.org/2000/svg" viewBox="0 0 174.83 26.44"><defs><style>.uuid-005176b1-5045-4b63-b811-641faa7d3e65{fill-rule:evenodd;}</style></defs><g id="uuid-0501236d-60db-41be-a6ee-15f3f0a9368a"><path class="uuid-005176b1-5045-4b63-b811-641faa7d3e65" d="M8.94.37l.06.57h-2.88l5.49,19.8c1.42-4.76,4.11-12.97,5.43-17.81.2-.73-.14-1.38-.65-1.66-.41-.22-1.36-.14-1.91-.16l-.08-.75h6.63v.57c-.89.04-2.47.2-2.78,1.09-2.8,7.6-5.86,17.87-7.88,24.36h-.32L2.49.95H.06l-.06-.57h8.94ZM30.03,17.77l-6.42-.06c-.65,1.95-1.24,4.32-1.68,6.24-.16.75-.06,1.01.18,1.34s1.7.12,2.59.18l-.06.55h-6.1l-.06-.55c.57-.06,2.01.16,2.21-.41C22.78,19.19,25.94,6.81,28.03,0h.36l7.31,25.47h2.31v.55h-8.67v-.55h2.92l-2.23-7.7h0ZM26.87,6.16l-3.1,11.11h6.16l-3.06-11.11h0ZM42.41,1.13h-3.02V.37h9.16v.75h-3.06v24.4c1.52,0,3.1-.08,4.62-.04,5.78.16,6.91-2.23,6.89-7.66l.43-.06-.06,8.25h-18.02v-.49h3.06V1.13ZM62.13,1.2h-2.65V.45h16.17l.43,6.42-.41-.06c-.26-2.09-.36-2.71-1.24-3.89-.89-1.18-2.51-1.58-4.26-1.6l-4.86-.06-.06,11.69c.85-.02,1.72-.02,2.57-.08.85-.04,2.13-.49,2.59-1.14s.53-1.82.61-3.45h.45l.06,9.53h-.63s-.02-.1-.02-.18c-.02-1.14.14-2.11-.55-3.14-.41-.65-1.76-1.12-2.94-1.09l-2.13.06.06,12.1c2.9-.02,7.96.49,10.15-1.72.93-.93,1.17-2.92,1.17-5.01l.59.04-.04,7.15h-17.63l-.06-.51h2.65V1.2h0ZM97.23,1.26c-.37-.36-1.91-.22-2.64-.22l.06-.67,6.32.04v.53c-2.11.06-2.82-.22-2.88,1.9-.2,5.92-.04,18.87-.06,23.55l-.55.04-14.55-24.38c-.04,3.61-.14,16.37-.14,21.44,0,2.55,1.36,1.91,3.2,1.87v.65h-6.69v-.53c3.04-.08,3.02.1,3.06-3.65.06-6.65.1-13.72.12-20.87-1.5.02-2.27.04-3.02.04V.37l6.48.04,11.59,19.29c-.02-1.93.06-13.13.02-17.2-.02-.71-.18-1.16-.3-1.24h0ZM150.17,1.28c-.37-.36-1.91-.22-2.64-.24l.06-.65,6.32.04v.53c-2.11.04-2.8-.24-2.88,1.88-.2,5.94-.04,18.87-.06,23.55l-.55.04-14.55-24.38c-.04,3.63-.14,16.37-.14,21.44,0,2.55,1.36,1.91,3.2,1.87v.65h-6.69v-.53c3.04-.08,3.04.1,3.06-3.63.06-6.67.1-13.72.12-20.87-1.48.02-2.27.02-3.02.02V.39l6.48.04,11.59,19.27c-.02-1.93.06-13.13.02-17.18-.02-.71-.18-1.16-.3-1.24h0ZM109.92,1.07c-2.74-.06-5.21.16-6.16,1.32-.97,1.17-.87,2.8-1.1,5.43l-.43.06.04-7.5h18.56l.1,7.56h-.49c-.26-2.96-.2-4.62-1.2-5.59-1.01-.97-3.89-1.34-6.12-1.34l-.06,24.42,3.04.06v.55h-9.32v-.55h3.1l.06-24.42h0ZM125.3,1.13h-2.67V.37h8.49v.75h-2.73v24.3h2.61v.61h-8.55v-.61h2.84V1.13h0ZM165.16.45c-.26,0-.53.02-.81.08-.29.06-.57.14-.85.24-1.1.43-2.13,1.54-3.06,3.34-.93,1.82-1.38,4.82-1.38,9.04s.45,7.17,1.36,8.98c.93,1.8,1.93,2.92,3.02,3.38.3.14.59.22.87.28.28.06.55.08.85.08.28,0,.55-.02.85-.08.3-.06.59-.14.89-.28,1.09-.47,2.09-1.62,3-3.42.93-1.82,1.38-4.8,1.38-8.94,0-3.83-.39-6.61-1.16-8.39s-1.62-2.98-2.55-3.59c-.38-.27-.81-.46-1.26-.57-.37-.09-.76-.14-1.14-.14h0ZM155.58,13.21c0-3.75.87-6.77,2.61-9.04,1.74-2.29,3.63-3.63,5.72-4.05.22-.04.43-.06.65-.08.22-.04.42-.04.61-.04,2.49,0,4.72,1.22,6.69,3.71,1.97,2.47,2.96,5.65,2.96,9.5,0,3.63-.79,6.53-2.37,8.73-1.58,2.19-3.32,3.57-5.19,4.15-.33.14-.69.23-1.05.28-.35.06-.7.08-1.05.08-.55,0-1.09-.07-1.62-.22-.59-.14-1.18-.37-1.8-.67-1.54-.87-2.96-2.31-4.24-4.3-1.3-2.01-1.95-4.68-1.93-8.04h0Z"/></g></svg>