<?xml version="1.0" encoding="UTF-8"?><svg id="uuid-23baeed0-1387-44d8-a29f-74086fbf06df" xmlns="http://www.w3.org/2000/svg" viewBox="0 0 158.5 81.53"><g id="uuid-2da96dc7-c05b-4e73-ae09-11be0dc4510d"><path d="M79.29,81.53c4.54-.02,7.96-2.3,7.96-6.4.03-3.66-3.81-4.71-7.27-5.38-2.84-.55-5.38-1.59-5.41-4.01,0-.06,0-.13,0-.2.14-1.9,2.35-2.95,4.4-2.95,1.98,0,3.46.84,4.79,2.41l2.07-1.63c-3.08-2.09-4.56-2.13-6.86-2.13-1.29,0-3.22.31-4.78,1.21-1.57.9-2.78,2.34-2.79,4.68v.09c.02,4.21,4.94,4.95,6.52,5.27,1.91.4,5.61,1.23,5.65,4.43-.03,2.14-2.4,3.27-4.32,3.28h-.03c-1.68,0-4.29-.35-6.07-2.86l-2.26,1.72c1.83,1.55,3.98,2.48,8.38,2.49h0ZM25.73,81.02h12.97v-1.21h-9.1v-8.14h7.3v-1.13l-7.3.03v-7.81h9.1v-1.21h-12.97v19.48ZM118.88,71.35c.03,7.35,3.76,10.1,9.74,10.14,4.44,0,6.53-1.04,7.6-2.51.59-.82.75-1.43.78-2.26h-2.59c-.15,2.21-2.07,3.99-4.65,3.99-1.53,0-3.26-.23-4.6-1.53-1.33-1.3-2.22-3.61-2.22-7.64,0-4.32.87-6.75,2.08-8.12,1.21-1.36,2.75-1.59,3.92-1.59,1.2,0,2.39.39,3.3,1.21.85.78,1.43,1.97,1.48,3.54h3.33c-.12-2.88-1.92-5.31-8.12-5.35-6.36.05-10,2.77-10.04,10.12h0ZM6.97,81.02h3.59l7.27-19.47h-1.9l-6,16.85-.25.72-5.74-17.57H0l6.97,19.47h0ZM54.69,72.49l5.25,8.53h3.94l-5.32-8.64-.17-.27.3-.11c1.81-.66,4.31-2.09,4.31-5.25-.01-3.14-2.37-5.17-8.7-5.2h-7.4s0,19.47,0,19.47h3.86v-8.53h3.94s0,0,0,0ZM53.4,71.61h-2.65v-9.14h3.17c3.09,0,5.12,1.97,5.12,4.33,0,2.36-2.1,4.8-5.65,4.8M107.12,74.2l2.8,6.81h3.65l-8.29-19.47h-3.61l-9.02,19.47h1.71l3.14-6.67.07-.15h9.56s0,0,0,0ZM98.06,73.11l4.32-9.25.25-.53,4.05,9.78h-8.61ZM145.53,81.02h12.97v-1.22h-9.1v-8.14h7.3v-1.13l-7.3.03v-7.81h9.11v-1.2h-12.97v19.48Z"/><path d="M102.87,20.09c-.09-.12-.06-.29-.13-.41-.02-.31-.24-.54-.3-.84-.18-.45-.41-.88-.69-1.29l.02-.03c-.02-.32-.07-.63-.15-.94-.06-.05-.07-.1-.11-.16,0-.06-.06-.1-.07-.17-.03-.03-.05-.1-.08-.14-.11-.25-.26-.48-.43-.68-.4-.95-.88-1.87-1.43-2.74-.29.17-.57.34-.86.51-.02-.02-.04-.03-.07-.05v-.02c-.1-.04-.19-.11-.27-.16-.23-.15-.47-.3-.72-.42-.04-.02-.09-.04-.13-.06l1.29-.87.04-.1c-.86-1.23-1.83-2.38-2.9-3.43l-1.95,1.93c-.72-.66-1.45-1.3-2.2-1.92l.53-.71.09.02c.46.35.98.77,1.41,1.16h.13l1.11-1.25.02-.08c-1.11-.94-2.26-1.82-3.46-2.54-.5.76-.94,1.58-1.47,2.34-.79-.51-1.63-.86-2.44-1.29l.28-.64c.04-.07.04-.18.14-.2.63.24,1.22.59,1.82.88.28-.52.57-1.05.85-1.57l-.04-.04c-1.27-.67-2.55-1.28-3.92-1.68-.32.86-.55,1.75-.87,2.61-.66-.21-1.33-.38-2-.55-.24-.08-.5-.1-.75-.18.07-.31.07-.63.18-.91.3.03.59.08.85.16.39.06.77.22,1.15.25.16-.56.32-1.12.49-1.68-1.23-.35-2.48-.61-3.74-.76-.14,0-.23-.07-.37-.02-.12.69-.16,1.43-.25,2.15v-.02c-.05-.08-.12-.14-.2-.17-.11-.05-.23.02-.31.09-.07.21-.06.45-.12.65-.69-.04-1.38-.06-2.07-.07l-.03-.03c-.03-.29-.04-.66,0-.91.53-.07,1.25-.01,1.82.02.06-.02.16,0,.12-.08-.02-.55.13-1.15.07-1.71-1.34-.11-2.72-.04-4.06.06l-.03.06c.07.89.24,1.81.26,2.72-.52.1-1.06.16-1.58.28-.41.01-.77.21-1.18.21l-.2-.87c.24-.13.51-.18.77-.22.37-.11.77-.11,1.14-.25-.18-.55-.2-1.16-.32-1.72-1.34.2-2.67.57-3.95.97.25.9.59,1.74.86,2.62-.88.35-1.76.72-2.62,1.12-.14-.28-.34-.52-.42-.81.59-.35,1.24-.6,1.85-.87v-.06c-.17-.56-.41-1.12-.63-1.65-1.33.53-2.59,1.23-3.87,1.96v.03c.48.77.94,1.56,1.43,2.33-.85.56-1.67,1.22-2.48,1.85-.21-.24-.39-.41-.57-.66v-.07c.52-.48,1.11-.91,1.68-1.33v-.13l-.94-1.37h-.08c-1.21.91-2.45,1.84-3.52,3.01.65.74,1.3,1.26,1.94,1.95l-.25.28c-.15.17-.3.34-.44.51-.27.14-.54.28-.79.44-.24.11-.46.31-.66.46-.15.14-.32.26-.48.39l-.15-.1-.02-.06c.41-.6.94-1.19,1.33-1.79-.39-.36-.87-.74-1.26-1.12h-.07c-.77.88-1.48,1.8-2.1,2.77-.22.34-.43.7-.6,1.07.57.34,1.16.66,1.74.98-.05.05-.09.12-.11.19-.37.15-.7.35-1.02.56-.39-.2-.8-.39-1.18-.6l-.07.03c-.48.91-.85,1.86-1.19,2.83-.08.11-.16.22-.23.34v.02c-.09.05-.04.16-.14.18-.02.06-.07.09-.1.14-.14.32-.33.61-.43.94-.08.1-.09.23-.14.34-.02.06-.04.12-.06.18l-.05.26c-.02.06.02.14-.06.18-.03.07-.08.17-.02.25-.04.2.06.34.13.48,0,.13-.14.21-.18.33-.09.1-.16.24-.25.34-.06.18.11.33.21.44.07.02.14.03.21.03-.15,1-.24,2.01-.25,3.02.01.07.1.04.14.08h2.55s.06.06.06.06l.03.73h.02c.02,1.13.21,2.15.35,3.23-.28.08-.58.17-.9.18l-.04-.06c-.2-.74-.25-1.56-.34-2.33-.56-.04-1.18.06-1.77.1.16,1.7.43,3.45.97,5,.86-.27,1.73-.54,2.61-.78.34,1.02.73,2.02,1.16,3-.29.12-.55.36-.87.36-.35-.63-.6-1.3-.85-1.96-.42.13-.85.27-1.26.42-.1.08-.27.08-.38.18.48,1.46,1.14,2.86,1.98,4.15.77-.48,1.57-.91,2.35-1.39l.06.04c.5.88,1.13,1.71,1.79,2.52l-.66.58h-.07c-.53-.43-.88-1.18-1.33-1.62l-1.39.94-.04.1c.86,1.23,1.83,2.38,2.9,3.44l1.95-1.94c.71.67,1.49,1.32,2.2,1.92l-.53.71h-.08c-.49-.38-.96-.77-1.42-1.18h-.13l-1.11,1.25-.02.08c1.11.94,2.26,1.82,3.46,2.54.5-.75.94-1.58,1.47-2.34.78.5,1.62.85,2.44,1.29l-.28.64c-.04.07-.04.18-.14.2-.63-.24-1.22-.59-1.82-.88-.28.52-.58,1.05-.85,1.57l.04.04c1.28.67,2.55,1.27,3.92,1.68.32-.86.55-1.75.87-2.61.66.21,1.33.38,2,.55.24.09.5.1.75.18-.07.31-.07.63-.18.91-.29-.03-.58-.08-.86-.16-.39-.06-.77-.22-1.15-.25-.16.56-.32,1.12-.49,1.68,1.21.35,2.45.61,3.74.76.14,0,.22.07.36.01.16-.87.17-1.84.32-2.72.87.06,1.74.08,2.62.1l.02.02c.03.3.04.66,0,.91-.53.07-1.25.02-1.82-.01-.06.01-.16,0-.13.08.03.55-.12,1.15-.07,1.71,1.34.11,2.72.04,4.07-.06l.03-.06c-.07-.9-.24-1.81-.27-2.72.52-.1,1.07-.16,1.58-.28.41-.02.77-.21,1.17-.21l.2.87c-.24.12-.5.19-.77.23-.37.11-.77.11-1.14.25.18.55.2,1.16.32,1.72,1.34-.2,2.67-.57,3.95-.97-.25-.9-.59-1.74-.85-2.62.89-.35,1.74-.71,2.62-1.12.14.28.34.52.42.81-.59.35-1.23.61-1.85.87l-.02.06c.18.56.42,1.12.65,1.65,1.33-.53,2.59-1.23,3.87-1.96v-.03c-.48-.77-.94-1.56-1.43-2.33.85-.56,1.66-1.22,2.48-1.85.21.24.39.4.57.66v.07c-.52.48-1.11.91-1.68,1.33v.13l.93,1.37h.09c1.21-.91,2.45-1.84,3.52-3.01-.64-.75-1.3-1.26-1.94-1.95l.25-.28c.63-.7,1.23-1.47,1.82-2.2l.7.49.02.06c-.41.61-.94,1.19-1.33,1.8.39.36.87.74,1.26,1.12h.07c.77-.88,1.48-1.79,2.1-2.78.23-.34.43-.7.61-1.07-.77-.46-1.57-.87-2.35-1.33.48-.93.97-1.85,1.33-2.82.31.04.59.2.89.32-.22.67-.57,1.28-.8,1.94.49.27,1.03.49,1.51.77l.07-.03c.71-1.37,1.22-2.83,1.68-4.3l-.03-.04c-.6-.18-1.2-.35-1.81-.51-.26-.11-.58-.1-.8-.27.28-1.02.45-2.1.63-3.18.31.02.6.04.89.11-.04.57-.12,1.13-.25,1.68.03.18-.15.34-.04.5.56.13,1.15.21,1.71.35l.04-.04c.28-1.47.51-3.01.52-4.63-.02-.07-.1-.04-.14-.08h-2.55s-.06-.06-.06-.06l-.04-.73c-.01-.74-.1-1.43-.2-2.12.05.03.1.06.16.07.13.11.35.06.51.13.11-.04.24-.05.35-.07.03.32.07.64.1.96.56.04,1.18-.06,1.77-.1-.03-.3-.07-.6-.11-.9.02-.01.02-.02.04-.02.07.08.17.16.29.16.07.07.13-.04.19-.06-.05-.4-.24-.75-.22-1.17,0-.33-.11-.66-.16-.99h0ZM101.88,18.49c.15.32.34.61.43.94.09.18.13.39.16.58.03.09.05.18.06.28-.04.13.07.2.04.34,0,.15.05.3.06.44h-.01s0,.14-.03.2c-.14-.03-.17-.15-.27-.23-.23-.19-.5-.26-.65-.54-.08-.09-.23-.06-.3-.18-.09-.02-.17-.13-.25-.17-.1-.15-.25-.2-.33-.37-.15-.1-.29-.22-.41-.36-.15-.21-.34-.42-.44-.66-.09-.1-.17-.24-.28-.32-.06-.16-.27-.27-.27-.48-.07,0-.07-.06-.07-.11-.15-.12-.17-.31-.3-.43-.03-.18-.27-.21-.25-.42-.19-.15-.17-.51-.45-.57-.18-.25-.41-.56-.66-.78-.05-.1-.12-.19-.2-.27-.21-.2-.4-.43-.64-.6-.47-.31-.92-.63-1.49-.72-.17-.1-.44,0-.57-.15-.15-.11-.31-.14-.47-.22h0c-.69-.22-1.4-.42-2.18-.36-.33-.04-.61,0-.95-.03-.29-.04-.6-.1-.9-.1-.02-.04-.04,0-.07-.02-.55-.18-1.13-.25-1.7-.2-.69.04-1.27.33-1.93.48-.26.09-.46.27-.77.25-.21.1-.34-.09-.52-.16-1.33-.48-2.78.24-4.08-.29-.03,0-.09-.04-.13-.05-.14-.12-.38-.21-.41-.38.18.09.39.06.57.07.23-.02.47-.02.66-.13.04.03.08-.02.11-.03.36-.07.63-.31.98-.42.22-.12.42-.25.65-.31.35-.17.73-.25,1.12-.34.38-.08.8.05,1.17.15.71.21,1.41.04,2.01-.34.2.18.45.26.59.49.33.18.64.46.99.57.23.18.57.21.85.33.35.09.77.14,1.12.18.04.03.13.02.2.02.54.09,1.08.15,1.63.21.52.02.98.16,1.53.13.59.1,1.14.3,1.71.46.33.18.73.26,1.03.51.25.2.59.3.85.55.18.1.33.28.5.38.14.15.31.25.45.41.49.33.83.82,1.32,1.17.11.21.37.31.46.53.14.46.64.63.73,1.08h0ZM98.62,21.11s-.02.07-.05.1c-.12.16-.25.32-.48.34v.02c-.2.06-.3-.15-.44-.26-.11-.17-.26-.31-.47-.34-.31-.02-.58.17-.74.39,0,.08-.02.12-.05.18,0,.33,0,.76-.18,1.05-.12.1-.24.25-.39.35-.29.21-.67.27-1.02.15-.18-.13-.44-.19-.55-.39-.13-.18-.24-.38-.35-.55-.03-.31-.33-.44-.3-.8v-.17c.36.07.72.27,1.12.14.24-.07.48-.17.7-.29h.01c.24-.14.5-.38.75-.53.34-.22.55-.49.93-.65.29-.18.67-.19.97-.02.09-.02.09.06.14.11.15.22.27.46.39.71-.05.16.05.27,0,.43h0ZM98.38,25.65c-.29,5.69-2.85,10.69-7.29,14.28-.27.21-.55.41-.83.61l.02-.08c.12-.51.16-1.15.16-1.62.07-.25.02-.41.05-.66-.02-.13-.02-.24-.04-.38-.02-.15,0-.3.05-.45.06-.14.13-.27.18-.41,0-.09.09-.14.09-.23.19-.26.3-.56.49-.8.02-.1.08-.19.1-.28.08-.16.16-.32.17-.5.02-.06,0-.14.03-.2-.02-.25.02-.54-.03-.78,0-.25-.13-.45-.15-.7.18-.19.22-.44.31-.67,0-.21.08-.4.05-.6.07-.13.17-.16.21-.3.08-.34.16-.74.07-1.1.01-.14-.09-.24-.07-.37.13,0,.25.05.39.06.34,0,.68.09,1.01-.03.15-.12.31.05.49.03.18-.05.31.09.51.04.1-.03.1-.14.12-.24-.25-.14-.28-.4-.44-.61-.17-.34.1-.68.13-1.03,0-.05.06-.06.05-.12.14-.25.22-.54.33-.79,0-.06.07-.11.07-.17.11-.17.19-.36.25-.55.08-.18.11-.42.17-.61.1-.31.08-.59.06-.93-.01-.28-.08-.55-.2-.79-.04-.04-.06-.1-.06-.15.03.05.12-.04.18,0,.47,0,.8-.37,1.06-.73-.02-.03.02-.05.04-.07.02-.12.11-.21.13-.34-.07-.22.2-.3.3-.43.17-.38.31-.78.25-1.25.03-.1.13-.1.21-.18.03-.02.09-.04.13,0,.04-.02.1.03.16.05.25.22.46.63.87.49h.02c.19,1.19.27,2.4.22,3.62ZM88.55,42.67c-.17.14-.37.21-.52.34-.46.21-1.02.34-1.56.25-.46.02-.9-.14-1.39-.19-.37-.15-.76-.3-1.11-.47-.23-.16-.51-.32-.68-.52-.34-.26-.6-.65-1.01-.81-.32-.25-.59-.45-.96-.58-.06-.03-.09-.09-.12-.1h.02s-.02-.03-.02-.03c.02-.02.1.02.17.02,0,0,.22.06.35.03.03.06.07.02.11.04.27.08.5.18.75.32.06.02.1.13.18.14.11.16.3.26.48.36v.03c.19.14.38.26.59.39.2.17.46.3.67.45.16.03.25.15.42.17.65.26,1.35.48,2.09.43.21.02.43.02.62-.08.15-.17.42-.23.42-.49-.16-.14-.32.08-.5.03-.52.1-1.05.04-1.53-.08-.21,0-.39-.1-.59-.15-.17-.09-.39-.14-.57-.25-.33-.17-.65-.37-.95-.59l-.02.02c-.21-.17-.44-.3-.64-.48-.19-.15-.38-.32-.58-.4-.4-.22-.85-.38-1.33-.36-.24,0-.45-.02-.65.09-.09-.04-.17-.1-.22-.18.01.02-.02-.03,0-.05.21-.08.41-.18.63-.2.19-.11.43-.1.63-.16.51-.07.96.11,1.43.23.52.2,1.04.43,1.54.68.8.34,1.47.91,2.37,1.06,0,.02.21.07.21.07.1,0,.17.05.25-.02.08.02.19-.03.27-.06.17-.04.39-.04.48-.21.09-.26.27-.46.39-.7.07-.11.02-.27.14-.37.18-.6.2-1.28.25-1.93-.04-.11-.02-.25,0-.39.03-.14.02-.28.02-.43.05-.11.07-.23.09-.34.06-.41.27-.75.45-1.11.13-.3.2-.61.3-.92,0-.07,0-.12.09-.16.1-.14.21-.34.37-.4.22-.21.41-.37.62-.57.03.06.04.13.05.19.14.77-.21,1.42-.59,2.01-.21.28-.29.58-.42.89-.02.25-.16.48-.07.74.06.61-.04,1.14-.05,1.77-.05.44-.17.84-.26,1.25-.14.31-.21.65-.43.91-.11.36-.37.61-.65.85h0ZM70.97,43.43v-.02c-.25,0-.51-.17-.77-.26-.31-.26-.73-.4-.91-.79-.1-.1-.17-.24-.3-.31,0-.07-.07-.09-.07-.14-.22-.22-.23-.6-.32-.89,0-.37-.15-.77-.04-1.13.02-.21.03-.46.1-.67.06-.3.1-.61.15-.89.04-.02,0-.08.03-.11,0-.14.07-.25.06-.38.04-.07.04-.13.05-.21.02,0,.04-.02.04-.03.08.06.18.2.31.17.08-.03.14-.13.14-.23,0-.02-.04-.05,0-.06-.03-.04,0-.14-.06-.15-.07-.47-.61-.76-1.03-1-.45-.21-.81-.6-.79-1.16,0-.09,0-.2.03-.3,0,.02.05,0,.05.03v-.02c.05.19.2.43.38.6.13.09.2.22.36.26.28.24.67.31.86.66.15.19.25.39.34.61.06.28.07.54.1.81.02.27.07.58,0,.88,0,.07,0,.13,0,.2-.09.04.02.13,0,.19-.02.16,0,.35-.04.5.07.53-.13,1.1.07,1.58-.02.13.1.2.07.34.08.15.11.31.26.41.03.06.03.14.12.13.07.05.1.14.19.14.21.02.43.11.66.1.8-.15,1.48-.6,2.22-.9.53-.33,1.06-.66,1.63-.91.44-.29.94-.43,1.42-.65.25-.1.52-.12.78-.21.27.02.6-.08.85.07.16.03.3.12.47.17,0,.18.04.4.06.56-.48.09-.87-.2-1.35-.09-.29.02-.54.18-.8.28h0c-.2.14-.47.2-.69.34-.33.11-.61.33-.88.5-.24.1-.45.26-.71.34,0,.02-.03.02-.05.02-.24.11-.43.24-.66.32v.02c-.08.05-.17.09-.27.12-.09.02-.17.06-.27.08-.06.03-.16,0-.23.04-.25.02-.47.12-.7.17-.07.02-.15.09-.11.17,0,.02.03.03.05.02.14.11.34.14.53.11.34-.06.74-.11,1.02-.25.45-.24.9-.44,1.36-.66.08-.02.16-.11.25-.11.06-.06.14-.08.21-.15.45-.33,1.04-.52,1.53-.8.12,0,.21-.1.34-.09.02.04-.05.06-.02.12-.02-.01-.02,0-.03.02-.02.09-.08.21-.03.3v.17c-.26.07-.52.21-.78.26h0c-.26.1-.51.24-.76.37-.02.07-.15.07-.17.12-.4.18-.7.44-1.08.63h0c-.02.07-.11.05-.14.09-.14.08-.31.2-.46.23v.02c-.22.12-.43.17-.67.25-.61.17-1.26.19-1.88.05h0ZM68.38,38.26s-.05.37-.1.53c0,.03,0,.06-.02.09,0,.25-.06.45-.1.68,0,.08,0,.12-.02.17,0,.26-.05.56,0,.82-5.12-3.68-8.4-9.94-8.02-16.6.08.05.16.11.25.16-.02.23.03.45.07.64.07.11.07.27.15.38.26.56.8.88,1.31,1.17.39.14.72.18,1.14.07.02-.02.08-.05.11-.03.08.3.18.58.32.85.08.09.15.19.2.27.07.17.22.3.32.44.16.22.43.3.57.55.12.34.41.65.76.77.04.06.16.03.14.14-.12.13-.12.32-.21.47,0,.3-.02.7.12.98,0,.1.07.15.09.25,0,0,.02.03.05.03.05.24.25.35.41.49.07.25.25.44.43.61.13.08.29.13.43.18,0,.07,0,.14.02.2.04.22.1.42.17.61.02.15.12.3.2.42.05.14.17.25.23.39-.09.13-.15.3-.21.44-.13.38-.14.78-.03,1.16.02.06.02.12.08.17.16.46.59.81,1.03,1.03.11.14.18.32.18.5.07.33-.04.65-.09.97h0ZM57.61,21.9c.08.17.19.33.36.45.15.09.33.12.5.13-.02.1-.03.19-.05.29-.3,0-.6-.05-.9-.11.02-.25.05-.51.09-.77h0ZM58.64,21.92c-.21.02-.49.04-.59-.17-.18-.22-.19-.55-.22-.84.16-.09.22-.26.36-.37.1-.08.16-.19.22-.3.12-.08.11-.21.22-.26-.16.39-.18.79-.18,1.19.02.27.12.49.18.75ZM58.71,19.04c-.17.14-.28.32-.41.48-.25.23-.36.57-.65.77-.08.15-.22.23-.35.34-.16.1-.3.2-.47.27-.21.07-.4.23-.64.24.14-.31.4-.61.54-.91.22-.29.5-.56.68-.85.8-.9,1.76-1.57,2.77-2.2.63-.26,1.2-.72,1.94-.76.3-.1.67-.13,1.02-.11.22.08.48.07.71.14.37.09.71.25,1.11.24.03,0,0,.04,0,.07-.1.11-.18.24-.23.38-.24.41-.45.82-.59,1.26-.02.11-.08.2-.07.31-.1.06-.08.18-.08.28.1.27.44.39.69.51.09,0,.1.06.18.07.09.23.27.3.41.47-.38.08-.75-.07-1.06-.26-.21-.22-.24-.61-.57-.71-.19.02-.45-.13-.57.08-.25.18-.18.57-.25.85l.02.02c-.02.1-.01.2.02.29.07.24.22.45.34.67h0c.4.35.52.81.79,1.21,0,.12.1.18.1.31.23.57.14,1.31-.08,1.88-.03.13-.14.23-.14.38-.14.18-.22.4-.39.57-.15.22-.3.44-.57.51-.37.1-.86.05-1.15-.21-.3-.23-.69-.49-.78-.9-.02-.16-.1-.3-.07-.48.52.09,1.01-.06,1.35-.39.51-.29.67-.91.82-1.45.05-.65-.03-1.37-.59-1.81-.28-.17-.57-.32-.87-.46-.23-.13-.45-.3-.63-.5-.15-.28-.4-.55-.38-.92-.02-.16.02-.31.11-.44.13-.3.38-.46.64-.61.09-.02.17-.02.23-.08.15-.11.43-.02.53-.22,0-.13,0-.24-.09-.32-.22-.14-.53-.03-.74.06-.34.12-.58.36-.84.58-.15.04-.24.16-.36.22-.34.13-.64.37-.89.61-.04.07-.13.1-.19.17-.04.16-.21.19-.27.36h0ZM76.32,18.86c.25,0,.49-.18.73-.23-.02.14-.17.25-.25.37h-.02s-.07.02-.06.06h0c-.06.04-.07.09-.14.11-.05.09-.2.1-.25.18h0c-.14.14-.34.21-.46.33-.06.03-.16.1-.24.1-.05.06-.13.06-.16.1-.52.2-1.07.32-1.63.19-.17,0-.27,0-.42-.06-.19-.12-.43-.11-.66-.19-.56-.1-1.13-.1-1.69-.02-.05.05-.15.03-.22.06-.3.18-.62.32-.79.62-.15.17-.27.36-.36.57-.06.05-.06.13-.11.19-.02.08-.13.16-.14.24h0s-.03,0-.05,0c0-.11-.03-.3.04-.39.04-.32.23-.57.36-.85.22-.27.54-.46.8-.66.46-.33,1.08-.34,1.65-.43.6-.09,1.31-.06,1.96-.13.34,0,.67-.03,1-.12l.32.03h0c.27.04.55-.03.82-.09h0ZM73.84,14.6c.5-.1.98,0,1.43.17.18.06.34.52.59.23.02-.05.08-.06.1-.11.04-.07.11-.15.15-.22.42-.5,1.07-.75,1.72-.66.16.02.36.05.47.18.11.09.22.21.23.35.02,0,.02.02.02.04,0,0-.02.03-.04.03v-.02s-.03.03-.03.03c-.21-.06-.4.03-.57.07-.71.2-1.23.88-1.67,1.42-.18.17-.34.29-.52.45-.77.55-1.73.06-2.5-.21-.34-.14-.65-.32-1-.46l-.12-.1c.54-.42,1-1.09,1.73-1.21h0ZM72.07,15.18c-.17.07-.39.04-.57.07-.33,0-.6-.21-.91-.28-.45-.25-.94-.43-1.46-.51.09-.15.28-.22.39-.38.34-.19.72-.48,1.15-.43.76.12,1.38-.34,2.21-.16l.3.15c.26.09.51.25.75.41-.25.07-.54.1-.74.25-.45.2-.77.52-1.12.88h0ZM78.43,13.64c-.54-.27-1.29-.22-1.8,0-.07.06-.1.06-.19.09-.21.13-.46.3-.59.52-.08.12-.19.11-.31.06-.28-.14-.55-.17-.83-.26-.09-.18-.31-.29-.44-.42-.37-.25-.78-.41-1.17-.62,0-.3-.1-.52-.2-.78-.05-.14-.09-.28-.15-.41-.25-.59-.74-1-1.16-1.39-.2-.08-.36-.2-.56-.29-.55-.14-1.17-.18-1.64.14-.04.1-.19.11-.22.22-.07.09-.13.19-.17.3-.1.02-.12-.07-.19-.1-.24-.14-.46-.27-.74-.33-.02,0-.07-.03-.06-.09.39-.38.84-.74,1.41-.84.09-.06.18-.15.17-.27-.05-.1-.02-.21-.1-.3.02-.2-.04-.48.05-.67v-.05h0c.1-.32.27-.63.54-.81.07-.12.22-.15.31-.23.14.13.18.35.34.47.3.25.64.5,1.03.64.19.12.42.16.6.29h0c.14.12.27.15.43.22.2.07.41.2.61.24.06.28.1.61.28.84v.03c.14.16.3.38.51.49.11.07.24.17.36.25.06,0,.08.04.14.02.08.03.16.03.24.07.05.09.09.18.15.25.1.19.28.24.44.36.44.25,1.12.34,1.53-.02.21-.11.39-.25.53-.42l.08-.04c.14.15.47.19.46.47.15.29.41.52.69.68.27.02.53.07.81.04.02.02-.01.06,0,.1-.05.02-.02.07-.03.13h0l-.02.17s-.03.1-.04.14c-.07.7-.02,1.4.14,2.09.07.27.22.5.3.78.13.22.22.48.44.66.31.41.8.52,1.28.67v.02h0c-.06.08.07.22-.04.28-.33-.05-.65-.14-.94-.29-.12-.12-.27-.17-.39-.27-.19-.15-.43-.3-.56-.5-.14-.09-.14-.26-.3-.3-.15-.15-.29-.31-.25-.55l-.02-.02c.03-.26-.05-.47-.11-.68-.09-.35-.35-.56-.64-.78h0ZM67.46,10.27c-.15,0-.3,0-.45.01.13-.11.26-.23.39-.34.52-.4,1.06-.77,1.61-1.12,0,.02,0,.04,0,.06-.17.14-.39.22-.57.37-.12.11-.31.22-.45.36-.16.18-.37.36-.48.58.02.05-.04.05-.06.08ZM79.32,7.03c.26.23.51.5.88.54.02,0,.07-.04.1-.02.08.1.07.25.12.37.04.17.03.36.09.52-.01.4.03.86-.1,1.22-.04.14-.05.29-.1.41v.02c-.03.06-.05.13-.07.18v.06s-.03.11-.07.16c-.02.06-.05.12-.07.18-.07.09-.12.19-.14.3-.03.05-.07.1-.09.15-.03.02-.07.04-.05.09v-.02c-.19.23-.61.18-.85.17-.15-.07-.28-.17-.39-.3h0c-.04-.11-.13-.18-.18-.29h0c-.04-.1-.11-.14-.14-.23-.02,0-.02-.06-.05-.08-.15-.32-.47-.46-.81-.55v-.02c-.19-.08-.57.07-.68-.17-.07-.09-.19-.12-.24-.21h0c-.05-.08-.09-.17-.14-.26-.08-.26-.25-.52-.38-.73-.34-.38-.93-.6-1.48-.64-.14-.06-.31-.1-.36-.25.65-.41,1.33-.89,1.97-1.33.04.02.05-.06.1-.06.29-.17.56-.25.85-.45.38-.17.82-.33,1.23-.32.35-.08.74.03,1.09.09l.02.04h0s-.06.07-.06.14c0,.04-.07.06-.07.11-.11.16-.14.38-.13.61,0,.23.12.4.22.56h0ZM80.94,7.91c-.03-.12-.09-.24-.11-.36.2-.09.41.04.59.1.32.14.5.3.78.5.21.18.31.38.48.57.04.11.11.23.11.37.02.02,0,.06,0,.08h0c-.05.37-.1.74-.11,1.11h-.02c0,.13-.07.25-.06.37-.02.06-.04.12-.06.18,0,.14-.11.27-.14.39-.09.1-.14.22-.2.34-.02.19-.19.32-.32.43-.18.18-.34.4-.61.47-.36.03-.73-.03-1.02-.22-.08,0-.14-.08-.16-.15,0-.1-.11-.14-.07-.25.02-.05.07-.07.07-.13.15-.15.17-.38.34-.54.15-.34.31-.69.39-1.06.07-.25.12-.51.18-.77.04-.48.02-.97-.07-1.45h0ZM88.92,8.6c-.36.15-.68.33-1.08.45-.52.14-1.09.3-1.62.13-.14-.04-.25,0-.39-.05-.24.05-.5.06-.71.14-.5.17-.96.46-1.32.85h0c-.18.14-.34.3-.49.43-.07.02-.09.1-.18.09-.04-.05.02-.16.02-.25.03-.53.18-1,.17-1.55.02-.09.02-.21.04-.32.06-.28.1-.57.21-.84.1-.33.19-.7.44-.96.21-.2.45-.35.72-.42.71-.23,1.31.17,1.89.51l.49.44c.26.19.52.46.81.62.29.28.71.42,1.06.67l-.07.05h.01s0,.01,0,.01ZM83.63,10.8c.05-.07.15-.1.18-.18.06-.03.11-.1.19-.14.02-.05.09-.08.13-.12.3-.29.62-.52,1.01-.68.17-.04.34-.12.52-.11.21-.1.41.05.63.02.75.17,1.52-.04,2.22-.34.31-.15.67-.32,1.04-.33.11-.07.25-.07.38-.11.26-.02.51.06.73.15.47.06.73.39,1.03.72v.03c-.34.1-.73-.06-1.11.02-.52,0-1.02.21-1.53.24h-.01c-.29,0-.55.21-.85.17-.09,0-.17.02-.21.11-.07.16.1.19.11.34,0,.06.07.14.03.19-.14.17-.38.26-.56.38-.18.12-.43.14-.64.23-.05-.04-.06.02-.1.02-.1,0-.2.02-.29,0h0c-.49.05-.94-.24-1.44-.22-.84.07-1.66.36-2.4.73-.07.02-.13.02-.19.05,0-.06.07-.1.11-.15.35-.35.68-.72,1.03-1.05h0ZM91.94,10.31c.53.2.94.58,1.41.87.02.08.14.1.14.19-.71.1-1.48.05-2.19.07-.59-.04-1.25.1-1.85-.07-.13-.08-.31-.1-.43-.22-.18-.06-.33-.19-.43-.36-.05-.07-.11-.14-.09-.23.57-.15,1.13-.29,1.71-.34.43-.1.86-.07,1.32-.02,0,.02.02.02.02.03.13-.05.24.06.38.08h0ZM80.81,13.55c.16.07.31.16.5.21v-.02c.36.1.64.14,1.01.09.39,0,.78.02,1.16-.06.39-.02.72-.02,1.1,0,.23.1.48.06.67.23.27.12.51.29.71.5.11.14.23.29.34.43.16.15.3.3.43.49.11.27.28.53.36.81.07.16.07.35.15.52v.06c-.54-.22-1.05-.54-1.63-.61-.45-.08-1-.19-1.45-.05-.78.1-1.57.29-2.35.1-.7-.1-1.2-.54-1.48-1.15-.06-.18-.17-.38-.21-.57-.12-.21-.13-.46-.19-.69-.05-.13.02-.33-.06-.45.02-.25,0-.46.05-.71.14.15.24.39.46.5v.02c.15.14.29.23.44.34h0ZM91.23,16.81c.27,0,.6.02.84-.12h.02s.02-.02.02-.02c.64-.19,1.28-.06,1.89.11.06.06.13.08.22.11.2.19.44.33.65.47.08.1.11.25.2.34l.04.06c-.59.57-.65,1.47-.54,2.29.02.22.1.43.21.62.03.03.06.05.09.06-.37.28-.82.07-1.17-.06-.04-.05-.13-.09-.15-.16-.26-.25-.41-.69-.79-.81-.27-.19-.54-.17-.86-.13-.2-.26-.51-.41-.76-.63-.16-.14-.37-.21-.58-.19-.17.09-.27.24-.43.35-.45.13-.86.09-1.33.04-.19-.05-.38-.12-.54-.22-.13-.12-.04-.33-.08-.48-.03-.23-.09-.45-.14-.68-.09-.25-.29-.45-.34-.72-.09-.15-.07-.35-.13-.52-.1-.34-.13-.71-.37-1-.13-.39-.44-.71-.74-1.02-.08-.13-.19-.24-.27-.36.17.04.35.12.51.2.03.02.02.06.07.05.44.49.92.9,1.39,1.33.21.2.51.33.75.49v.02c.69.34,1.49.49,2.32.57h0ZM94.58,26.14h-.02c-.07.38-.16.76-.31,1.09-.11.14-.16.33-.25.48,0,.08-.09.13-.07.21-.02.03-.03.06-.02.1h-.02c-.04.33-.3.54-.3.89-.09.25-.21.6-.06.86,0,.05.07.07.06.11-.03,0-.08-.02-.11-.04-.01-.03-.08-.04-.07-.08-.18-.19-.31-.44-.36-.7-.11-.45-.06-1.02-.17-1.48-.04-.3-.15-.52-.32-.77-.21-.27-.5-.43-.78-.58h-.03c-.11-.05-.22-.06-.32-.08-.03-.02-.11-.03-.11-.08.09-.23.26-.39.36-.61.12-.22.12-.5.12-.78.03-.02-.01-.06,0-.09.01-.07-.03-.15.03-.2.02-.07.07-.12.08-.18.11-.23.3-.29.5-.41l.02.02c.06-.05.17-.05.25-.07.24-.05.5.11.73.2.24.13.43.34.69.42.48.39.52,1.02.51,1.67-.04.02-.02.07-.02.1h0ZM90.19,33.87c-.02-.2-.1-.39-.15-.59-.14-.52-.56-.92-.89-1.31-.44-.48-.9-.98-1.16-1.58-.13-.23-.18-.5-.22-.78.13-.55.25-1.1.34-1.68.03-.24.1-.49.09-.73h.06c0,.18.06.32.08.48.07.17.02.3.12.46.01.14.08.26.12.4.11.31.37.6.61.85.16.17.31.35.5.47.32.37.71.72,1.03,1.12.22.24.38.52.49.82.2.45.11,1.05-.22,1.39-.13.16-.23.37-.35.52-.14.11-.28.22-.41.33-.03-.05,0-.09-.02-.17h0ZM88.51,38.89c0,.45-.11.91-.21,1.36-.03.04-.09.11-.07.19,0,.05-.05.1-.07.14-.07.21-.21.41-.44.47-.35.03-.76.03-1.07-.1h0c-.15-.04-.28-.13-.41-.15-.32-.18-.75-.41-1.05-.61.22-.22.45-.36.66-.57.6-.46,1.1-1.06,1.62-1.57.34-.41.7-.76,1.01-1.19.15-.21.35-.43.47-.63-.01.14-.11.18-.11.31-.07.19-.14.39-.19.58-.03.27-.1.58-.1.86-.06.3,0,.61-.05.91h0ZM88.3,36.32c-.26.33-.48.66-.75.91-.21.19-.4.5-.62.69-.34.36-.7.77-1.06,1.06-.12.13-.28.22-.39.34-.19.25-.49.38-.71.61-.16.06-.28-.07-.43-.11-.09-.07-.25-.08-.26-.22.27-.22.57-.45.83-.68.22-.25.53-.53.75-.81.01-.08.11-.15.06-.25-.05-.06-.11-.12-.19-.07-.31.27-.64.67-.96.94-.11.07-.2.18-.3.22-.01.06-.1.07-.13.1-.15.15-.32.26-.48.38-.17.06-.37-.06-.52-.11-.12-.04-.32-.07-.39-.17.38-.24.65-.54.98-.81.43-.29.71-.78,1.12-1.08.72-.74,1.26-1.44,1.87-2.23.43-.65.82-1.21,1.19-1.88.03-.08.07-.18.13-.25.04-.1.1-.2.12-.32.07-.14.1-.29.2-.43.05-.07.06-.17.16-.19.08.06.09.12.17.19.17.21.39.4.53.64-.02.14-.14.26-.2.4-.19.3-.37.61-.54.94.02.04.05.09.1.11.07.01.14-.01.19-.06.3-.28.44-.66.72-.93.09.08-.04.14-.05.22-.05.18-.16.33-.23.5-.1.21-.28.41-.34.66-.34.46-.75.91-1.07,1.33-.14.17-.29.34-.42.52-.04.05-.08.1-.11.16-.09.11-.18.17-.25.28-.02.1.02.16.07.22.08.02.17.03.25.02.5-.57.95-1.2,1.43-1.79.18-.1.25-.34.38-.49.13-.24.36-.46.47-.74h0s.02-.02.02-.02c.03.04.02.12.02.18-.03.15-.13.22-.18.36-.15.25-.34.49-.48.74-.24.34-.54.58-.73.94h0ZM79.46,41.37c-.23-.21-.4-.49-.48-.79-.07-.18-.2-.42-.07-.6.25-.07.51-.05.74.06.07-.02.06.05.12.03h0c.43.19.68.75,1.12.96.04.05.08.09.13.11.26.14.54.28.83.39.02.04-.04.1-.03.15-.06.07-.1.15-.12.24h0c-.12.15-.32.25-.53.25-.65-.03-1.27-.32-1.7-.8h0ZM79.51,42.09v.03c-.44.24-1.07.22-1.51.03-.13-.06-.23-.16-.3-.28-.17-.18-.28-.42-.3-.67.34-.27.84-.23,1.28-.18.09.13.11.3.24.41.02.05.07.09.1.15.13.19.31.35.49.52h0ZM80.06,39.62c-.19-.04-.34-.12-.52-.17-.32-.06-.66-.07-.92.08-.14,0-.22-.14-.34-.18-.37-.14-.78-.22-1.16-.14-.29.02-.57.08-.85.18-.17.08-.3-.1-.46-.11-.25-.12-.43-.29-.67-.43-.56-.44-1.03-.98-1.53-1.48-.51-.66-1.02-1.24-1.41-1.95-.22-.5-.46-.88-.65-1.38-.05-.19-.12-.39-.2-.57-.1-.31-.25-.65-.14-1,0-.14,0-.29-.02-.43,0-.1-.07-.14-.04-.25l.08.16s.06.09.06.14c.15.46.47.84.66,1.29.2.38.43.74.68,1.08.09.1.16.22.25.31.15.02.18.18.28.25.57.62,1.24,1.01,1.89,1.52.24.26.55.44.75.71.3.25.52.55.85.78.61.64,1.57.45,2.4.52.71-.03,1.38-.16,1.98-.43.27-.02.47-.17.7-.28.23-.18.43-.39.59-.63l.07-.02c.3-.24.56-.56.81-.8.34-.3.68-.58,1.01-.89.3-.16.51-.45.74-.68.4-.33.69-.82,1.02-1.21.15-.23.33-.46.45-.71.11-.17.15-.4.32-.49.08.05.03.16.11.23.06.06.06.19.15.24.05.11.07.23.13.33.02.15.22.32.02.44-.3.52-.7.99-1.04,1.5-.23.29-.48.54-.71.84-.39.46-.78.88-1.24,1.3-.37.5-.88.85-1.35,1.27-.15.11-.25.22-.43.29-.15.08-.28.23-.47.25-.64.04-1.3.2-1.85.53h0ZM75.37,39.73c-.21.1-.44.22-.66.33l-.02-.02s-.04.02-.03.05c-.06-.03-.06.09-.12.06-.07.06-.17,0-.26-.04-.28-.17-.46-.36-.73-.6h-.01c-.08-.1-.18-.18-.3-.24v-.02c-.09-.07-.21-.13-.29-.2-.11-.03-.22-.07-.34-.07-.06.04-.1.11-.08.18.09.17.22.32.37.45.3.29.59.59.9.84,0,.07-.09.1-.14.12-.16,0-.29-.12-.42-.19-.23-.24-.5-.3-.68-.57h-.02c-.1-.12-.21-.23-.34-.33,0-.07-.02-.03-.06-.08-.08-.13-.22-.22-.33-.34h0c-.11-.11-.21-.27-.33-.38,0,0-.07-.07-.07-.12-.14-.18-.28-.27-.38-.46h0c-.14-.14-.22-.33-.35-.48-.1-.21-.26-.41-.37-.63h-.02c0-.08-.06-.14-.07-.22-.07-.05-.05-.14-.12-.2,0,0-.21-.37-.26-.59-.07-.17-.12-.34-.16-.51-.05-.18-.14-.4-.18-.55.05-.11.14-.21.2-.31h.06c.09.34.28.63.36.96.18.36.33.74.5,1.09.1.03.13.22.26.16.08-.02.12-.11.14-.18-.02-.14-.07-.27-.14-.39-.02-.17-.12-.31-.2-.45,0-.09-.1-.1-.09-.19-.02-.11-.1-.23-.12-.36-.08-.19-.17-.44-.25-.63-.02-.16-.08-.3-.1-.46.22-.19.46-.42.68-.61.07.1.04.23.14.32.14.69.53,1.27.82,1.89.51.78,1.05,1.61,1.76,2.29.39.45.81.87,1.29,1.23.18.15.39.28.56.42,0,.02,0,.06-.02.06h0s0,0,0,0ZM70.15,38.47c0-.28-.07-.52-.03-.81l.03-.04c.32.43.61.89,1.01,1.32.18.22.37.48.61.66.34.39.72.8,1.18,1.08.07.08.17.13.24.18-.11.15-.3.21-.45.27-.06.07-.16.09-.24.13-.36.13-.63.34-1,.43l-.09.07c-.27.11-.63.12-.89-.02-.07-.02-.07-.1-.14-.1-.04-.03-.09-.08-.14-.11-.21-.44-.16-.93-.15-1.46.05-.48-.02-1.08.06-1.58h0ZM68.14,34.59s-.05,0-.02.03c0,.02-.02,0-.03,0-.07-.09-.06-.21-.1-.34-.07-.21.02-.56-.26-.66-.15-.15-.26-.34-.32-.54-.02-.08-.04-.16-.09-.23-.02-.24-.1-.47-.04-.7.02-.19.12-.34.14-.53.02-.02.04-.02.04-.04.05-.07.05-.18.1-.25.35-.48.84-.95,1.4-1.19.34-.12.6-.3.93-.43.04-.09.15-.07.19-.15.11-.07.15-.18.25-.24.04.04.06.12.1.18.05.32.16.61.25.92.04.2.16.41.07.63-.02.18-.04.38-.17.51-.11.18-.24.27-.43.36,0,.06-.08.05-.1.09-.7.47-1.28,1.11-1.68,1.85v.06s-.05.08-.06.12c-.07.16-.11.31-.14.48h0s-.02.04-.04.04h0ZM67.5,28.31c.32-.04.66-.07.89-.3.36-.32.58-.78.72-1.22.05-.04.06-.12.08-.19.02-.03.12.15.14.26.02.34-.02.6-.16.86-.17.29-.52.5-.72.79-.15.16-.35.24-.51.35-.34.27-.69.54-1.05.79-.26.27-.56.55-.79.84l-.02.02c0,.05-.03.1-.06.14-.02.05-.04.1-.08.1,0-.02-.1-.08-.1-.15-.11-.31-.08-.74.09-1.07,0-.06.04-.12.08-.17.27-.03.61.05.87-.07.21-.12.34-.29.44-.51,0-.07.05-.09.07-.14.04,0,.05-.07.07-.11,0-.08-.03-.19.04-.24h0ZM72.82,20.35c-.05.08-.16.12-.25.18-.22.1-.32.37-.51.48-.23.14-.49.3-.67.52-.18.14-.25.34-.46.41-.22.22-.35.49-.54.68-.24-.09-.41.22-.67.1-.1-.08-.05-.23-.04-.36.04-.14.07-.27.12-.39.07-.25.27-.45.33-.71.18-.3.4-.59.7-.77.11-.03.17-.11.28-.14.4-.13.82-.07,1.26-.09v.02c.15,0,.33.05.46.07h0ZM73.69,20.55c.55.04,1.08.08,1.6-.1.06,0,.04.08.03.09-.1.17-.29.3-.39.45-.11.12-.25.21-.39.29-.23.11-.45.24-.66.38h-.04c-.55.25-.78.87-1.09,1.32-.05.14-.13.23-.19.36-.08.12-.1.23-.24.29-.04.03-.09.05-.14.07-.07.08-.18.08-.26.07,0-.04-.05-.03-.07-.07-.09-.75.16-1.47.46-2.11.11-.16.23-.34.35-.48.33-.21.68-.39,1.05-.55h0ZM71.55,22.24c-.07.21-.14.42-.16.66-.06.27-.05.58,0,.85.06.24-.2.34-.29.52-.07.07-.14.13-.22.19-.1.09-.22.14-.35.21-.1.04-.09-.06-.11-.1,0,0-.02-.06-.03-.09.06-.2-.18-.31-.1-.49.07-.36.29-.61.39-.95.27-.34.47-.74.84-.96.1,0,.01.09.03.17h0ZM70.01,23.23l.03.06s-.05.1-.07.16v.05s-.03.1-.06.15c-.09.24-.11.5-.15.77-.02.02-.06.07-.06.1-.19.09-.25.34-.49.34-.36-.02-.79-.07-.96-.4-.1-.34.09-.61.25-.89.22-.16.47-.47.81-.39.21-.02.45.1.69.05h0ZM69.82,26.81s0-.09-.02-.11c-.07-.21-.27-.68-.33-.7,0-.1.07-.15.11-.24.03,0,.07-.06.07-.06,0,0,.08,0,.08-.02.01,0,.03.01.05.01,0,.03.07.02.07,0,.07.07,0,.21.06.3-.02.34.02.61.05.93.04.06,0,.22.03.31,0,.06-.06.04-.09.03-.1-.12,0-.34-.08-.47h0ZM66.4,31.04h0c.15-.47.55-.73.88-1.07.34-.26.71-.53,1.04-.8.14-.05.21-.17.35-.24.29-.26.5-.49.77-.78.11-.12.2-.29.27-.42.2-.02.25.17.34.29.12.3.15.65-.02.93-.02.04-.08.05-.07.1h0c-.27.33-.73.44-1.12.65-.33.14-.69.28-.92.54h-.03c-.31.31-.73.55-.84,1.04-.07.14-.08.3-.16.43,0,.06-.02.13-.06.16-.08.02-.17-.02-.23-.06-.04-.07-.07-.08-.09-.18-.1-.18-.15-.38-.12-.58h0ZM68.67,34.77c.04-.15.1-.3.12-.45.11-.23.15-.41.32-.61.02-.04.04-.07.07-.1.4-.55.86-1.01,1.46-1.38l.06.03v.38c-.02.06-.03.14-.07.2v.04s-.06.07-.06.11c-.39.52-1.03.84-1.37,1.42-.12.13-.2.28-.24.46-.07.06-.02.19-.09.24,0,.06-.02.1-.02.17-.05.02-.02.05-.06.07-.21-.07-.08-.38-.11-.59h0ZM87.13,31.52c.08-.21.15-.42.26-.63.04-.11.07-.25.16-.33,0,0,0,.02,0,.03.04.02.04.08.08.11.12.31.35.58.53.86,0,.12-.09.21-.1.34-.04-.02,0,.02-.03.03-.05.09-.11.18-.13.29-.07.14-.14.29-.21.43-.02.1-.11.15-.16.24-.11-.09-.21-.18-.23-.31-.07-.15-.11-.31-.14-.48-.11-.18.04-.39-.05-.58h0ZM87.71,19.61c-.07.1-.08.23-.16.31-.17-.35-.57-.59-.75-.96-.45-.42-1.03-.65-1.62-.81-.9-.25-1.81-.3-2.67-.65-.15-.05-.24-.18-.34-.27-.06-.14-.07-.28-.13-.42.01,0,.01-.02.01-.02.59.04,1.22-.06,1.78-.14.65-.15,1.29-.13,1.95.02.34.1.59.32.94.42.09.06.16.09.26.13.22.16.43.36.6.59.02.1.11.18.11.3.13.48.11,1.01.01,1.51h0ZM90.86,26.37c.03.08.05.19.1.27-.03.1.07.27-.09.27-.23,0-.46-.08-.64-.22-.17-.14-.31-.29-.52-.37-.03-.02-.05-.09-.11-.07-.12.06-.21.18-.23.32-.15.21-.2.48-.25.74v.11h-.02s-.02.07,0,.11c-.02.05-.04.09-.05.15,0,.18-.03.33-.02.5-.02,0-.02.02-.02.02v.02s-.02,0-.02.02c-.02-.02-.03-.04-.04-.07-.02-.07-.06-.13-.1-.19,0-.14-.08-.29-.07-.45-.03-.04-.04-.1-.03-.14.01-.34-.02-.69.03-1.01-.02-.19-.02-.38-.04-.61,0-.29-.05-.59-.22-.82.1-.2.18-.45.38-.6.1-.18.29-.11.42-.26.5,0,.93.17,1.31.42.22.18.43.4.55.68.05.03.11.07.08.14h-.01c-.15.18-.19.44-.41.56-.03.16-.03.32.03.47h0ZM91.23,30.93c-.18-.22-.36-.44-.57-.66-.28-.28-.52-.53-.77-.8,0-.06.02-.1-.03-.16-.11-.23-.23-.41-.27-.67-.01-.12-.11-.25-.03-.34.05,0,.06.08.08.09.12.12.22.3.39.38.03.08.14.1.19.16.4.38.88.72,1.08,1.25.24.35.34.82.25,1.24h-.02s-.02-.02-.05-.02c-.04-.17-.17-.32-.25-.49ZM91.54,29.63c-.37-.58-.99-.93-1.43-1.41-.16-.17-.23-.42-.34-.62.02-.14-.07-.27,0-.39.07-.14-.13-.13-.07-.26.3.06.52.34.85.41.22.07.34.03.57.04.04.05.1.02.16.02.08-.03.12-.08.14-.17.02-.05.02-.14.03-.22.02-.14-.02-.3.02-.4.22.04.32.21.53.33.23.22.35.53.39.88.09.42.02.89.14,1.29.02.15.07.29.14.42-.01.06.04.1.07.14.06.14.18.22.23.35-.2.05-.43,0-.62,0-.29-.1-.75-.01-.81-.42h0ZM94.1,23.81c-.21-.1-.36-.23-.57-.34-.35-.18-.82-.29-1.19-.15-.02-.02-.06.02-.07.03,0-.02-.02,0-.02,0-.14.14-.39.18-.48.37-.07.02-.07.08-.09.12-.05.07-.11.17-.17.24.03.09-.09.07-.07.14v-.02c-.03.06-.1.07-.08.13h0s-.02.1-.07.14c-.02.03-.09-.02-.11-.04-.07-.07-.15-.1-.19-.16h-.02c-.04-.07-.13-.1-.19-.17-.28-.17-.61-.34-.97-.4-.2-.03-.41-.05-.62-.06-.22.12-.42.25-.6.42-.02.06-.1.1-.15.14-.03.02-.06.06-.09.08-.02-.02-.05-.02-.07-.02v-.11s-.04-1.01-.18-1.49c-.03-.25-.05-.51-.1-.75.02-.3-.01-.64-.1-.91.02-.08.11-.1.1-.2.11.02.22.15.34.14.38.24.94.22,1.38.19.36-.05.66-.25.93-.49.03-.06.09-.13.14-.19.07.04.22.06.26.17.27.17.41.46.55.76.07.03.07.12.09.18-.03.15.11.25.09.4.02.07.06.11.13.12.25-.08.27-.4.45-.57.05-.24.12-.5.05-.75-.04-.23-.1-.46-.17-.68.07-.04.18,0,.26,0,.2.09.39.23.46.43.09.13.26.21.25.39-.03.02-.02.07-.01.1.04.41.08.83.34,1.16-.03.08.05.11.04.17.1.17.25.36.33.54.17.18.27.42.54.47.07.1.18.03.23.15.16.07.34.05.52.1.13-.06.3.02.43-.06.02,0,.02.02.02.03-.06.09-.13.18-.2.26-.36.37-.94.18-1.36.01h0ZM87.99,20.09l.02-.13s.04-.06.05-.1c.04-.15.06-.31.12-.46.35.18.83.26,1.29.26.39.02.73-.03.97-.29.12-.03.22-.09.31-.18.11.04.17.11.27.17.16.16.39.27.54.45,0,.12.11.16.14.27.08.06.09.18.17.24.06.17.09.37.09.53,0,0-.02.02-.02.02.01.03-.02.02-.03.03-.11-.12-.18-.27-.3-.4-.11-.18-.3-.28-.43-.42-.12-.08-.27-.16-.33-.31-.04-.06-.12-.09-.2-.06-.17.07-.15.24-.25.37v.06c-.22.39-.77.57-1.25.49-.19-.05-.41,0-.57-.15-.25-.04-.37-.28-.6-.4h0ZM77.18,10.57c-.27.19-.56.46-.93.36-.29-.1-.69-.24-.83-.53-.06-.23-.34-.34-.57-.37-.22-.12-.46-.22-.62-.4-.13-.17-.26-.34-.29-.57-.07-.23-.09-.45-.05-.71.02-.1.12-.07.16-.02.09.03.16.08.24.13.18,0,.44.02.61.1.03-.03.02.02.06.02.5.07.8.55.98.99.06.34.39.5.57.74.2.18.47.1.72.14.06.05-.05.07-.05.12h0ZM74.69,6.73c-.23.13-.39.26-.61.38-.56.4-1.3.7-2,.61-.24.03-.45-.11-.64-.24.09-.04.18-.09.28-.13,1.17-.55,2.47-.95,3.83-1.2-.28.2-.59.34-.85.57ZM73.33,8.4c-.05-.02-.13-.06-.2-.1-.07-.02-.13-.07-.18-.1.14-.06.3-.1.46-.17v.26s0-.02,0-.02l-.02.02s-.03.06-.05.1ZM78.86,16.62h0c.03-.16.11-.26.12-.43h.02c.02-.07.06-.16.08-.22.09.04.18.11.24.19.04.17.26.2.31.36.27.28.59.47.92.65.32.13.68.24,1.04.29.07-.03.16-.02.22-.02.02.22.27.25.38.41.1.05.21.08.32.14.45.18.92.29,1.41.38.62.13,1.36.11,1.9.5.4.16.69.38.9.76.27.22.41.58.54.92.07.14.04.34.1.49.02.19.08.35.07.57,0,0,.03.07.02.1v.1s-.04.03-.04.07c-.09-.02-.15-.1-.21-.17-.16-.19-.25-.38-.46-.53-.29-.34-.74-.62-1.09-.87-1.31-.75-2.88-1.01-4.42-1.21-.92-.11-1.82-.13-2.68-.26-.21-.06-.5-.09-.6-.3,0-.14.13-.19.14-.34.16-.3.41-.6.49-.93.04-.05.05-.12.09-.18,0-.04.06-.06.05-.11h0c.03-.12.1-.23.12-.35h0ZM78,19.12c.18.07.39.1.58.15.59.03,1.25.1,1.85.13,0,.03.02,0,.03.02l.02-.02c.39.05.8.06,1.2.14h0c.58.11,1.17.15,1.76.34.47.13.93.27,1.39.45.2.1.45.21.61.36.37.23.71.51,1.03.83.07.1.15.18.22.29.16.17.25.35.38.52.07.15.2.27.22.44.09.07,0,.21.11.28-.02.09.09.1.13.14l.13.02c.02.46.1.98.08,1.48.07.76-.05,1.48-.08,2.25-.02.07-.02.16-.02.21-.02.4-.12.86-.17,1.29-.06.26-.11.5-.19.76-.05.36-.2.69-.25,1.05l-.15.55c-.04.1-.11.22-.13.34-.08.16-.17.36-.26.51-.02.07-.06.12-.09.18-.15.26-.39.49-.45.79-.02.05-.07.09-.07.14-.06.04-.07.1-.12.15,0,.06-.07.12-.1.17-.41.52-.74,1.06-1.26,1.49-.11.15-.27.28-.39.41-.02,0-.03,0-.03.02-.05.04-.1.07-.16.1-.33.34-.69.58-1.04.92-.46.37-.92.85-1.39,1.25-.32.28-.71.47-1.12.54-.89.27-1.81.21-2.71.17-.43-.06-.71-.35-.98-.62-.18-.21-.44-.42-.61-.66-.25-.26-.62-.51-.87-.76-.1-.06-.21-.13-.3-.2-.11-.13-.25-.2-.39-.31-.48-.35-.92-.76-1.31-1.21-.15-.05-.17-.2-.28-.3-.04-.13-.16-.19-.19-.34-.06-.11-.15-.24-.21-.37,0-.06-.06-.09-.08-.15-.15-.28-.3-.61-.47-.91-.12-.21-.15-.44-.25-.65-.07-.19-.17-.38-.22-.57-.09-.18-.17-.37-.23-.57-.22-.8-.5-1.63-.58-2.49-.04-.04,0-.13-.05-.17-.05-.42-.1-.74-.11-1.12-.07-.43-.04-1-.02-1.42.32-.11.65-.26.88-.55.14-.09.22-.23.37-.33.09-.03.19-.05.29-.06-.02.13-.14.24-.2.36-.14.28-.41.53-.4.89.07.11.15.18.28.2.16.02.29.04.46.02-.06.04-.02.1-.02.14.08.08.19.03.29.03,0,.04-.02.11,0,.15.54.64,1.28.95,2.15.95.04.07.13,0,.19,0,.04-.02.08-.02.13-.02.69-.14,1.36-.4,2.03-.61.15-.11.38-.18.34-.4-.26-.39-.7-.58-1.06-.82-.25-.08-.52-.2-.78-.23-.51-.07-1.03-.04-1.53.1-.49.17-.93.42-1.39.59-.04,0-.09.03-.12.02-.02-.04.05-.06.08-.08.35-.24.34-.23.66-.46.03-.02.48-.3.53-.32.42-.2.66-.32,1.25-.26.18.07.38.1.54.19.05,0,.1-.01.13-.05.01-.2-.07-.26-.22-.39-.29-.07-.5-.16-.91-.13-.27.06-.54.08-.8.21-.15.05-.28.12-.4.21-.25.12-.3.23-.53.34-.1.1-.35.25-.45.35-.13.04-.32.13-.44.11,0-.12.11-.17.14-.3.03-.04.09-.06.07-.13.1-.12.22-.26.29-.4.24-.21.39-.38.71-.55.49-.21,1.03-.19,1.42-.2.88.08,1.4.2,1.97.17.39-.07.81-.1,1.13-.36.06-.06.05-.14.08-.21-.07-.09-.15-.09-.24-.04-.52.26-.71.2-1.16.23-.44.02-.77-.03-1.1-.05-.46-.06-.81-.2-1.26-.11-.14-.02-.47.15-.6.11,0-.48.42-.89.69-1.31.28-.21.57-.42.91-.55.2-.16.48-.26.61-.5.2-.14.33-.38.48-.57.05-.11.05-.22.05-.35.02,0,.02-.02.02-.03v-.03c.35-.21.66-.44,1-.66.02-.03.1-.08.1-.13.16-.13.36-.28.47-.45.1-.11.14.03.24.07,0,.11.15.12.25.17h0ZM72.61,25.89c.09-.02.2-.1.25-.02v.22s-.06,0-.07-.04h0c-.07-.04-.12-.1-.18-.16h0ZM75.8,25.83c.05.16.05.42-.11.56-.16.14-.6.21-.78.25-.29.04-.58.03-.87-.03-.23-.06-.52-.13-.74-.27,0,0,.07-.11,0-.28-.03-.08-.07-.24.01-.37,0-.01.73-.42,1.3-.44.59-.02,1.11.19,1.21.22.05.01-.12.06-.02.36h0ZM76.13,25.62c-.07-.09.54.36.58.42.02.03-.41.16-.5.18,0,0,.04-.44-.08-.6h0ZM73.22,18.58c-.98.11-2.12.02-2.93.62-.25.15-.46.42-.77.5-.28.18-.63.25-.92.44-.65.17-1.42.34-2.08.08-.34-.03-.64-.22-.86-.45.24-.03.48,0,.74-.06.5-.07.96-.27,1.37-.57.43-.24.78-.61,1.22-.86.44-.4.98-.67,1.56-.79.46-.09,1.03-.14,1.48.03l.04.03c.21.02.34.13.54.15.19.13.32.23.54.3.25.16.53.32.79.46v.03c-.19.1-.47.05-.72.08h0ZM65.75,20.4c.09,0,.14.11.21.12.61.25,1.36.44,2.07.28.36-.1.75-.12,1.07-.31h.04c-.02.14-.11.25-.1.42-.03.07-.02.14-.05.21-.1.51,0,1.04.14,1.49-.06.07-.2.06-.28.11-.51.23-.94.75-.99,1.35.02.32-.09.66.13.89.08.22.28.34.49.41.1.19.36.14.53.2.02.11-.1.17-.11.28-.06.05-.05.13-.12.17.02.05-.04.05-.03.09-.07.25-.14.5-.23.73-.07.2-.18.42-.3.58-.2.26-.39.48-.75.47-.25.03-.31-.22-.47-.33-.07-.14-.12-.27-.18-.44-.06-.3-.18-.63-.49-.76-.15-.03-.3-.11-.47-.06-.22.11-.43.25-.51.5-.05.22.06.45.13.65.25.4.64.75,1.15.75.11.03.2-.03.3-.02,0,.14-.04.27-.12.38-.05.16-.14.36-.34.37-.17,0-.45.06-.62-.05-.5.02-.69-.42-.91-.77-.46-.26-.69-.67-.98-1.1-.16-.33-.31-.66-.29-1.05.18-.34.53-.65.64-1.04.03-.1.1-.18.12-.3.07-.1.05-.24.12-.34.14-.57.23-1.31,0-1.88-.1-.43-.33-.81-.53-1.16-.14-.35-.51-.57-.61-.95-.05-.08-.07-.18-.1-.27.07-.16.02-.34.13-.48h0s.05-.06.05-.06c.09.02.08.12.14.16.1.28.34.52.57.68.06.05.15.06.2.12.35.19.78.18,1.17.11.05-.04.17-.06.19-.14h0ZM66.44,27.62s-.09.02-.12,0c-.24-.14-.38-.38-.48-.64.03-.13.12-.19.23-.27.22.04.17.32.25.48.02.14.06.29.11.42h0ZM60.16,18.99c-.36.09-.73.17-1,.44-.05-.02-.05.06-.06.03.14-.23.36-.44.54-.64.17-.1.3-.28.46-.41h0c0,.2,0,.39.04.58ZM59.19,20.19c.25-.22.57-.42.9-.53.1-.04.21.04.29-.04.07,0,.05.06.08.09.13.24.3.48.52.64v.02c-.18-.1-.44-.08-.64-.06-.24.07-.44.24-.56.46,0,.18-.03.4.16.48.09.02.19,0,.25-.06.07-.07.06-.19.17-.22.1-.06.24-.1.35-.06.13.11.15.25.13.41-.05.05-.06.12-.09.18-.18.29-.51.54-.89.52-.39-.05-.65-.34-.76-.7,0-.38-.11-.78.1-1.11h0ZM59.69,22.59c.7.08,1.25-.3,1.55-.9,0-.09.09-.14.07-.24,0-.08.05-.14.03-.24-.03-.17-.07-.39-.15-.56-.05-.08-.1-.16-.15-.24.27.15.55.32.85.46.3.15.64.37.7.73.15.52-.07,1.07-.31,1.52-.28.24-.53.51-.91.55-.4.02-.84,0-1.12-.27-.27-.17-.58-.36-.55-.75v-.05s0,0,0,0ZM76.01,42.19c.38-.12.73-.31,1.15-.29.1.08.1.25.21.3.12.27.39.45.66.55.2.09.46.09.71.11.3,0,.63-.05.89-.21.16-.03.18-.18.33-.26.27.2.63.25.98.25.15.07.33.08.5.06.35-.11.61-.38.8-.7.07-.12.14.02.19.06.05.04.13.06.15.11.32.29.61.57.98.82.14.08.31.18.46.27.13.02.25.09.36.15-3.29.91-7.09.88-10.39-.02.68-.38,1.31-.86,2.03-1.19h0ZM97.04,19.38c-.36.14-.6.36-.92.61-.32.22-.57.49-.93.62,0-.25-.2-.44-.2-.69-.08-.25-.06-.48-.06-.74.03-.32.07-.64.28-.89.1-.22.35-.3.52-.45.21-.07.44-.12.66-.18h.3c.26.12.42.33.58.55.06.17.2.26.24.45.11.14.11.31.2.46.02.03.05.06.04.1-.25,0-.51.02-.71.15h0ZM95.84,17.31c-.09.08-.22.07-.32.15-.03-.04-.05-.09-.06-.14-.12-.18-.35-.27-.5-.39l-.02-.02c.23-.02.46.03.7.04.17.08.35.16.54.22l.07.07c-.16,0-.26.09-.42.08ZM93.62,16.31s-.04-.02-.07-.02h-.01c-.44-.18-1.02-.06-1.48-.02-.42.21-.86.1-1.3.06-.39-.09-.76-.16-1.14-.27-.35-.06-.55-.28-.84-.43-.21-.18-.47-.3-.61-.52-.05-.04-.1-.08-.11-.13-.3-.27-.51-.51-.8-.78-.07-.11-.18-.19-.29-.28-.1-.04-.17-.06-.25-.14.21-.06.43-.17.64-.18.41-.18.81-.23,1.25-.3.43.02.86.07,1.28.17,0,.03.04,0,.05.02.23.09.49.11.75.13.05.04.14,0,.2.03.61.1,1.21,0,1.88.07.43.02.83.14,1.23.27.2.07.44.12.59.29.23.14.43.32.66.48.13.24.34.37.48.61.21.23.4.43.67.61-.68.73-1.86.54-2.77.32h0ZM99.29,13.36h.08c.2.28.37.58.53.89-.06-.05-.13-.1-.19-.16-.21-.21-.44-.41-.69-.59l.26-.14h0ZM97.96,13.18c.39.21.72.51,1.08.77v.02c.13.13.3.19.41.35.22.13.38.36.58.51v.02c.33.27.46.65.79.95.05.18.25.3.26.51.1.04.04.17.13.22.1.17.17.34.17.55-.34-.28-.61-.59-.95-.89-.25-.28-.53-.54-.82-.78-.22-.21-.5-.37-.7-.58-.38-.3-.82-.48-1.21-.74-.03-.02-.05-.04-.08-.06-.71-.42-1.56-.63-2.37-.86-.44-.12-.98-.1-1.4-.2-.74-.1-1.48-.18-2.22-.24-.65-.07-1.3-.17-1.9-.4-.25-.19-.57-.26-.79-.46-.19-.12-.36-.28-.49-.47v-.08h.01s0-.02,0-.02c.21.14.39.27.61.39.52.27,1.24.18,1.8.18.03.05.06,0,.09,0,.51-.06.98-.03,1.48-.06l.02.02c.25,0,.51.02.74-.02,0,0,.3-.02.45-.04.11.02.28,0,.39.07.29.08.68-.05.97.1.34.06.71.14,1,.29.18.11.41.12.58.24.19.06.3.09.46.21.32.14.64.25.9.51h0ZM96.05,11.92h0c-.21-.08-.41-.16-.62-.22-.04-.06-.09-.11-.13-.17l.66-.57h.07c.47.38.8,1,1.16,1.45-.37-.17-.74-.34-1.14-.48h0ZM82.12,1.88c1.08.1,2.12.31,3.12.6-.06.31-.15.6-.24.9-.64-.17-1.33-.27-1.99-.43l-.05.03c-.07.62-.22,1.22-.28,1.82.57.11,1.16.17,1.71.34.59.15,1.18.35,1.76.53l.06-.03.9-2.53.07-.04c.79.27,1.56.6,2.3.97.22.13.48.21.65.41l-.4.77c-.66-.27-1.28-.63-1.94-.9-.28.55-.46,1.14-.69,1.7,1.09.45,2.13,1.04,3.14,1.66l.07-.06c.41-.77.93-1.5,1.4-2.24h.11c.89.56,1.74,1.18,2.54,1.89v.08c-.16.23-.35.45-.55.64-.56-.42-1.12-.84-1.64-1.24-.37.49-.71.99-1.05,1.5l.08.1c.98.65,1.84,1.47,2.71,2.29.67-.57,1.26-1.25,1.95-1.86l.1-.02c.83.82,1.57,1.73,2.2,2.71-.24.19-.49.39-.75.5-.46-.57-.84-1.18-1.37-1.71l-1.35,1.19.04.05c-.13-.06-.26-.13-.39-.17-.23-.07-.39-.26-.58-.38-.19-.17-.43-.29-.6-.45-.17-.11-.34-.2-.46-.34-.56-.43-.99-1.14-1.65-1.49-.41-.12-.84-.33-1.25-.27-.58-.27-1.13-.54-1.63-.92-.17-.16-.34-.29-.53-.42-.71-.72-1.62-1.23-2.67-1.24-.16.02-.34.09-.49.06-.45-.78-1.38-.85-2.14-1.13-.22-.09-.4-.25-.52-.45.11-.81.21-1.62.32-2.43h0ZM81.27,4.47c.09.03.15.18.23.24.66.8,1.94.39,2.48,1.35,0,.02,0,.06-.03.06v.02c-.25.2-.43.45-.61.72-.05.12-.1.26-.12.39-.02.02-.05.06-.05.09-.03.04,0,.12-.04.15-.02,0-.02,0-.03.02-.02.03,0,.12-.05.14-.03.11-.04.21-.11.31.02.04-.06.05-.03.08-.1.04-.14-.09-.21-.12-.47-.43-1.08-.78-1.75-.89-.27,0-.56.03-.79-.02,0-.03-.03-.02-.06-.03-.04,0-.08-.06-.14-.06-.17-.07-.29-.2-.34-.38-.06-.42.19-.77.51-.93.39-.19.73-.43.96-.82.07-.09.1-.23.16-.32ZM72.22,2.99v-.17c.94-.32,1.89-.59,2.92-.73.08.3.16.59.2.9-.59.17-1.19.3-1.8.41l-.08.07c.17.57.3,1.16.5,1.74,1.08-.22,2.19-.52,3.36-.59l.11-.11c-.11-.85-.18-1.76-.25-2.63l.07-.07c.98-.13,2.06-.13,3.03-.07l.03.04c.07.3.03.61-.03.91-.71.03-1.33-.07-2.03.01,0,.58.01,1.21.08,1.84.77-.03,1.54-.02,2.3.02-.02.04-.05.09-.07.13-.17.27-.51.48-.77.52-.25-.14-.54-.18-.82-.25-.11-.02-.25,0-.34-.02-.61.02-1.25.14-1.73.42-.12.07-.24.13-.36.19-1.91.27-3.77.82-5.52,1.65-.12-.13-.16-.32-.26-.45-.11-.06-.04-.2-.14-.28h0c.77-.36,1.56-.67,2.37-.96-.2-.86-.53-1.67-.78-2.52h0ZM62.92,8.53c.9-.95,1.79-1.72,2.82-2.38.2.24.38.46.53.71-.2.21-.48.36-.69.55-.38.31-.79.59-1.09.97.42.46.8.93,1.21,1.33l.37-.32c.85-.77,1.84-1.36,2.77-2.02-.48-.78-.98-1.55-1.42-2.35.93-.62,1.91-1.07,2.9-1.49.2.25.34.58.38.89-.61.3-1.25.56-1.86.88.27.55.55,1.11.85,1.64.07-.04.13-.07.2-.1-.23.21-.44.42-.56.71-.1.23-.21.47-.27.73-.98.61-1.9,1.29-2.76,2.05-.06,0-.12,0-.19.02-.56.07-1.07.3-1.58.49.11-.11.21-.24.31-.35-.59-.59-1.34-1.35-1.93-1.95h0ZM62.71,12.28c.68-.4,1.36-.76,2.09-1.04.78-.36,1.67-.5,2.6-.43.23.02.45.11.68.14.45.11.69.54.86.92-.02.07.07.06.04.13-.04.02-.08.03-.12.03v-.02c-.48-.09-.97-.31-1.44-.36-.89-.1-1.76-.02-2.61.12-.19.08-.41.1-.6.18-.19.02-.38.13-.58.18-.45.24-.87.41-1.34.64-.08.06-.17.11-.27.14.13-.3.48-.35.68-.63h0ZM69,12.69c-.16.29-.35.56-.58.81-.28.28-.63.48-1.01.58-.29.13-.59.2-.89.28-1.25.27-2.51-.05-3.82-.06-.5-.06-1.02,0-1.53,0l-.03-.02s.02-.06.08-.07c.3-.3.59-.59.96-.81.3-.18.61-.31.93-.48.23-.13.49-.2.71-.35.12-.02.23-.05.34-.11.28,0,.51-.16.78-.19.77-.16,1.56-.21,2.35-.13.36.02.71.2,1.05.25.19.08.37.07.54.19.04,0,.07.02.11.02,0,.05.03.07.02.11h0ZM59.34,13.15c.53-1.05,1.27-2.03,2.06-2.97h.11c.22.2.48.32.63.55-.46.6-.9,1.2-1.34,1.81v.07c.15.11.3.2.44.3h0c-.18.18-.35.36-.47.58.06.17-.14.34.03.46,0,.01-.02.03-.03.04l-1.43-.83h0ZM58.26,15.14c.1-.03.21.04.31.07.09.07.22.11.33.16-.21.15-.4.3-.61.46-.21.2-.41.39-.61.58.18-.43.37-.85.58-1.27h0ZM56.28,19.45c.05-.26.19-.5.29-.75.05-.04.05-.11.1-.16.07-.24.28-.39.36-.63.09-.08.14-.22.24-.3,0-.06.07-.05.07-.1.29-.45.64-.69.98-1.08.32-.25.64-.51.98-.73.21-.16.42-.35.67-.45.18-.15.43-.22.64-.31.34-.13.75-.16,1.11-.14.61-.07,1.29.04,1.91.06.1.04.21,0,.32.03.69.09,1.37.17,2.06.08.58-.03,1.13-.22,1.66-.4.31-.15.64-.26.85-.51.34-.28.59-.68.8-1.07,0-.17.16-.26.11-.45-.03-.2.15-.4.04-.61,0-.15-.06-.3-.1-.42-.06-.06-.09-.13-.13-.2-.02-.05-.07-.11-.05-.17.34-.03.36-.53.71-.55.38-.05.81,0,1.13.18l.07.04c.31.21.61.49.85.79.21.19.24.46.39.66.09.14.1.31.18.45.04.08.07.16.09.23-.56,0-1.05.18-1.57.25-.38-.03-.78-.07-1.08.11-.21.06-.41.19-.58.25-.04.07-.13.09-.18.14-.18.22-.43.34-.58.55-.14.07-.17.22-.3.31-.06.12-.21.2-.23.33-.1.06-.02.17-.02.22.05.03.12.16.24.11.33-.1.66-.25,1.03-.16.61.14,1.13.51,1.72.66,0,.2.07.33.23.44.4.05.71.22,1.08.37.1.09.17.09.28.15.17.02.31.16.48.21.32.1.61.27.94.34.1.02.14.1.25.08.17.04.36.08.53.08.43.03.91-.1,1.24-.41.12-.12.3-.17.39-.34.24-.15.34-.4.53-.61.21-.18.39-.41.63-.55.24-.17.59-.31.89-.18.09.05.2.09.24.18-.02.03-.09.1-.06.2,0,0,0-.02-.02-.02-.02.11-.09.23-.12.35.02.18-.15.25-.13.43-.04.05-.06.1-.07.16-.07.09-.06.17-.13.26-.07.19-.25.32-.33.53-.15.14-.25.29-.43.38-.05.05-.12.09-.16.14-.24.13-.49.24-.75.32-.36.14-.81.26-1.18.18-.52-.03-1.03-.29-1.48-.52-.38-.22-.78-.4-1.16-.64-.19-.07-.39-.14-.6-.18-.84-.26-1.73-.1-2.49.2-.82.4-1.53,1.12-2.32,1.57-.51.39-1.28.54-1.94.37-.16,0-.28-.1-.43-.11-.2-.08-.38-.16-.53-.31.08-.22.14-.45.25-.66.09-.34.3-.64.48-.93.21-.32.45-.69.76-.9.25-.17.5-.41.81-.52.23-.14.46-.25.74-.29.13-.03.27-.09.41-.07.1-.05.04-.18.07-.26,0-.08-.1-.1-.16-.14-.29.02-.57.03-.8.14-.24.06-.37.22-.61.28-.27.29-.67.18-.93.46-.22.09-.42.24-.66.29-.49-.09-.93-.28-1.44-.33-.38-.16-.81,0-1.2,0-.39.16-.84.1-1.18.34-.55.3-1.08.51-1.6.9-.26.16-.49.29-.72.48-.04,0-.06.05-.11.07-.62.48-1.25,1.04-1.71,1.67-.22.25-.48.54-.63.81l-.05.04c0-.25.06-.47.14-.7h0ZM68.26,42.2l-.07.06c-.41.77-.93,1.5-1.4,2.24h-.11c-.9-.56-1.74-1.19-2.54-1.89v-.08c.16-.21.35-.47.55-.65.56.43,1.12.84,1.64,1.23.36-.49.7-.99,1.05-1.5l-.08-.1c-.98-.64-1.84-1.47-2.71-2.28-.67.57-1.26,1.25-1.95,1.86h-.1c-.83-.8-1.57-1.71-2.2-2.69.24-.2.49-.39.76-.5.46.57.84,1.18,1.37,1.71l1.34-1.19c-.83-.99-1.61-2.07-2.26-3.18l-.04-.02-2.31,1.3h-.08c-.3-.41-.52-.87-.76-1.3-.3-.63-.65-1.25-.79-1.92l.84-.31c.3.7.6,1.39.94,2.06h.07s1.56-.77,1.56-.77l.03-.07c-.59-1.18-1.15-2.37-1.43-3.67-.16-.13-.32.04-.48.06-.75.18-1.48.46-2.25.57-.35-1.26-.62-2.5-.74-3.85.28-.08.6-.11.91-.12.14.81.25,1.68.42,2.49.58-.14,1.16-.26,1.75-.35l.06-.06c-.31-1.34-.47-2.7-.49-4.08h0s0-.69,0-.69c-.91-.04-1.81-.03-2.69-.08-.08-.48.02-.94.03-1.42.06-.42.1-.87.17-1.3.05-.01.09-.03.14-.04.32-.07.59-.23.88-.36-.09.61-.23,1.21-.22,1.83l1.22.11c.18.01.41.04.57-.01.02-.26.06-.51.09-.76.08-.04.16-.09.24-.12.02,0,.04.02.03.05-.05.45.13.85.37,1.2.04.02.07.05.1.07-.21,3.43.4,6.05,1.34,8.44,1.33,3.58,3.97,6.8,7.21,9.04.05.2.11.4.16.6.2.3.37.63.61.92-.26-.16-.51-.3-.75-.46h0ZM86.27,46.88v.17c-.94.32-1.89.59-2.91.73-.09-.29-.16-.59-.2-.9.59-.17,1.19-.3,1.8-.41l.08-.07c-.17-.58-.3-1.16-.51-1.74-1.08.22-2.19.52-3.36.59l-.11.11c.11.85.18,1.77.25,2.64l-.07.07c-.98.12-2.06.12-3.03.07l-.03-.04c-.07-.3-.03-.61.03-.91.71-.03,1.33.07,2.03-.02,0-.57-.02-1.21-.09-1.84-1.14.04-2.28.01-3.42-.1-.14.91-.24,1.83-.36,2.75-1.06-.1-2.1-.3-3.12-.61.06-.31.16-.6.24-.9.64.17,1.33.26,1.99.43l.06-.03c.07-.61.23-1.22.28-1.82-.57-.11-1.16-.17-1.71-.34-.59-.16-1.18-.35-1.77-.53l-.06.03-.9,2.52-.07.04c-.79-.27-1.55-.6-2.3-.97-.23-.13-.48-.21-.64-.41l.41-.77c.66.27,1.28.63,1.94.9.27-.52.45-1.08.66-1.62.43.02.94.05,1.35-.07.23-.05.44-.12.65-.21.38.11.75.22,1.13.31,3.64.85,7.24.71,10.54-.33.07.02.15.03.22.03.02,0,.05.05.07,0,.15.03.31.05.45.1.22,0,.45.06.67.05.11,0,.21-.02.31,0,.07,0,.12-.01.19-.02-.48.2-.97.38-1.46.56.2.86.52,1.68.77,2.52h0ZM99.74,24.69h0s0,.69,0,.69c.91.04,1.81.03,2.7.08.08.48-.02.94-.03,1.42-.1.74-.16,1.56-.39,2.27-.28-.06-.57-.08-.84-.18.07-.74.28-1.47.27-2.21l-1.22-.11c-.18-.01-.41-.04-.58.01-.12,1.39-.39,2.64-.74,3.93.87.27,1.75.53,2.62.8-.3,1.18-.76,2.28-1.29,3.35-.1.03-.21-.04-.31-.07-.15-.13-.4-.13-.52-.31.28-.66.6-1.29.81-1.96-.56-.21-1.14-.38-1.68-.6l-.05.04c-.46,1.16-.95,2.33-1.64,3.4v.13l2.31,1.36c-.53,1.05-1.27,2.03-2.06,2.97h-.11c-.22-.2-.48-.32-.63-.55.45-.6.9-1.2,1.34-1.81v-.07c-.46-.34-.95-.61-1.42-.94h-.11c-.74,1.09-1.65,2.13-2.52,3.07.59.59,1.34,1.34,1.94,1.95-.9.95-1.79,1.72-2.81,2.38-.2-.22-.37-.46-.53-.71.2-.21.48-.37.69-.55.38-.31.79-.59,1.09-.97-.42-.46-.8-.92-1.21-1.33l-.37.32c-.86.77-1.84,1.36-2.78,2.02.48.79.98,1.56,1.42,2.35-.93.61-1.91,1.07-2.9,1.48-.2-.26-.33-.56-.38-.89.61-.3,1.25-.56,1.86-.89-.24-.51-.51-1.01-.78-1.51.16-.13.32-.27.44-.44.21-.07.2-.33.34-.45.07-.25.18-.5.34-.72-.02-.02,0-.05.02-.06,0-.07.01-.14.05-.21,1.73-1.17,3.27-2.59,4.58-4.22,2.77-3.67,4.28-8.02,4.17-12.78-.02,0,.02,0,0,0-.03-.78-.11-1.56-.23-2.33.08-.06.16-.13.22-.21.01-.1.13-.13.13-.23.02-.07.02-.16.09-.2.07.07.16.16.21.24.07.06.14.12.21.18.19.98.29,2,.3,3.03h0ZM100.6,21.86c-.46-.18-.82-.51-1.16-.86-.4-.44-.71-1.06-1.05-1.57-.12-.19-.22-.39-.34-.58-.11-.29-.26-.57-.43-.83.02-.04-.06-.02-.02-.07-.25-.33-.54-.57-.83-.85-.23-.15-.45-.29-.7-.38-.02,0,0-.03-.03-.02.33-.12.5-.5.87-.59.06-.06.15-.13.1-.22-.03-.07-.1-.1-.17-.1-.32-.13-.56-.34-.77-.57-.17-.3-.41-.46-.6-.74l-.13-.12c.22.04.45.14.65.27.77.35,1.32,1.1,1.87,1.69.08.12.18.25.26.39.12.24.32.46.44.69h.01c.1.2.26.38.35.58.24.38.49.73.73,1.13.06.02.06.08.09.12.09.13.21.21.27.35.16.11.28.28.41.42.21.26.42.44.67.66v.02c.41.29.8.65,1.2.93.05.06.13.11.1.22-.02.02-.03.07-.02.09-.09.11-.19.24-.37.21-.3-.07-.6-.14-.85-.32-.13-.03-.25.09-.39.08-.04.03-.1.02-.14.02h0ZM101.48,22.7c-.02-.1-.03-.2-.05-.29.04.01.08.02.12.03.1.04.22.07.3.1.17,0,.32-.07.5-.08,0,0,.02-.01.02-.02,0,.05.01.09.02.14-.28.09-.6.12-.91.13h0Z"/><path d="M81.04,34.73c-.38.12-.77.21-1.19.23-.5.05-.87-.02-1.27-.09-.61-.06-1.13.21-1.73.07-.19,0-.3-.15-.48-.17-.06-.03-.1.02-.1.07-.04.08.05.14.09.2.38.31.98.34,1.45.22.38-.1.72,0,1.08-.02.69.21,1.41.02,2.05-.17.12-.06.34-.1.37-.28-.03-.09-.17-.17-.26-.07ZM76.83,33.12s0,.09.02.11c.23.1.49.1.73,0,.3-.08.35-.2.65-.26h.21c.1-.04.15.01.27.07.13.04.11.13.34.06.53-.43,1.01.21,1.58.16.06-.06.16,0,.21-.07.01-.06,0-.14-.07-.17-.46.04-.71-.38-1.13-.43-.3-.09-.5.13-.75.2-.58-.4-.93.06-1.42.19-.17.11-.5-.04-.63.13h0Z"/><path d="M104.2,25.36c0-.38-.02-1.16-.02-1.16-.23-6.43-2.76-12.38-7.37-17.01-4.18-4.09-9.17-6.45-14.84-7.07-8.86-.85-16.81,2.63-22.3,9.48-3.27,4.25-5.15,9.15-5.35,14.6,0,0-.01.21-.02.31,0,.38.02,1.15.02,1.15.23,6.44,2.76,12.38,7.37,17.01,4.18,4.09,9.17,6.45,14.84,7.07,8.86.85,16.81-2.64,22.3-9.48,3.27-4.25,5.15-9.15,5.35-14.6,0,0,.02-.2.02-.31h0ZM101.13,35.8c-3.59,7.39-11.25,12.7-19.33,13.49-.88.1-1.89.13-2.77.15-3.24-.04-6.44-.72-9.42-1.99-9.25-3.95-15.14-13.39-14.83-23.24.16-3.66,1.02-7.03,2.59-10.13,3.59-7.39,11.26-12.7,19.33-13.49.89-.1,1.89-.12,2.78-.16,3.39.06,6.52.76,9.42,1.99,9.25,3.95,15.14,13.39,14.83,23.24-.16,3.66-1.02,7.03-2.59,10.13Z"/><path d="M86.59,24.48c-.25.26-.5.4-.85.44-.38-.06-.57-.14-.99-.49-.12-.04-.46-.27-.6-.35-.51-.29-1.01-.25-1.64-.16-.3.04-.61.29-.86.44-.16.08-.28.17-.39.28-.06.06-.1.14-.14.22,0,.03-.03.12.04.1,0,0,.11-.07.12-.06.05-.02.04-.02.06-.03l.03-.03.02-.02s0,0,0,0c.06-.04.08-.05.15-.08.39-.28.7-.37,1.32-.47.59-.03.86.07,1.23.21.48.22.76.53.88.64.02.08-.49-.31-.68-.35-.58-.19-.98-.28-1.63-.21-.54.1-1.07.45-1.41.84-.02.02-.05.15-.09.14-.04.06-.09.14-.04.21.02,0,.12.03.15.01.15-.13.16-.2.27-.27.78-.61,1.87-.7,2.72-.32.13.1.32.16.39.32,0,.21.1.37-.05.52-.07.02-.31.19-.35.18-.53.35-1.2.3-1.83.16-.25-.04-.3-.23-.41-.44-.07-.18.02-.47-.24-.53-.03,0-.07.02-.07.06-.18.28-.03.45.02.68l-.02.02c-.17-.07-.46-.06-.53-.27-.04-.02-.08,0-.11.02-.05.07,0,.16,0,.23.06.16.18.16.3.24.37.06.74.21,1.09.29.66.2,1.45.1,2.03-.2.34-.14.56-.3.86-.52.06-.05.15-.11.19-.13.04-.06.02-.08.08-.16,0-.1-.04-.09-.11-.16-.02,0-.24-.15-.25-.16l-.16-.11c.12.04.68.04.8.02.27-.14.52-.12.67-.4.07-.03.1-.13.17-.16.06-.1.14-.21.17-.31.02-.06,0-.12-.04-.17-.15.03-.21.2-.27.31h0ZM85.23,25.62c-.09.11-.24.16-.27.2-.05,0-.02-.3-.04-.37-.01-.03.33.18.32.17h0ZM81.89,33.44c-.17.11.11.23,0,.35-.21.1-.45.16-.67.2-.58.1-1.1-.21-1.66-.25-.31,0-.49.24-.8.27-.34-.15-.73-.31-1.13-.22-.35.05-.66.19-.99.22-.31,0-.65.09-.91-.11l.05-.06s.02-.1-.02-.13c-.17-.09-.28.1-.4.19-.06.16-.25.21-.22.39.03.06.1.1.17.1.07-.07.11-.14.21-.18.08-.02.16,0,.22.04.66.39,1.22-.08,1.87-.14.37-.1.72.1,1.03.23.25.1.5-.07.68-.2.19-.18.52-.08.74,0,.3.21.77.21,1.16.13.32-.1.69-.15,1.01-.27l.19.11c.06.03.12,0,.15-.06-.02-.09-.07-.18-.15-.24-.16-.12-.26-.37-.53-.37h0ZM77.86,27.31c.02.33.09.65.05.98-.07.31-.1.66-.22.97-.09.57-.14,1.14.17,1.62.16.36.57.44.92.51.19-.02.39-.06.56-.15,0-.04.02-.12-.03-.17-.21,0-.41-.02-.62-.05-.35-.03-.52-.24-.62-.55-.28-.86.22-1.2.2-2.03l-.02-.44c-.02-.52-.15-1.18,0-1.72.02-.48.03-.66-.02-1.08.02-.22-.11-.37-.1-.52-.04-.03-.06-.07-.07-.11-.06,0-.07.03-.12.06,0,0-.02.07-.02.08-.02.41.04.81.02,1.18-.02.51-.22.96-.06,1.44h0ZM77.46,31.57c.26-.06.53.06.77.15.04,0,.06-.07.06-.12-.04-.05-.09-.09-.14-.12-.35-.35-.95-.31-1.38-.16-.14.03-.23.1-.4.02-.11-.09-.2-.24-.17-.36-.05-.06-.14-.04-.2,0-.07.22.03.42.16.57.36.37.88.02,1.31,0h0ZM78.73,32.17c-.08.02-.07.1-.1.16.23.13.56.25.8.05.03-.07.1-.11.08-.19,0-.06-.04-.07-.08-.07-.17.12-.49.1-.7.05h0Z"/><path d="M80.86,24.43c.29-.1.61-.37.83-.58.22-.25.44-.4.78-.54.24-.06.47-.12.66-.18.34-.02.61.03.88.13.3.06.32.12.66.21.16.1.4.12.52.19.02,0,.32.13.52.18.52.06.68.05,1.17-.19.08.02.07-.04.12-.06.02-.04.04-.1,0-.12-.3.03-.57.14-.86.1-.19-.01-.38-.04-.57-.1-.3-.11-.59-.22-.88-.35-.33-.13-.67-.24-1.02-.32-.26-.04-.53-.04-.79-.01-.37.08-.73.24-1.03.47-.16.17-.25.22-.35.34-.27.22-.5.52-.85.63-.04.02-.07.04-.1.08.08.12.19.08.32.12h0ZM81.08,27.3s.07.02.09-.01c0-.01.01-.03.01-.04-.05-.08-.02-.14-.06-.23-.04-.1-.14-.18-.16-.29-.19-.32-.3-.67-.4-1.02-.04-.09-.11-.16-.2-.17-.03.02-.05.05-.07.08.02.29.09.58.2.85.15.3.27.66.58.84h0ZM79.59,31.52c.21,0,.45-.01.6-.02.39-.02.65,0,.97-.2.26-.17.29-.48.25-.74l-.05-.07c-.25-.02-.19.25-.26.41-.24.33-.6.27-1.07.32l-.47.11s-.13.07-.1.14c.04.02.07.06.12.05h0Z"/></g></svg>