<?xml version="1.0" encoding="UTF-8"?><svg id="uuid-a0cfc561-1976-4b23-a868-ae8fa0c021c6" xmlns="http://www.w3.org/2000/svg" viewBox="0 0 45.1 94"><g id="uuid-cd3ec701-2a24-4343-9866-12eba2506533"><path d="M16.28,92.06c-.56,0-.12-1.7-.12-1.7l2.48-10.32c10.42-2.01,13.23-10.3,13.33-15.79.17-6.19-6.47-12.31-6.47-12.31l4.42-18.19h-6.92c.88,1.55.37,3.04.37,3.04l-2.17,9.98-1.92-2.3s1.51-6.92,2.22-10.13c.72-3.21,2.11-5.32,2.11-5.32l5.88-8.22c4.91,2.84,6.48,6.52,6.48,6.52l1.26-4.99c-2.63-2.49-6.42-3.56-6.42-3.56l10.97-15.47C43.36.89,45.1,0,45.1,0h-4.84l-11.63,18.07c-5.38-1.47-10.49.08-10.49.08L12.65,0h-4.68c.93.35,1.55,2.68,1.55,2.68l2.89,11.55,1.51,5.68c-5.44,3.58-7.39,8.55-7.54,13.32-.15,4.77,2.81,8.07,2.81,8.07l4.77,5.42s-1.26,7.17-1.81,10.47-1.83,3.53-1.83,3.53h6.5c-1.03-.65-.41-3.25-.41-3.25l1.39-6.73,2.05,2.24-5.49,25.26c-9.82-.97-12.92-9.98-12.92-9.98l-1.43,5.92c6.07,6.23,13.89,6.23,13.89,6.23,0,0-2.01,9.28-2.36,10.95-.35,1.66-1.36,2.63-1.36,2.63h30.4l2.86-4.87c-12.07,2.94-21.97,2.94-21.97,2.94,0,0-4.62,0-5.18,0h0ZM16.32,33.19l-1.12,6.61s-4.26-4.02-4.26-8.98,3.56-8.47,3.56-8.47c0,0,1.26,4.69,1.82,7.12.37,1.61,0,3.72,0,3.72h0ZM27.44,20.06l-6.01,9.15-2.79-9.15s3.87-1.96,8.79,0h0ZM23.98,57.79c4.02,3.83,3.79,9.36,3.79,9.36-.15,9.09-8.59,10.87-8.59,10.87l4.8-20.23Z"/></g></svg>