<?xml version="1.0" encoding="UTF-8"?><svg id="uuid-0fdd2c82-439b-44af-8852-1a3734cc081c" xmlns="http://www.w3.org/2000/svg" viewBox="0 0 19.84 32"><defs><style>.uuid-a154e65c-def4-46d7-9b78-0ea1b7d39f4a{fill:#043e38;}</style></defs><g id="uuid-6873cc31-4b9d-4930-8047-aa519f621147"><path class="uuid-a154e65c-def4-46d7-9b78-0ea1b7d39f4a" d="M16.78,21.35c.59-.3,1.15-.65,1.67-1.07.16-.13.72-.6.8-.74.1-.17.02-.45.04-.65-.83.86-1.81,1.49-2.88,1.91-.12-.18-.24-.36-.35-.54-2-3.14-3.23-6.02-2.81-9.85.03-.25.1-.5.14-.74h-2.81l-3.66,9.15C3.55,16.13,1.13,11.77,1.54,7.93,2.05,3.14,6.86.76,11.29,1.34c3.23.43,6.83,2.53,7.71,5.84h.28s0-4.22,0-4.22c-.04,0-.09-.02-.12-.05C16.24.06,11.07-.72,7.28.68-1.29,3.84-1.61,17.14,5.92,21.32l-3.14,7.85c-.44.9-1.01,1.59-1.94,1.99-.16.07-.72.21-.79.27-.1.08-.04.31.02.31h6.48c.1-.08.08-.22.07-.33-1.61-.36-1.17-1.71-.76-2.86.61-1.74,1.9-5.01,4.32-4.03,2.31.94,2.8,6.56,5.64,7.36,2.07.58,3.84-.96,4-3,.24-2.87-1.49-5.25-3.04-7.53ZM11.04,16.93c.11-1.53-.35-3.17.42-4.57.35-.62.87-1.14,1.45-1.55l-.1,1.37c-.09,2.53.38,4.92,1.51,7.18.28.56.64,1.15,1.03,1.76-.78.18-1.6.27-2.42.22-.95-.05-1.9-.29-2.82-.66.49-1.2.84-2.46.94-3.75ZM18.13,29.78c-.62,1.6-2.55,2.06-3.71.71-1.43-1.67-1.89-5.92-3.94-6.71-.8-.31-1.58-.21-2.27.28l1.03-1.62c2.17.37,4.5.18,6.55-.63,1.59,2.49,3.38,5.32,2.34,7.97Z"/></g></svg>